<svg width="100" height="100" viewBox="0 0 100 100" fill="none" xmlns="http://www.w3.org/2000/svg">
<path d="M99.4414 61.5845C98.5716 60.5965 97.888 59.3903 97.3837 58.2482C95.9128 54.9202 97.0602 50.2831 93.5126 48.0843C90.9208 46.4783 87.2023 46.9864 84.7616 48.6435C84.0193 49.1478 80.5632 52.3445 81.2399 53.4249C81.2437 53.431 90.1335 67.6148 90.1335 67.6148C95.1307 68.6028 98.0604 66.2491 99.5054 64.4669C100.19 63.6223 100.159 62.4001 99.4414 61.5845Z" fill="#CC7643"/>
<path d="M25.3838 4.20605C39.4051 4.20605 50.7698 13.7832 50.7698 28.0807C50.7698 42.379 39.4043 53.968 25.3838 53.968C11.3647 53.968 0 42.379 0 28.0807C0 13.7832 11.3647 4.20605 25.3838 4.20605Z" fill="#FBC4AC"/>
<path d="M4.82864 28.0807C4.82864 14.6141 14.9124 5.33597 27.7985 4.30371C27.0035 4.23962 26.1986 4.20605 25.3838 4.20605C11.3647 4.20605 0 13.7832 0 28.0807C0 42.379 11.3647 53.968 25.3838 53.968C26.1986 53.968 27.0035 53.9276 27.7985 53.8505C14.9124 52.6107 4.82864 41.5481 4.82864 28.0807Z" fill="#E3B098"/>
<path d="M11.8531 33.4518C11.02 33.4518 10.344 32.7758 10.344 31.9427V29.3113C10.344 28.4782 11.02 27.8022 11.8531 27.8022C12.6862 27.8022 13.3622 28.4782 13.3622 29.3113V31.9427C13.3622 32.7758 12.6862 33.4518 11.8531 33.4518Z" fill="#3A484A"/>
<path d="M13.6451 37.3192H10.0616C9.22769 37.3192 8.55249 36.6432 8.55249 35.8101C8.55249 34.9762 9.22769 34.301 10.0616 34.301H13.6451C14.4782 34.301 15.1542 34.9762 15.1542 35.8101C15.1542 36.6432 14.4782 37.3192 13.6451 37.3192Z" fill="#F98084"/>
<path d="M38.9168 33.4518C38.0829 33.4518 37.4077 32.7758 37.4077 31.9427V29.3113C37.4077 28.4782 38.0829 27.8022 38.9168 27.8022C39.7499 27.8022 40.4259 28.4782 40.4259 29.3113V31.9427C40.4259 32.7758 39.7499 33.4518 38.9168 33.4518Z" fill="#3A484A"/>
<path d="M40.7081 37.3192H37.1246C36.2914 37.3192 35.6155 36.6432 35.6155 35.8101C35.6155 34.9762 36.2914 34.301 37.1246 34.301H40.7081C41.542 34.301 42.2172 34.9762 42.2172 35.8101C42.2172 36.6432 41.542 37.3192 40.7081 37.3192Z" fill="#F98084"/>
<path d="M25.3846 37.1704C24.006 37.1704 22.7097 36.5921 21.8285 35.5835C21.28 34.9556 21.3441 34.0027 21.9712 33.4541C22.5983 32.9056 23.552 32.9697 24.1006 33.5968C24.4088 33.95 24.8772 34.1522 25.3846 34.1522C25.8927 34.1522 26.3604 33.95 26.6686 33.5968C27.2172 32.9697 28.1708 32.9056 28.798 33.4541C29.4259 34.0027 29.49 34.9564 28.9414 35.5835C28.0595 36.5921 26.7632 37.1704 25.3846 37.1704Z" fill="#3A484A"/>
<path d="M1.2146 20.1485C2.95792 -1.07423 11.5158 2.19421 25.3838 2.19421C35.8681 2.19421 40.9027 1.1444 43.0481 0.475304C43.9056 0.207512 44.8288 0.593559 45.237 1.39465C46.949 4.75463 50.7698 13.8458 50.7698 28.0815C50.7698 28.0815 44.6983 17.1478 25.3838 17.1478C16.3994 17.1478 17.1509 20.1485 1.2146 20.1485Z" fill="#3A484A"/>
<path d="M19.2444 2.05914C8.99429 1.77151 2.68402 2.26208 1.2146 20.1484C3.03192 20.1484 4.63028 20.1088 6.05316 20.0401C7.28912 5.25509 11.8576 2.42688 19.2444 2.05914Z" fill="#323E40"/>
<path d="M90.8409 73.6985C90.8409 87.9967 79.4761 99.5858 65.4563 99.5858C51.4358 99.5858 40.071 87.9967 40.071 73.6985C48.4916 52.9633 65.4563 65.5312 65.4563 65.5312C65.4563 65.5312 82.4218 52.9633 90.8409 73.6985Z" fill="#FBC4AC"/>
<path d="M65.4563 99.5857C66.2551 99.5857 67.0646 99.5621 67.8581 99.4698C67.8619 99.4698 67.8665 99.469 67.8703 99.469C54.9827 98.2285 44.8997 87.1658 44.8997 73.6984C44.8997 70.4041 45.5047 67.2539 46.6056 64.3555C44.1947 66.1812 41.9258 69.1322 40.071 73.6984C40.071 74.5819 40.1145 75.4669 40.2023 76.3458C41.5023 89.4005 52.3124 99.5857 65.4563 99.5857Z" fill="#E3B098"/>
<path d="M90.8409 73.6984C82.4218 52.9633 65.4563 65.5312 65.4563 65.5312C65.4563 65.5312 48.4916 52.9633 40.071 73.6984C40.071 59.4009 51.4358 47.8119 65.4563 47.8119C79.4761 47.8119 90.8409 59.4009 90.8409 73.6984Z" fill="#E0824A"/>
<path d="M46.6056 64.3555C50.003 55.407 58.1359 48.8663 67.8703 47.9286C67.8665 47.9286 67.8619 47.9286 67.8581 47.9279C67.0608 47.8546 66.2574 47.8119 65.4563 47.8119C52.3124 47.8119 41.5023 57.9979 40.2023 71.0518C40.1588 71.4874 40.126 71.9254 40.1039 72.3671C40.0817 72.8081 40.071 73.2521 40.071 73.6992C41.9258 69.1322 44.1947 66.1812 46.6056 64.3555Z" fill="#CC7643"/>
<path d="M78.9879 79.0695C78.154 79.0695 77.4788 78.3935 77.4788 77.5604V74.929C77.4788 74.0959 78.154 73.4199 78.9879 73.4199C79.821 73.4199 80.4962 74.0959 80.4962 74.929V77.5604C80.4962 78.3935 79.821 79.0695 78.9879 79.0695Z" fill="#3A484A"/>
<path d="M80.7791 82.9369H77.1956C76.3617 82.9369 75.6865 82.2609 75.6865 81.4278C75.6865 80.5939 76.3617 79.9187 77.1956 79.9187H80.7791C81.613 79.9187 82.2882 80.5939 82.2882 81.4278C82.2882 82.2609 81.613 82.9369 80.7791 82.9369Z" fill="#F98084"/>
<path d="M51.9241 79.0695C51.0902 79.0695 50.415 78.3935 50.415 77.5604V74.929C50.415 74.0959 51.0902 73.4199 51.9241 73.4199C52.758 73.4199 53.4332 74.0959 53.4332 74.929V77.5604C53.4332 78.3935 52.758 79.0695 51.9241 79.0695Z" fill="#3A484A"/>
<path d="M53.7162 82.9369H50.1326C49.2987 82.9369 48.6235 82.2609 48.6235 81.4278C48.6235 80.5939 49.2987 79.9187 50.1326 79.9187H53.7162C54.5493 79.9187 55.2253 80.5939 55.2253 81.4278C55.2253 82.2609 54.5493 82.9369 53.7162 82.9369Z" fill="#F98084"/>
<path d="M65.4556 82.7881C64.077 82.7881 62.7808 82.2098 61.8996 81.2012C61.351 80.5733 61.4151 79.6204 62.0422 79.0719C62.6694 78.5233 63.623 78.5874 64.1716 79.2153C64.4798 79.5678 64.9475 79.7699 65.4556 79.7699C65.9637 79.7699 66.4314 79.5678 66.7404 79.2153C67.2882 78.5874 68.2419 78.5233 68.869 79.0719C69.4969 79.6204 69.561 80.5733 69.0124 81.2012C68.1313 82.2098 66.8343 82.7881 65.4556 82.7881Z" fill="#3A484A"/>
<path d="M60.3287 22.6143C59.7748 22.6143 59.2422 22.3083 58.9775 21.7796C58.6052 21.0342 58.9073 20.1279 59.6527 19.7548L62.9272 18.1175C63.6734 17.7452 64.579 18.0473 64.9521 18.7927C65.3252 19.5381 65.023 20.4445 64.2769 20.8176L61.0023 22.4548C60.7857 22.5624 60.5553 22.6143 60.3287 22.6143Z" fill="#3A484A"/>
<path d="M63.6009 36.4006C63.3743 36.4006 63.1439 36.3495 62.9273 36.2412L59.652 34.6039C58.9073 34.2308 58.6052 33.3245 58.9775 32.5791C59.3498 31.8337 60.2562 31.5316 61.0024 31.9046L64.2769 33.5419C65.0223 33.915 65.3244 34.8214 64.9521 35.5667C64.6874 36.0955 64.1548 36.4006 63.6009 36.4006Z" fill="#3A484A"/>
<path d="M64.8171 28.6888H61.1199C60.286 28.6888 59.6108 28.0129 59.6108 27.1797C59.6108 26.3459 60.286 25.6707 61.1199 25.6707H64.8171C65.651 25.6707 66.3262 26.3459 66.3262 27.1797C66.3262 28.0129 65.651 28.6888 64.8171 28.6888Z" fill="#3A484A"/>
<path d="M29.3846 70.7626C29.158 70.7626 28.9276 70.7115 28.7109 70.6031L25.4356 68.9659C24.6902 68.5928 24.3881 67.6864 24.7612 66.941C25.1343 66.1956 26.0407 65.8935 26.786 66.2658L30.0606 67.9039C30.806 68.2762 31.1081 69.1826 30.7358 69.9279C30.471 70.4567 29.9385 70.7626 29.3846 70.7626Z" fill="#3A484A"/>
<path d="M26.1124 84.5497C25.5585 84.5497 25.0252 84.2438 24.7612 83.7151C24.3881 82.9697 24.6902 82.0633 25.4356 81.6902L28.7109 80.0529C29.4563 79.6799 30.3627 79.982 30.7358 80.7274C31.1081 81.4728 30.806 82.3791 30.0606 82.7522L26.786 84.3903C26.5694 84.4978 26.339 84.5497 26.1124 84.5497Z" fill="#3A484A"/>
<path d="M28.5935 76.8372H24.8963C24.0624 76.8372 23.3872 76.1612 23.3872 75.3281C23.3872 74.4942 24.0624 73.819 24.8963 73.819H28.5935C29.4274 73.819 30.1026 74.4942 30.1026 75.3281C30.1026 76.1612 29.4274 76.8372 28.5935 76.8372Z" fill="#3A484A"/>
</svg>
