<svg width="131" height="137" viewBox="0 0 131 137" fill="none" xmlns="http://www.w3.org/2000/svg">
<path d="M113.426 35.8299C127.125 55.6301 134.46 77.6902 129.39 95.6611C124.213 113.632 106.522 127.514 88.5086 133.432C70.387 139.458 51.9417 137.521 35.5459 130.096C19.0423 122.779 4.58811 109.866 0.920638 94.3698C-2.63897 78.8739 4.48025 60.903 16.1299 41.5332C27.6716 22.1634 43.7438 1.60986 61.7576 0.103318C79.7714 -1.51083 99.7268 16.0296 113.426 35.8299Z" fill="#CAF7D9"/>
<path d="M86.1874 37.6094C75.3823 37.6094 66.6238 43.321 66.6238 54.3397C66.6238 65.3584 75.3823 74.2891 86.1874 74.2891C96.9912 74.2891 105.749 65.3584 105.749 54.3397C105.749 43.321 96.9912 37.6094 86.1874 37.6094Z" fill="#FBC4AC"/>
<path d="M70.4867 54.3396C70.4867 43.9856 78.2205 35.4755 88.1185 34.4867C87.4832 34.4226 86.8392 34.3896 86.1874 34.3896C75.3823 34.3896 66.6238 43.3209 66.6238 54.3396C66.6238 65.3583 75.3823 74.2889 86.1874 74.2889C86.8392 74.2889 87.4832 74.256 88.1185 74.1925C78.2205 73.2031 70.4867 64.693 70.4867 54.3396Z" fill="#E3B098"/>
<path d="M96.6145 58.5225C95.9474 58.5225 95.4072 57.9823 95.4072 57.3152V55.2876C95.4072 54.6211 95.9474 54.0803 96.6145 54.0803C97.2816 54.0803 97.8218 54.6211 97.8218 55.2876V57.3152C97.8218 57.9823 97.2816 58.5225 96.6145 58.5225Z" fill="#3A484A"/>
<path d="M97.9954 61.5029H95.2341C94.567 61.5029 94.0269 60.9622 94.0269 60.2957C94.0269 59.6292 94.567 59.0884 95.2341 59.0884H97.9954C98.6625 59.0884 99.2026 59.6292 99.2026 60.2957C99.2026 60.9622 98.6625 61.5029 97.9954 61.5029Z" fill="#F98084"/>
<path d="M75.7583 58.5225C75.0912 58.5225 74.551 57.9823 74.551 57.3152V55.2876C74.551 54.6211 75.0912 54.0803 75.7583 54.0803C76.4254 54.0803 76.9656 54.6211 76.9656 55.2876V57.3152C76.9656 57.9823 76.4254 58.5225 75.7583 58.5225Z" fill="#3A484A"/>
<path d="M77.1389 61.5029H74.3777C73.7106 61.5029 73.1704 60.9622 73.1704 60.2957C73.1704 59.6292 73.7106 59.0884 74.3777 59.0884H77.1389C77.806 59.0884 78.3462 59.6292 78.3462 60.2957C78.3462 60.9622 77.806 61.5029 77.1389 61.5029Z" fill="#F98084"/>
<path d="M86.1862 61.3881C85.1107 61.3881 84.1 60.937 83.4121 60.1503C82.9733 59.648 83.0251 58.8856 83.5269 58.4468C84.0292 58.008 84.7915 58.0592 85.2304 58.5615C85.4592 58.8234 85.8077 58.9735 86.1862 58.9735C86.5646 58.9735 86.9137 58.8234 87.1426 58.5609C87.5814 58.0592 88.3438 58.008 88.8461 58.4468C89.3484 58.8856 89.3997 59.6486 88.9602 60.1503C88.273 60.937 87.2616 61.3881 86.1862 61.3881Z" fill="#3A484A"/>
<path d="M104.813 48.2264C103.469 31.8715 96.8746 34.3898 86.1874 34.3898C78.1075 34.3898 74.2275 33.5811 72.5747 33.0653C71.9137 32.8584 71.202 33.1562 70.8877 33.7733C69.5681 36.363 66.6238 43.3687 66.6238 54.3397C66.6238 54.3397 71.3027 45.9138 86.1868 45.9138C93.1112 45.9138 92.532 48.2264 104.813 48.2264Z" fill="#C86D5C"/>
<path d="M74.7512 33.7733C74.7817 33.7135 74.8165 33.6573 74.8544 33.6042C73.8339 33.4181 73.0941 33.227 72.5747 33.0653C71.9137 32.8584 71.202 33.1562 70.8877 33.7733C69.5681 36.363 66.6238 43.3687 66.6238 54.3397C66.6238 54.3397 67.7438 52.3249 70.6271 50.2662C71.2258 41.6243 73.6025 36.0261 74.7512 33.7733Z" fill="#AD4F3D"/>
<path d="M26.4829 92.2773V105.138C26.4829 108.342 28.892 111.034 32.0768 111.388L41.3206 112.417L26.4829 92.2773Z" fill="#3A484A"/>
<path d="M65.5795 92.2773V105.138C65.5795 108.342 63.171 111.034 59.9862 111.388L50.7424 112.417L65.5795 92.2773Z" fill="#3A484A"/>
<path d="M65.5795 92.2773C65.5782 92.2792 65.5782 92.2792 65.5782 92.2792L45.5972 77.1736L26.4846 92.2792L26.4828 92.2773C26.4736 92.5343 26.4688 92.7906 26.4688 93.0494C26.4688 104.068 35.2267 113 46.0311 113C56.8362 113 65.5941 104.068 65.5941 93.0494C65.5941 92.7913 65.5892 92.5343 65.5795 92.2773Z" fill="#FBC4AC"/>
<path d="M29.7189 91.6421C28.6624 91.9375 27.5814 92.1578 26.4846 92.2793L26.4828 92.2775C26.4736 92.5344 26.4688 92.7908 26.4688 93.0496C26.4688 104.068 35.2267 113 46.0311 113C46.5896 113 47.142 112.975 47.6882 112.928C37.9733 112.041 30.2572 102.948 29.7189 91.6421Z" fill="#E3B098"/>
<path d="M35.6033 97.2322C34.9368 97.2322 34.396 96.692 34.396 96.0249V93.9973C34.396 93.3308 34.9368 92.79 35.6033 92.79C36.2704 92.79 36.8105 93.3308 36.8105 93.9973V96.0249C36.8105 96.692 36.2704 97.2322 35.6033 97.2322Z" fill="#3A484A"/>
<path d="M36.9839 100.212H34.2227C33.5555 100.212 33.0154 99.6722 33.0154 99.0051C33.0154 98.3386 33.5555 97.7979 34.2227 97.7979H36.9839C37.651 97.7979 38.1912 98.3386 38.1912 99.0051C38.1912 99.6722 37.651 100.212 36.9839 100.212Z" fill="#F98084"/>
<path d="M56.4597 97.2322C55.7932 97.2322 55.2524 96.692 55.2524 96.0249V93.9973C55.2524 93.3308 55.7932 92.79 56.4597 92.79C57.1268 92.79 57.667 93.3308 57.667 93.9973V96.0249C57.667 96.692 57.1268 97.2322 56.4597 97.2322Z" fill="#3A484A"/>
<path d="M57.8401 100.212H55.0789C54.4117 100.212 53.8716 99.6722 53.8716 99.0051C53.8716 98.3386 54.4117 97.7979 55.0789 97.7979H57.8401C58.5072 97.7979 59.0474 98.3386 59.0474 99.0051C59.0474 99.6722 58.5072 100.212 57.8401 100.212Z" fill="#F98084"/>
<path d="M46.0311 100.098C44.9557 100.098 43.9449 99.6473 43.2571 98.86C42.8182 98.3583 42.8701 97.5953 43.3718 97.1565C43.8735 96.7183 44.6365 96.7695 45.0753 97.2712C45.3042 97.5337 45.6527 97.6838 46.0311 97.6838C46.4095 97.6838 46.7587 97.5337 46.9876 97.2712C47.4264 96.7695 48.1893 96.7183 48.691 97.1571C49.1934 97.5959 49.2446 98.3583 48.8058 98.8606C48.1179 99.6473 47.1066 100.098 46.0311 100.098Z" fill="#3A484A"/>
<path d="M26.4829 92.2773L26.4847 92.2792C36.984 91.1177 46.0312 80.9767 46.0312 80.9767C46.0312 80.9767 55.0791 91.1177 65.5784 92.2792C65.5784 92.2792 65.5784 92.2792 65.5796 92.2773C65.1823 81.6169 56.583 73.1001 46.0312 73.1001C35.4801 73.1001 26.8809 81.6169 26.4829 92.2773Z" fill="#3A484A"/>
<path d="M47.7219 73.1752C47.1647 73.1263 46.6013 73.1001 46.0312 73.1001C35.4801 73.1001 26.8809 81.6169 26.4829 92.278L26.4847 92.2792C27.645 92.151 28.6045 91.9636 29.719 91.642C30.4117 81.8751 38.1791 74.0077 47.7219 73.1752Z" fill="#323E40"/>
<path d="M58.1466 60.1935V48.1348C58.1466 43.8269 54.6548 40.3345 50.3463 40.3345H34.269C29.9612 40.3345 26.4688 43.8269 26.4688 48.1348V59.1547C26.4688 63.4625 29.9612 66.9543 34.269 66.9543H61.8826L58.1466 60.1935Z" fill="#58B78C"/>
<path d="M50.7277 49.3423H33.8875C33.2209 49.3423 32.6802 48.8015 32.6802 48.135C32.6802 47.4679 33.2209 46.9277 33.8875 46.9277H50.7277C51.3948 46.9277 51.9349 47.4679 51.9349 48.135C51.9349 48.8015 51.3948 49.3423 50.7277 49.3423Z" fill="#EFEDEE"/>
<path d="M50.7277 54.8521H33.8875C33.2209 54.8521 32.6802 54.3119 32.6802 53.6448C32.6802 52.9783 33.2209 52.4375 33.8875 52.4375H50.7277C51.3948 52.4375 51.9349 52.9783 51.9349 53.6448C51.9349 54.3119 51.3948 54.8521 50.7277 54.8521Z" fill="#EFEDEE"/>
<path d="M44.3898 60.3623H33.8875C33.2209 60.3623 32.6802 59.8215 32.6802 59.155C32.6802 58.4879 33.2209 57.9478 33.8875 57.9478H44.3898C45.0563 57.9478 45.597 58.4879 45.597 59.155C45.597 59.8215 45.0563 60.3623 44.3898 60.3623Z" fill="#EFEDEE"/>
<path d="M74.0714 99.5992V87.5399C74.0714 83.2321 77.5638 79.7402 81.8717 79.7402H97.949C102.257 79.7402 105.749 83.2321 105.749 87.5399V98.5598C105.749 102.868 102.257 106.36 97.949 106.36H70.3354L74.0714 99.5992Z" fill="#F2C42C"/>
<path d="M98.3302 88.7476H81.49C80.8229 88.7476 80.2827 88.2068 80.2827 87.5403C80.2827 86.8732 80.8229 86.333 81.49 86.333H98.3302C98.9973 86.333 99.5375 86.8732 99.5375 87.5403C99.5375 88.2068 98.9967 88.7476 98.3302 88.7476Z" fill="#EFEDEE"/>
<path d="M98.3302 94.2573H81.49C80.8229 94.2573 80.2827 93.7166 80.2827 93.05C80.2827 92.3835 80.8229 91.8428 81.49 91.8428H98.3302C98.9973 91.8428 99.5375 92.3835 99.5375 93.05C99.5375 93.7166 98.9967 94.2573 98.3302 94.2573Z" fill="#EFEDEE"/>
<path d="M98.3302 99.7676H87.8279C87.1614 99.7676 86.6206 99.2268 86.6206 98.5603C86.6206 97.8932 87.1614 97.353 87.8279 97.353H98.3302C98.9967 97.353 99.5375 97.8932 99.5375 98.5603C99.5375 99.2268 98.9967 99.7676 98.3302 99.7676Z" fill="#EFEDEE"/>
</svg>
