<svg width="136" height="130" viewBox="0 0 136 130" fill="none" xmlns="http://www.w3.org/2000/svg">
<path d="M131.095 17.4019C139.895 30.6019 134.295 53.0019 128.095 73.2019C121.895 93.4019 114.995 111.402 100.595 121.102C86.1945 130.802 64.3945 132.202 44.8945 124.402C25.4945 116.602 8.49452 99.7019 2.49452 78.7019C-3.50548 57.8019 1.49452 32.7019 15.5945 18.3019C29.7945 3.80186 52.9945 -0.0981377 76.1945 0.0018623C99.2945 0.0018623 122.395 4.20186 131.095 17.4019Z" fill="#C5ECF1"/>
<g clip-path="url(#clip0)">
<path d="M92.6943 88.0865V25.1C92.6943 21.1788 89.7348 18 86.084 18H42.8337C39.1829 18 36.2234 21.1788 36.2234 25.1V88.0865C36.2234 92.0077 39.1829 95.1865 42.8337 95.1865H86.084C89.7348 95.1865 92.6943 92.0077 92.6943 88.0865Z" fill="#FBF1CF"/>
<path d="M86.084 95.1863C89.7348 95.1863 92.6944 92.0076 92.6944 88.0864V69.1355L74.5179 88.6585C72.9556 90.3367 71.8022 92.4278 71.1828 94.7055L71.052 95.1863H86.084Z" fill="#FAE0BD"/>
<path d="M108.563 75.6695L85.4936 100.448C84.5002 101.515 83.2727 102.296 81.9241 102.719L78.4967 103.794C76.2472 104.5 74.1595 102.258 74.8167 99.8416L75.818 96.1604C76.2119 94.7121 76.9391 93.3935 77.9325 92.3264L101.002 67.5484C102.62 65.8104 105.243 65.8104 106.861 67.5484L108.563 69.376C110.181 71.1138 110.181 73.9316 108.563 75.6695Z" fill="#B0ADE2"/>
<path d="M87.6583 81.8801L77.9325 92.3263C76.9391 93.3934 76.2119 94.7118 75.818 96.1603L74.8167 99.8415C74.1595 102.258 76.2472 104.5 78.4967 103.794L81.9241 102.719C83.2725 102.296 84.5001 101.515 85.4936 100.448L90.6444 94.9152C87.4376 91.7621 86.9662 86.2879 87.6583 81.8801Z" fill="#A09CDC"/>
<path d="M83.5436 102.001L76.4859 94.4209C76.2092 94.9727 75.9828 95.5542 75.818 96.1602L74.8167 99.8415C74.1595 102.258 76.2472 104.5 78.4967 103.794L81.9241 102.719C82.4886 102.542 83.03 102.299 83.5436 102.001Z" fill="#59636F"/>
<path d="M104.77 79.7436L108.563 75.6695C110.181 73.9315 110.181 71.1137 108.563 69.3757L106.861 67.5481C105.243 65.8101 102.62 65.8101 101.002 67.5481L97.2085 71.6222L104.77 79.7436Z" fill="#E7889D"/>
<path d="M104.782 79.7427L100.178 84.6871L92.6181 76.567L97.2216 71.6225L104.782 79.7427Z" fill="#59636F"/>
<path d="M87.5161 91.4123C87.2162 91.4123 86.9162 91.2895 86.6875 91.0436C86.2298 90.5521 86.2298 89.7551 86.6875 89.2637L90.4623 85.2092C90.92 84.7177 91.662 84.7177 92.1195 85.2092C92.5772 85.7008 92.5772 86.4978 92.1195 86.9893L88.3447 91.0438C88.1159 91.2895 87.8161 91.4123 87.5161 91.4123Z" fill="#F6EE86"/>
<path d="M49.6588 84.1567C46.7616 84.1567 44.4045 81.6251 44.4045 78.5133C44.4045 75.4015 46.7616 72.8699 49.6588 72.8699C52.556 72.8699 54.913 75.4015 54.913 78.5133C54.913 81.6251 52.5558 84.1567 49.6588 84.1567ZM49.6588 75.3872C48.0539 75.3872 46.7483 76.7896 46.7483 78.5133C46.7483 80.237 48.0539 81.6394 49.6588 81.6394C51.2636 81.6394 52.5692 80.237 52.5692 78.5133C52.5692 76.7896 51.2635 75.3872 49.6588 75.3872Z" fill="#59636F"/>
<path d="M82.2144 79.772H62.5994C61.9522 79.772 61.4275 79.2084 61.4275 78.5133C61.4275 77.8182 61.9522 77.2546 62.5994 77.2546H82.2145C82.8617 77.2546 83.3864 77.8182 83.3864 78.5133C83.3864 79.2084 82.8616 79.772 82.2144 79.772Z" fill="#59636F"/>
<path d="M49.6588 67.7673C46.7616 67.7673 44.4045 65.2357 44.4045 62.1239C44.4045 59.0121 46.7616 56.4805 49.6588 56.4805C52.556 56.4805 54.913 59.0121 54.913 62.1239C54.9128 65.2357 52.5558 67.7673 49.6588 67.7673ZM49.6588 58.9978C48.0539 58.9978 46.7483 60.4002 46.7483 62.1239C46.7483 63.8476 48.0539 65.2499 49.6588 65.2499C51.2636 65.2499 52.5692 63.8476 52.5692 62.1239C52.5692 60.4002 51.2635 58.9978 49.6588 58.9978Z" fill="#59636F"/>
<path d="M82.2144 63.3826H62.5994C61.9522 63.3826 61.4275 62.819 61.4275 62.1239C61.4275 61.4288 61.9522 60.8652 62.5994 60.8652H82.2145C82.8617 60.8652 83.3864 61.4288 83.3864 62.1239C83.3863 62.819 82.8616 63.3826 82.2144 63.3826Z" fill="#59636F"/>
<path d="M82.2144 46.9929H62.5994C61.9522 46.9929 61.4275 46.4294 61.4275 45.7343C61.4275 45.0391 61.9522 44.4756 62.5994 44.4756H82.2145C82.8617 44.4756 83.3864 45.0391 83.3864 45.7343C83.3863 46.4294 82.8616 46.9929 82.2144 46.9929Z" fill="#59636F"/>
<path d="M47.5242 49.6879C47.2244 49.6879 46.9244 49.5651 46.6956 49.3192L43.8594 46.2729C43.4017 45.7813 43.4017 44.9843 43.8594 44.4928C44.317 44.0012 45.059 44.0012 45.5165 44.4928L47.5242 46.6491L53.8009 39.9075C54.2586 39.4159 55.0006 39.4159 55.4581 39.9075C55.9158 40.399 55.9158 41.196 55.4581 41.6874L48.3528 49.3192C48.124 49.5651 47.8242 49.6879 47.5242 49.6879Z" fill="#E7889D"/>
<path d="M76.7194 33.8975H52.1982C50.4283 33.8975 48.9937 32.3565 48.9937 30.4556V27.4597C48.9937 25.5588 50.4283 24.0178 52.1982 24.0178H76.7194C78.4893 24.0178 79.924 25.5588 79.924 27.4597V30.4556C79.924 32.3563 78.4893 33.8975 76.7194 33.8975Z" fill="#A2DDFD"/>
</g>
<defs>
<clipPath id="clip0">
<rect width="80" height="85.9259" fill="white" transform="translate(33 18)"/>
</clipPath>
</defs>
</svg>
