<svg width="100" height="100" viewBox="0 0 100 100" fill="none" xmlns="http://www.w3.org/2000/svg">
<g clip-path="url(#clip0)">
<path d="M93.872 49.9771C93.872 73.3856 74.8954 92.3622 51.4869 92.3622C28.0784 92.3622 9.10181 73.3856 9.10181 49.9771C9.10181 26.5686 28.0784 7.59204 51.4869 7.59204C74.8954 7.59204 93.872 26.5686 93.872 49.9771Z" fill="#42C3E2"/>
<path d="M93.843 51.4862C93.8598 50.985 93.872 50.483 93.872 49.9771C93.872 49.4721 93.8598 48.9693 93.843 48.468H74.6345C74.4399 41.0614 72.8156 33.812 69.8882 27.2507C74.2408 25.7431 78.3607 23.6878 82.1563 21.1098C82.2303 21.0587 82.2982 21.0015 82.3608 20.9404C81.6627 20.1989 80.9387 19.4832 80.1902 18.7928C76.5945 21.2006 72.6928 23.1163 68.5691 24.5133C68.547 24.4698 68.5249 24.4255 68.502 24.382C64.9749 17.6216 60.086 11.8965 54.2831 7.68588C53.3584 7.62637 52.4268 7.59204 51.4869 7.59204C50.5477 7.59204 49.6162 7.62561 48.6923 7.68588C42.8893 11.8965 38.0004 17.6216 34.4734 24.382C34.4505 24.4255 34.4283 24.4698 34.4055 24.5133C30.2818 23.1171 26.3793 21.2014 22.7836 18.7928C22.0352 19.4832 21.3111 20.1996 20.613 20.9404C20.6756 21.0015 20.7427 21.0587 20.8175 21.109C24.6124 23.6878 28.733 25.7431 33.0871 27.2515C30.1589 33.812 28.5346 41.0614 28.3401 48.468H9.13156C9.11401 48.9693 9.10181 49.4721 9.10181 49.9771C9.10181 50.483 9.11401 50.985 9.13156 51.4862H28.3401C28.5346 58.8928 30.1597 66.1423 33.0871 72.7028C28.733 74.2111 24.6124 76.2665 20.8175 78.8452C20.7427 78.8956 20.6756 78.9528 20.613 79.0138C21.3111 79.7554 22.0352 80.4718 22.7836 81.1615C26.3793 78.7537 30.2818 76.8372 34.4055 75.441C34.4283 75.4845 34.4505 75.5287 34.4734 75.573C38.0004 82.3334 42.8901 88.0577 48.693 92.2684C49.6169 92.3287 50.5477 92.3622 51.4869 92.3622C52.4261 92.3622 53.3576 92.3287 54.2823 92.2684C60.0852 88.0577 64.9742 82.3334 68.502 75.573C68.5249 75.5287 68.5462 75.4845 68.5691 75.441C72.6928 76.8379 76.5945 78.7537 80.1902 81.1615C80.9387 80.4718 81.6627 79.7554 82.3608 79.0138C82.2982 78.9528 82.2303 78.8956 82.1555 78.8445C78.3607 76.2665 74.2408 74.2111 69.8875 72.7036C72.8156 66.1423 74.4399 58.8928 74.6345 51.4862H93.843ZM49.9778 89.476C44.7898 85.5957 40.5052 80.4642 37.3573 74.5415C41.4047 73.439 45.6367 72.818 49.9778 72.7013V89.476ZM49.9778 69.6823C45.1637 69.8052 40.4739 70.5147 36 71.7858C33.1855 65.5945 31.5597 58.6716 31.359 51.4862H49.9778V69.6823ZM49.9778 48.468H31.359C31.5597 41.2827 33.1855 34.3605 36 28.1685C40.4739 29.4396 45.1637 30.1499 49.9778 30.2727V48.468ZM49.9778 27.2538C45.6367 27.1363 41.4047 26.516 37.3573 25.4128C40.5052 19.4908 44.7898 14.3593 49.9778 10.479V27.2538ZM52.996 10.4782C58.184 14.3586 62.4694 19.4901 65.6173 25.4128C61.5699 26.516 57.3379 27.1363 52.996 27.2538V10.4782ZM52.996 89.4768V72.7013C57.3379 72.818 61.5699 73.439 65.6173 74.5423C62.4694 80.465 58.1848 85.5957 52.996 89.4768ZM66.9746 71.7865C62.5007 70.5155 57.8102 69.8052 52.996 69.6823V51.4862H71.6155C71.4156 58.6716 69.7891 65.5945 66.9746 71.7865ZM52.996 48.468V30.2727C57.8102 30.1491 62.5007 29.4396 66.9746 28.1685C69.7891 34.3598 71.4156 41.2827 71.6155 48.468H52.996Z" fill="#EFEDEE"/>
<path d="M96.7148 15.9958L85.1791 9.68784L71.6308 7.59204L59.3094 19.2116L57.6973 24.3996C57.6973 36.258 67.1234 45.8702 78.7521 45.8702C90.3785 45.8702 99.8047 36.258 99.8047 24.3996L96.7148 15.9958Z" fill="#FBC4AC"/>
<path d="M99.8047 24.3996C92.8222 7.20215 78.7521 17.6254 78.7521 17.6254C78.7521 17.6254 64.6812 7.20215 57.6973 24.3996C57.6973 12.5412 67.1234 2.92969 78.7521 2.92969C90.3785 2.92969 99.8047 12.5412 99.8047 24.3996Z" fill="#3A484A"/>
<path d="M78.8627 45.8687C78.9977 45.8679 79.132 45.8664 79.2671 45.8633C79.4174 45.8595 79.5677 45.8534 79.7172 45.8465C79.734 45.8458 79.7508 45.845 79.7676 45.8442C80.1017 45.8282 80.4344 45.8038 80.764 45.7718C70.0797 44.7387 61.7217 35.5659 61.7217 24.3995C61.7217 21.6606 62.226 19.0414 63.1431 16.6328C61.1343 18.1457 59.2422 20.5963 57.698 24.3995C57.698 29.5875 59.5024 34.346 62.5053 38.0569C63.0416 38.7199 63.6161 39.3493 64.2257 39.9414C68.0038 43.6149 73.1193 45.8694 78.7521 45.8694C78.7887 45.8702 78.8253 45.8687 78.8627 45.8687Z" fill="#E3B098"/>
<path d="M63.1431 16.6328C65.9637 9.22318 72.7012 3.80707 80.764 3.02811H80.7632C80.4344 2.99606 80.104 2.97165 79.7714 2.95563C79.7355 2.95334 79.7004 2.95258 79.6646 2.95105C79.5334 2.94571 79.4021 2.93961 79.2701 2.93655C79.0985 2.93198 78.9253 2.92969 78.7521 2.92969C70.7573 2.92969 63.8038 7.47299 60.2386 14.1655C59.9952 14.6217 59.7679 15.0879 59.5573 15.564C58.3625 18.2587 57.6973 21.2502 57.6973 24.4003C59.2422 20.5963 61.1335 18.1458 63.1431 16.6328Z" fill="#323E40"/>
<path d="M89.9739 29.1114C89.1408 29.1114 88.4648 28.4355 88.4648 27.6024V25.4203C88.4648 24.5865 89.1408 23.9113 89.9739 23.9113C90.8071 23.9113 91.483 24.5865 91.483 25.4203V27.6024C91.483 28.4355 90.8071 29.1114 89.9739 29.1114Z" fill="#3A484A"/>
<path d="M67.5284 29.1114C66.6953 29.1114 66.0193 28.4355 66.0193 27.6024V25.4203C66.0193 24.5865 66.6953 23.9113 67.5284 23.9113C68.3615 23.9113 69.0375 24.5865 69.0375 25.4203V27.6024C69.0375 28.4355 68.3615 29.1114 67.5284 29.1114Z" fill="#3A484A"/>
<path d="M78.7512 32.1952C77.5336 32.1952 76.3876 31.684 75.6079 30.7914C75.0586 30.1635 75.1227 29.2106 75.7506 28.662C76.3777 28.1135 77.3314 28.1775 77.8799 28.8047C78.0867 29.042 78.4041 29.177 78.7512 29.177C79.0976 29.177 79.4157 29.042 79.6217 28.8054C80.1703 28.1775 81.124 28.1135 81.7511 28.662C82.379 29.2106 82.4431 30.1642 81.8945 30.7914C81.1148 31.684 79.9689 32.1952 78.7512 32.1952Z" fill="#3A484A"/>
<path d="M-0.179932 74.858V88.6985C-0.179932 92.147 2.41254 95.0439 5.83966 95.4254L15.7884 96.5316L-0.179932 74.858Z" fill="#C86D5C"/>
<path d="M41.8961 74.858V88.6985C41.8961 92.147 39.3036 95.0439 35.8765 95.4254L25.9277 96.5316L41.8961 74.858Z" fill="#C86D5C"/>
<path d="M41.8961 74.8581C41.8945 74.8604 41.8945 74.8604 41.8945 74.8604L41.8961 74.8581L38.0966 68.8935L29.3121 60.5828H17.3416L3.62244 70.4522L-0.180054 74.8581C-0.189972 75.1351 -0.195312 75.4113 -0.195312 75.689C-0.195312 87.5473 9.23004 97.1604 20.858 97.1604C32.4867 97.1604 41.9121 87.5473 41.9121 75.689C41.9121 75.4113 41.9067 75.1351 41.8961 74.8581ZM-0.180054 74.8581C-0.180054 74.8581 -0.177002 74.8597 -0.176239 74.8597C-0.177002 74.8597 -0.177765 74.8597 -0.178528 74.8604L-0.180054 74.8581Z" fill="#FBC4AC"/>
<path d="M3.8353 74.0189C2.52991 74.4156 1.1879 74.7094 -0.178528 74.8604L-0.180054 74.8582C-0.189972 75.1351 -0.195312 75.4113 -0.195312 75.689C-0.195312 87.5474 9.23004 97.1604 20.858 97.1604C21.5553 97.1604 22.245 97.1245 22.9248 97.0574C12.3878 95.9618 4.10156 86.1138 3.8353 74.0189Z" fill="#E3B098"/>
<path d="M9.63531 80.4009C8.80219 80.4009 8.12622 79.7249 8.12622 78.8918V76.7098C8.12622 75.8759 8.80219 75.2007 9.63531 75.2007C10.4692 75.2007 11.1444 75.8759 11.1444 76.7098V78.8918C11.1444 79.7249 10.4692 80.4009 9.63531 80.4009Z" fill="#3A484A"/>
<path d="M32.0816 80.4009C31.2477 80.4009 30.5725 79.7249 30.5725 78.8918V76.7098C30.5725 75.8759 31.2477 75.2007 32.0816 75.2007C32.9147 75.2007 33.5907 75.8759 33.5907 76.7098V78.8918C33.5907 79.7249 32.9147 80.4009 32.0816 80.4009Z" fill="#3A484A"/>
<path d="M20.858 83.4847C19.6403 83.4847 18.4944 82.9735 17.7147 82.0809C17.1661 81.4537 17.2302 80.5 17.8581 79.9515C18.4852 79.4029 19.4389 79.467 19.9875 80.0949C20.1935 80.3314 20.5116 80.4672 20.858 80.4672C21.2051 80.4672 21.5225 80.3314 21.7293 80.0949C22.2778 79.467 23.2315 79.4037 23.8586 79.9515C24.4865 80.5 24.5506 81.4537 24.0013 82.0809C23.2216 82.9735 22.0764 83.4847 20.858 83.4847Z" fill="#3A484A"/>
<path d="M-0.179932 74.8582L-0.178406 74.8604C11.1207 73.61 20.8581 62.6961 20.8581 62.6961C20.8581 62.6961 30.5955 73.61 41.8947 74.8604C41.8947 74.8604 41.8947 74.8604 41.8962 74.8582C41.4682 63.3851 32.2137 54.2191 20.8581 54.2191C9.50253 54.2191 0.248077 63.3851 -0.179932 74.8582Z" fill="#C86D5C"/>
<path d="M22.8708 54.3168C22.2078 54.2534 21.5371 54.2191 20.8581 54.2191C9.50253 54.2191 0.248077 63.3851 -0.179932 74.8582L-0.178406 74.8604C1.20786 74.7071 2.57047 74.4073 3.89417 74.0006C4.68686 63.6109 12.7298 55.2979 22.8708 54.3168Z" fill="#AD4F3D"/>
</g>
<defs>
<clipPath id="clip0">
<rect width="100" height="100" fill="white"/>
</clipPath>
</defs>
</svg>
