<svg width="116" height="136" viewBox="0 0 116 136" fill="none" xmlns="http://www.w3.org/2000/svg">
<path d="M112.942 18.8013C119.742 32.2013 112.142 53.4013 109.642 72.2013C107.142 90.9013 109.742 107.201 102.942 116.401C96.1421 125.701 79.8421 128.001 60.2421 131.401C40.5421 134.901 17.4421 139.501 7.34206 130.201C-2.75794 120.901 0.142057 97.8013 1.24206 75.7013C2.24206 53.7013 1.34206 32.6013 11.4421 19.2013C21.5421 5.90133 42.6421 0.201338 63.7421 0.00133765C84.9421 -0.0986623 106.142 5.40133 112.942 18.8013Z" fill="#E1D2FA"/>
<g clip-path="url(#clip0)">
<path d="M58.0605 88.4731L40.48 92.5076L42.9916 105.238C43.4231 107.425 45.3402 109 47.5686 109H68.5525C70.7803 109 72.698 107.425 73.1289 105.238L75.6411 92.5076L58.0605 88.4731Z" fill="#FA9F6A"/>
<path d="M43.8485 77.6743C48.1185 80.5246 53.3212 80.8872 57.7493 79.1043C57.6986 74.3308 55.3695 69.6647 51.0995 66.8137C46.8301 63.9634 41.6268 63.6008 37.1987 65.3836C37.25 70.1572 39.5791 74.8239 43.8485 77.6743Z" fill="#46926F"/>
<path d="M72.2719 77.6743C68.0024 80.5246 62.7992 80.8872 58.3711 79.1043C58.4224 74.3308 60.7515 69.6647 65.0209 66.8137C69.2903 63.9634 74.4935 63.6008 78.9216 65.3836C78.8704 70.1572 76.5413 74.8239 72.2719 77.6743Z" fill="#46926F"/>
<path d="M57.7487 80.3115C57.5179 80.3115 57.2854 80.2456 57.0791 80.1083L43.4072 70.9798C42.8524 70.61 42.7029 69.8598 43.0734 69.3056C43.4432 68.7508 44.1933 68.6019 44.7475 68.9718L58.42 78.1002C58.9742 78.4701 59.1238 79.2202 58.7533 79.7744C58.5207 80.1229 58.1381 80.3115 57.7487 80.3115Z" fill="#58B78C"/>
<path d="M58.3723 80.3115C57.9823 80.3115 57.5996 80.1229 57.3671 79.7744C56.9966 79.2202 57.1461 78.4701 57.7003 78.1002L71.3728 68.9718C71.927 68.6019 72.6771 68.7508 73.047 69.3056C73.4175 69.8598 73.268 70.61 72.7132 70.9798L59.0413 80.1083C58.8356 80.2456 58.6024 80.3115 58.3723 80.3115Z" fill="#58B78C"/>
<path d="M55.582 57.1938H60.5387V88.4731H55.582V57.1938Z" fill="#58B78C"/>
<path d="M58.0606 64.5737C98.9517 43.1406 73.4298 18.6063 58.0606 33.627C42.6913 18.6063 17.1694 43.1412 58.0606 64.5737Z" fill="#FD6F71"/>
<path d="M49.9454 29.2277C36.0642 26.6404 23.9346 46.6868 58.0606 64.5737C58.8938 64.1367 59.6964 63.6985 60.4752 63.2596C33.1742 47.8715 38.9664 31.3437 49.9454 29.2277Z" fill="#E34B4C"/>
<path d="M48.0183 49.3673C47.3518 49.3673 46.811 48.8271 46.811 48.16V46.343C46.811 45.6759 47.3518 45.1357 48.0183 45.1357C48.6848 45.1357 49.2256 45.6759 49.2256 46.343V48.16C49.2256 48.8271 48.6848 49.3673 48.0183 49.3673Z" fill="#3A484A"/>
<path d="M68.1021 49.3673C67.4355 49.3673 66.8948 48.8271 66.8948 48.16V46.343C66.8948 45.6759 67.4355 45.1357 68.1021 45.1357C68.7692 45.1357 69.3093 45.6759 69.3093 46.343V48.16C69.3093 48.8271 68.7692 49.3673 68.1021 49.3673Z" fill="#3A484A"/>
<path d="M58.0603 50.3374C56.7456 50.3374 55.5109 49.7869 54.6729 48.828C54.234 48.3257 54.2853 47.5634 54.787 47.1245C55.2893 46.6857 56.0517 46.737 56.4905 47.2387C56.8707 47.6739 57.4426 47.9229 58.0603 47.9229C58.6774 47.9229 59.2499 47.6739 59.6295 47.2387C60.0684 46.737 60.8307 46.6857 61.333 47.1245C61.8353 47.5634 61.886 48.3257 61.4472 48.828C60.6091 49.7869 59.3744 50.3374 58.0603 50.3374Z" fill="#3A484A"/>
<path d="M40.48 92.5076L41.4327 97.3367H74.6884L75.6411 92.5076L58.0605 88.4731L40.48 92.5076Z" fill="#E0824A"/>
<path d="M75.641 84.542H40.4799C39.3043 84.542 38.3516 85.4948 38.3516 86.6703V90.3788C38.3516 91.5543 39.3043 92.5071 40.4799 92.5071H75.641C76.8159 92.5071 77.7693 91.5543 77.7693 90.3788V86.6703C77.7693 85.4948 76.8159 84.542 75.641 84.542Z" fill="#FA9F6A"/>
</g>
<defs>
<clipPath id="clip0">
<rect width="80" height="80" fill="white" transform="translate(18 29)"/>
</clipPath>
</defs>
</svg>
