<svg width="100" height="100" viewBox="0 0 100 100" fill="none" xmlns="http://www.w3.org/2000/svg">
<g clip-path="url(#clip0)">
<path d="M38.446 73.6312H61.1633V94.065H38.446V73.6312Z" fill="#B8B8B8"/>
<path d="M66.1356 89.6827H33.4741C31.0541 89.6827 29.0918 91.645 29.0918 94.0651C29.0918 96.4859 31.0541 98.4474 33.4741 98.4474H66.1356C68.5556 98.4474 70.5179 96.4859 70.5179 94.0651C70.5179 91.645 68.5556 89.6827 66.1356 89.6827Z" fill="#D2D2D2"/>
<path d="M92.9642 1.75781H6.6452C2.86713 1.75781 -0.195312 4.82025 -0.195312 8.59833V72.6456C-0.195312 76.4237 2.86713 79.4861 6.6452 79.4861H92.9642C96.7423 79.4861 99.8047 76.4237 99.8047 72.6456V8.59833C99.8047 4.82025 96.7423 1.75781 92.9642 1.75781Z" fill="#D2D2D2"/>
<path d="M9.82666 11.7798H89.7827V66.1385H9.82666V11.7798Z" fill="#EFEDEE"/>
<path d="M51.2894 6.76874C51.2894 7.5889 50.6249 8.25342 49.8048 8.25342C48.9846 8.25342 48.3201 7.5889 48.3201 6.76874C48.3201 5.94858 48.9846 5.28406 49.8048 5.28406C50.6249 5.28406 51.2894 5.94858 51.2894 6.76874Z" fill="#3A484A"/>
<path d="M52.7808 72.8119C52.7808 74.456 51.4487 75.7889 49.8046 75.7889C48.1605 75.7889 46.8284 74.456 46.8284 72.8119C46.8284 71.1685 48.1605 69.8357 49.8046 69.8357C51.4487 69.8357 52.7808 71.1685 52.7808 72.8119Z" fill="#3A484A"/>
<path d="M35.5592 22.6746C45.7589 22.6746 54.0269 29.0939 54.0269 39.4951C54.0269 49.8962 45.7589 58.3267 35.5592 58.3267C25.361 58.3267 17.093 49.8962 17.093 39.4951C17.093 29.0939 25.361 22.6746 35.5592 22.6746Z" fill="#FBC4AC"/>
<path d="M21.721 39.4951C21.721 29.8928 28.7668 21.9704 37.8732 20.81C37.1148 20.7131 36.3428 20.6627 35.5592 20.6627C25.361 20.6627 17.093 29.094 17.093 39.4951C17.093 49.8963 25.361 58.3267 35.5592 58.3267C36.3428 58.3267 37.1148 58.2764 37.8732 58.1803C28.7668 57.0191 21.721 49.0967 21.721 39.4951Z" fill="#E3B098"/>
<path d="M25.7156 43.8126C24.8825 43.8126 24.2065 43.1374 24.2065 42.3043V40.3901C24.2065 39.5562 24.8825 38.881 25.7156 38.881C26.5495 38.881 27.2247 39.5562 27.2247 40.3901V42.3043C27.2247 43.1374 26.5495 43.8126 25.7156 43.8126Z" fill="#3A484A"/>
<path d="M45.4041 43.8126C44.5702 43.8126 43.895 43.1374 43.895 42.3043V40.3901C43.895 39.5562 44.5702 38.881 45.4041 38.881C46.2372 38.881 46.9124 39.5562 46.9124 40.3901V42.3043C46.9124 43.1374 46.2372 43.8126 45.4041 43.8126Z" fill="#3A484A"/>
<path d="M35.5598 46.518C34.4383 46.518 33.3824 46.0465 32.6629 45.2233C32.1144 44.5954 32.1785 43.6425 32.8064 43.0939C33.4335 42.5453 34.3864 42.6094 34.935 43.2366C35.0814 43.4044 35.3088 43.4998 35.5598 43.4998C35.8108 43.4998 36.0382 43.4037 36.1846 43.2366C36.7324 42.6094 37.6861 42.5453 38.3132 43.0939C38.9411 43.6425 39.0052 44.5954 38.4567 45.2233C37.7372 46.0465 36.6813 46.518 35.5598 46.518Z" fill="#3A484A"/>
<path d="M17.9771 33.7242C19.2451 18.2854 25.4706 20.6627 35.559 20.6627C43.1861 20.6627 46.849 19.899 48.4092 19.4122C49.0333 19.2177 49.7047 19.4985 50.0014 20.0813C51.2473 22.525 54.0267 29.139 54.0267 39.4951C54.0267 39.4951 49.6093 31.5415 35.559 31.5415C29.0229 31.5415 29.5699 33.7242 17.9771 33.7242Z" fill="#E0824A"/>
<path d="M31.8336 20.5872C23.9402 20.3461 19.0803 20.2866 17.9771 33.7243C19.799 33.7243 21.3203 33.6701 22.6173 33.5793C23.503 23.1331 26.6906 20.9328 31.8336 20.5872Z" fill="#CC7643"/>
<path d="M82.5166 29.2778H61.8829C61.049 29.2778 60.3738 28.6019 60.3738 27.7687C60.3738 26.9356 61.049 26.2596 61.8829 26.2596H82.5166C83.3497 26.2596 84.0257 26.9356 84.0257 27.7687C84.0257 28.6019 83.3497 29.2778 82.5166 29.2778Z" fill="#3A484A"/>
<path d="M82.5166 36.9239H61.8829C61.049 36.9239 60.3738 36.248 60.3738 35.4149C60.3738 34.581 61.049 33.9058 61.8829 33.9058H82.5166C83.3497 33.9058 84.0257 34.581 84.0257 35.4149C84.0257 36.248 83.3497 36.9239 82.5166 36.9239Z" fill="#3A484A"/>
<path d="M72.4557 44.5693H61.8829C61.049 44.5693 60.3738 43.8941 60.3738 43.0602C60.3738 42.2271 61.049 41.5511 61.8829 41.5511H72.4557C73.2896 41.5511 73.9648 42.2271 73.9648 43.0602C73.9648 43.8941 73.2896 44.5693 72.4557 44.5693Z" fill="#3A484A"/>
</g>
<defs>
<clipPath id="clip0">
<rect width="100" height="100" fill="white"/>
</clipPath>
</defs>
</svg>
