<svg width="150" height="132" viewBox="0 0 150 132" fill="none" xmlns="http://www.w3.org/2000/svg">
<path d="M119.643 20.6656C138.339 34.5666 154.035 56.4608 149.073 73.2579C143.995 90.1708 118.258 101.871 99.5609 112.297C80.7487 122.722 69.0921 131.758 57.0892 131.99C45.0864 132.337 32.7373 123.765 24.8893 113.455C17.0413 103.029 13.6943 90.6342 8.26996 73.0262C2.96101 55.3023 -4.42536 32.1339 3.42265 18.2329C11.2707 4.33184 34.3531 -0.533523 56.743 0.0456869C79.1329 0.740739 100.946 6.76452 119.643 20.6656Z" fill="#FDEEE1"/>
<g clip-path="url(#clip0)">
<path d="M64.521 92.197L74.9049 90.1572L85.2888 92.197V97.2391L74.9049 100.541L64.521 97.2391V92.197Z" fill="#EFEDEE"/>
<path d="M80.4596 97.2391V92.197L72.4902 90.6315L74.9048 90.1572L85.2887 92.197V97.2391L74.9048 100.541L72.4902 99.7733L80.4596 97.2391Z" fill="#D4D2D3"/>
<path d="M64.521 97.2393H84.5356V103.844H64.521V97.2393Z" fill="#58B78C"/>
<path d="M80.4597 97.2393H85.2888V103.844H80.4597V97.2393Z" fill="#46926F"/>
<path d="M64.5208 92.197V89.4285L59.926 87.9935C58.5576 87.5657 57.7947 86.11 58.2219 84.7416C58.6492 83.3732 60.1049 82.6102 61.4739 83.0375L64.5208 83.989V77.7708C64.5208 76.337 65.6835 75.1743 67.1166 75.1743C68.5503 75.1743 69.713 76.337 69.713 77.7708C69.713 76.337 70.8751 75.1743 72.3088 75.1743C73.7426 75.1743 74.9047 76.337 74.9047 77.7708C74.9047 76.337 76.0674 75.1743 77.5011 75.1743C78.9348 75.1743 80.0969 76.337 80.0969 77.7708C80.0969 76.337 81.259 75.1743 82.6927 75.1743C84.1265 75.1743 85.2886 76.337 85.2886 77.7708V92.197H64.5208Z" fill="#FBC4AC"/>
<path d="M80.2783 76.8215C80.658 75.8578 81.5942 75.1748 82.6929 75.1748C84.1266 75.1748 85.2887 76.3369 85.2887 77.7706V92.1969H80.4602V77.7706C80.4596 77.4355 80.3943 77.1157 80.2783 76.8215Z" fill="#E6B09C"/>
<path d="M46.4906 53.46L48.5304 63.8439L46.4906 74.2278H41.4485L38.1465 63.8439L41.4485 53.46H46.4906Z" fill="#EFEDEE"/>
<path d="M41.4485 69.3986H46.4906L48.0562 61.4292L48.5304 63.8438L46.4906 74.2277H41.4485L38.1465 63.8438L38.9143 61.4292L41.4485 69.3986Z" fill="#D4D2D3"/>
<path d="M34.8438 53.46H41.4484V74.2278H34.8438V53.46Z" fill="#FD6F71"/>
<path d="M34.8438 69.3984H41.4484V74.2275H34.8438V69.3984Z" fill="#E34B4C"/>
<path d="M46.4905 53.4598H49.259L50.694 48.865C51.1218 47.496 52.5775 46.7331 53.9459 47.1609C55.3143 47.5882 56.0773 49.0439 55.65 50.4123L54.6985 53.4598H60.9167C62.3505 53.4598 63.5132 54.6219 63.5132 56.0556C63.5132 57.4893 62.3505 58.652 60.9167 58.652C62.3505 58.652 63.5132 59.8141 63.5132 61.2478C63.5132 62.6816 62.3505 63.8437 60.9167 63.8437C62.3505 63.8437 63.5132 65.0058 63.5132 66.4395C63.5132 67.8732 62.3505 69.0359 60.9167 69.0359C62.3505 69.0359 63.5132 70.198 63.5132 71.6318C63.5132 73.0655 62.3505 74.2276 60.9167 74.2276H46.4905V53.4598Z" fill="#FBC4AC"/>
<path d="M61.8658 69.2173C62.8296 69.5963 63.5126 70.5332 63.5126 71.6318C63.5126 73.0656 62.3505 74.2277 60.9167 74.2277H46.4905V69.3986H60.9167C61.2518 69.3986 61.5717 69.3333 61.8658 69.2173Z" fill="#E6B09C"/>
<path d="M85.1489 35.4906H85.1483L74.765 37.5304L64.3811 35.4906V30.4485L74.765 27.1465L85.1489 30.4485V35.4906Z" fill="#EFEDEE"/>
<path d="M69.2102 30.4485V35.4906L77.1796 37.0562L74.765 37.5304L64.3811 35.4906V30.4485L74.765 27.1465L77.1796 27.9143L69.2102 30.4485Z" fill="#D4D2D3"/>
<path d="M64.3811 23.8438H85.1489V30.4484H64.3811V23.8438Z" fill="#FADC60"/>
<path d="M64.3811 23.8438H69.2102V30.4484H64.3811V23.8438Z" fill="#F2C42C"/>
<path d="M85.1489 35.4902V38.2588L89.7436 39.6937C91.1121 40.1216 91.875 41.5773 91.4477 42.9457C91.0205 44.3141 89.5648 45.077 88.1958 44.6498L85.1489 43.6982V49.9165C85.1489 51.3502 83.9862 52.5129 82.5531 52.5129C81.1194 52.5129 79.9567 51.3502 79.9567 49.9165C79.9567 51.3502 78.7946 52.5129 77.3608 52.5129C75.9271 52.5129 74.765 51.3502 74.765 49.9165C74.765 51.3502 73.6023 52.5129 72.1686 52.5129C70.7349 52.5129 69.5728 51.3502 69.5728 49.9165C69.5728 51.3502 68.4106 52.5129 66.9769 52.5129C65.5432 52.5129 64.3811 51.3502 64.3811 49.9165V35.4902H85.1489Z" fill="#FBC4AC"/>
<path d="M69.3915 50.8656C69.0125 51.8293 68.0756 52.5123 66.9769 52.5123C65.5432 52.5123 64.3811 51.3502 64.3811 49.9165V35.4902H69.2102V49.9165C69.2102 50.2516 69.2755 50.5714 69.3915 50.8656Z" fill="#E3B098"/>
<path d="M103.197 74.2278L101.157 63.8439L103.197 53.46H108.239L111.541 63.8439L108.239 74.2278H103.197Z" fill="#EFEDEE"/>
<path d="M108.239 58.2891H103.197L101.631 66.2584L101.157 63.8439L103.197 53.46H108.239L111.541 63.8439L110.773 66.2584L108.239 58.2891Z" fill="#D4D2D3"/>
<path d="M108.239 53.46H114.844V74.2278H108.239V53.46Z" fill="#6EE3FF"/>
<path d="M108.239 53.46H114.844V58.2891H108.239V53.46Z" fill="#42C3E2"/>
<path d="M103.197 74.2278H100.428L98.9935 78.8225C98.5657 80.1915 97.11 80.9545 95.7416 80.5266C94.3732 80.0994 93.6102 78.6437 94.0375 77.2753L94.989 74.2278H88.7708C87.337 74.2278 86.1743 73.0657 86.1743 71.632C86.1743 70.1982 87.337 69.0355 88.7708 69.0355C87.337 69.0355 86.1743 67.8734 86.1743 66.4397C86.1743 65.006 87.337 63.8439 88.7708 63.8439C87.337 63.8439 86.1743 62.6818 86.1743 61.248C86.1743 59.8143 87.337 58.6516 88.7708 58.6516C87.337 58.6516 86.1743 57.4895 86.1743 56.0558C86.1743 54.6221 87.337 53.46 88.7708 53.46H103.197V74.2278Z" fill="#FBC4AC"/>
<path d="M87.8215 58.4703C86.8578 58.0913 86.1748 57.1544 86.1748 56.0558C86.1748 54.6221 87.3369 53.46 88.7706 53.46H103.197V58.2891H88.7706C88.4355 58.2891 88.1157 58.3544 87.8215 58.4703Z" fill="#E6B09C"/>
</g>
<defs>
<clipPath id="clip0">
<rect width="80" height="80" fill="white" transform="translate(35 24)"/>
</clipPath>
</defs>
</svg>
