<svg width="580" height="502" viewBox="0 0 580 502" fill="none" xmlns="http://www.w3.org/2000/svg">
<path d="M380.227 25.7623C545.43 107.863 598.039 386.282 523.11 475.593C448.182 564.904 306.747 383.483 218.017 374.69C128.394 365.81 28.4378 347.411 8.20363 272.066C-38.8289 96.9972 215.024 -56.3388 380.227 25.7623Z" fill="#E4EBEF"/>
<path d="M524.494 475.593C449.572 564.911 308.138 383.483 219.408 374.69C176.422 370.418 131.065 363.992 93.2678 350.1C52.2359 335.057 20.1174 311.281 9.58684 272.066C-20.329 160.722 71.4895 58.1559 184.794 19.3731C249.616 -2.80629 321.486 -4.11052 381.61 25.7697C546.821 107.871 599.422 386.289 524.494 475.593Z" fill="#E4EBEF"/>
<path d="M540.827 319.216C540.827 387.84 485.266 443.47 416.729 443.47C348.192 443.47 292.631 387.84 292.631 319.216C292.631 250.593 348.192 194.962 416.729 194.962C485.266 194.962 540.827 250.593 540.827 319.216Z" fill="white"/>
<path d="M395.353 111.732C395.353 151.79 362.92 184.264 322.913 184.264C282.906 184.264 250.472 151.79 250.472 111.732C250.472 71.6744 282.906 39.2003 322.913 39.2003C362.92 39.2003 395.353 71.6744 395.353 111.732Z" fill="white"/>
<path d="M237.41 230.037C237.41 281.584 195.675 323.37 144.194 323.37C92.7116 323.37 50.9773 281.584 50.9773 230.037C50.9773 178.49 92.7116 136.703 144.194 136.703C195.675 136.703 237.41 178.49 237.41 230.037Z" fill="white"/>
<path d="M404.654 300.188C415.339 318.022 362.693 358.849 260.176 352.108C191.753 347.609 127.355 312.072 156.861 287.9C176.458 271.846 217.424 266.497 294.021 284.331C332.155 293.219 393.97 282.353 404.654 300.188Z" fill="#8ACFE1"/>
<path d="M368.043 307.918C363.052 315.553 351.431 312.285 339.4 313.01C327.362 313.736 325.284 318.454 319.89 318.454C314.497 318.454 314.914 310.468 312.419 305.742C309.923 301.023 299.129 301.375 291.658 301.375C284.186 301.375 266.338 303.565 264.259 310.101C262.196 316.644 266.338 321.363 259.7 324.265C253.063 327.181 243.513 321.363 239.356 320.638C235.214 319.912 227.728 322.455 218.185 319.912C214.775 319.011 212.375 317.069 210.706 314.966C207.677 311.186 206.989 306.833 206.989 306.833C206.989 306.833 208.248 307.954 210.026 309.471C212.565 311.662 216.166 314.717 218.603 316.644C222.759 319.912 233.553 314.827 238.529 315.919C243.52 317.003 246.828 318.821 252.236 311.911C257.629 305.016 249.323 299.198 245.584 294.113C196.612 259.595 205.328 219.633 211.131 202.201C216.949 184.755 230.545 150.024 232.792 131.252C235.17 111.337 223.176 95.0264 223.176 95.0264C223.176 95.0264 232.726 99.0198 245.584 117.191C236.356 95.2902 229.228 81.0242 220.681 73.9608C236.034 81.9474 256.202 114.48 261.588 125.017C262.064 119.045 260 107.922 257.315 97.7741C255.258 90 252.836 82.8047 250.904 78.9433C262.188 88.7544 268.423 114.018 268.423 114.018L272.565 96.8509C272.565 96.8509 276.971 120.225 278.215 125.317C280.71 109.695 279.627 88.4906 269.25 61.9662C277.132 75.7706 283.688 82.5849 289.499 114.912C291.16 104.735 295.397 101.57 295.397 101.57C295.397 101.57 294.724 119.235 297.212 129.772C300.534 119.235 304.94 108.464 304.94 108.464C304.94 108.464 309.499 109.93 309.082 119.367C313.641 99.7451 323.615 87.7652 332.748 84.4973C321.12 96.4845 316.963 116.634 319.766 134.234C323.03 154.743 346.484 181.495 352.66 215.288C356.458 228.249 355.39 241.218 351.043 255.58C350.648 256.913 350.209 258.239 349.762 259.595C344.362 275.59 328.592 288.669 322.781 294.113C319.459 304.291 322.364 309.01 327.757 309.735C333.158 310.46 334.812 306.833 341.874 306.833C348.928 306.833 356.4 307.192 356.4 307.192C356.4 307.192 359.722 306.833 364.698 301.748C369.675 296.656 368.021 288.303 368.021 288.303C368.021 288.303 373.019 300.297 368.043 307.918Z" fill="#FCEA0D"/>
<path d="M206.93 216.636C206.93 216.636 192.053 236.983 187.333 236.983C182.613 236.983 170.641 221.721 167.377 220.636C164.113 219.544 150.326 214.093 147.779 213.009C145.233 211.924 154.314 223.545 161.566 225.721C168.101 228.264 177.168 240.617 181.164 243.16C185.152 245.703 191.687 247.886 197.132 241.343C202.576 234.8 209.47 227.897 209.47 227.897L206.93 216.636Z" fill="#FCEA0D" stroke="#1D1D1B" stroke-width="2.45949" stroke-miterlimit="10" stroke-linecap="round" stroke-linejoin="round"/>
<path d="M340 179.15C340 179.15 345.079 186.418 350.89 183.876C356.7 181.333 359.598 155.175 362.137 147.907C364.677 140.638 371.212 136.278 376.649 130.834C382.093 125.383 391.526 117.389 393.341 111.945C391.892 118.847 389.353 128.658 381.369 132.292C390.077 130.842 395.522 130.109 399.51 123.573C398.061 127.207 394.79 133.384 390.802 134.476C386.814 135.568 383.542 136.293 383.542 136.293C383.542 136.293 392.251 139.561 395.515 142.836C398.778 146.104 398.054 150.464 398.054 150.464C398.054 150.464 396.605 147.921 391.885 145.379C387.165 142.836 381.362 138.11 379.547 139.927C377.732 141.744 377.007 145.012 381.362 145.379C385.716 145.745 386.806 147.562 386.806 148.647C386.806 149.738 382.818 150.464 378.822 149.372C374.834 148.28 372.287 145.012 370.838 150.464C369.389 155.915 363.579 182.432 362.13 193.335C358.142 195.152 349.067 196.244 349.067 196.244L340 179.15Z" fill="#FCEA0D" stroke="#1D1D1B" stroke-width="2.45949" stroke-miterlimit="10" stroke-linecap="round" stroke-linejoin="round"/>
<path d="M342.737 320.212C342.737 323.826 318.725 326.756 289.104 326.756C259.483 326.756 235.47 323.826 235.47 320.212C235.47 316.599 259.483 313.669 289.104 313.669C318.725 313.669 342.737 316.599 342.737 320.212Z" fill="#4CBBCC"/>
<path d="M368.057 307.918C363.103 315.553 351.563 312.285 339.627 313.01C327.677 313.735 325.613 318.454 320.256 318.454C314.907 318.454 315.317 310.468 312.843 305.741C310.37 301.023 299.649 301.374 292.236 301.374C284.823 301.374 267.106 303.565 265.042 310.101C262.993 316.644 267.106 321.363 260.513 324.265C253.919 327.181 244.442 321.363 240.322 320.638C236.21 319.912 228.782 322.455 219.305 319.912C215.924 319.011 213.539 317.069 211.877 314.966C211.665 313.171 215.844 316.044 219.715 316.644C223.842 319.912 234.556 314.827 239.495 315.919C244.45 317.003 247.735 318.821 253.099 311.911C258.449 305.016 250.209 299.198 246.499 294.113C197.885 259.595 206.535 219.632 212.302 202.201C218.076 184.755 231.577 150.024 233.802 131.252C236.158 111.337 224.252 95.0263 224.252 95.0263C224.252 95.0263 233.729 99.0197 246.499 117.191C237.337 95.2901 230.267 81.0241 221.779 73.9607C237.022 81.9473 257.037 114.48 262.386 125.017C262.854 119.045 260.805 107.922 258.142 97.774C264.186 108.347 269.111 125.412 265.547 129.772C264.179 131.442 241.925 87.8823 238.237 90.9304C252.88 120.261 254.863 127.955 253.678 128.981C251.402 130.937 241.405 108.369 229.133 100.441C244.172 121.448 233.722 148.383 233.092 149.387C216.985 192.998 214.966 217.793 222.803 245.497C228.636 266.138 246.718 280.111 271.885 284.339C288.387 285.921 360.352 276.015 351.446 210.62C359.364 228.059 350.37 258.239 349.924 259.595C344.559 275.59 328.906 288.669 323.14 294.113C319.839 304.291 322.73 309.009 328.079 309.735C333.443 310.46 335.163 307.925 342.093 306.833C349.089 305.734 356.51 306.701 356.51 307.192C356.51 307.192 359.81 306.833 364.75 301.748C369.689 296.656 368.05 288.303 368.05 288.303C368.05 288.303 372.997 300.297 368.057 307.918Z" fill="#D7B40A"/>
<path d="M304.376 177.889L296.034 196.054C296.034 196.054 261.566 198.962 240.878 217.852C239.064 218.218 236.89 218.577 236.89 218.577L249.953 225.12C249.953 225.12 256.488 236.749 260.11 246.919C263.74 257.089 273.897 258.906 280.066 255.638C286.235 252.37 298.207 248.011 298.207 239.291C298.207 230.572 298.573 196.053 304.376 177.889Z" fill="#951914" stroke="#1D1D1B" stroke-width="2.25485" stroke-miterlimit="10" stroke-linecap="round" stroke-linejoin="round"/>
<path d="M297.812 241.731C294.841 247.871 280.366 257.184 271.687 256.994C262.532 256.789 257.893 242.94 258.822 241.936C265.364 234.836 280.344 224.622 298.515 223.721C298.515 223.721 298.405 230.638 297.812 241.731Z" fill="#CE2C2B" stroke="#1D1D1B" stroke-width="2.25485" stroke-miterlimit="10" stroke-linecap="round" stroke-linejoin="round"/>
<path d="M302.722 174.988L308.167 180.432" stroke="#1D1D1B" stroke-width="2.25485" stroke-miterlimit="10" stroke-linecap="round" stroke-linejoin="round"/>
<path d="M237.249 214.225L236.524 223.303" stroke="#1D1D1B" stroke-width="2.25485" stroke-miterlimit="10" stroke-linecap="round" stroke-linejoin="round"/>
<path d="M254.073 209.037C254.073 209.037 259.978 220.533 255.258 222.71C250.538 224.893 247.867 212.964 247.867 212.964L254.073 209.037Z" fill="white" stroke="#1D1D1B" stroke-width="2.25485" stroke-miterlimit="10" stroke-linecap="round" stroke-linejoin="round"/>
<path d="M269.901 201.739C269.901 201.739 268.811 214.093 276.07 214.093C283.33 214.093 281.874 198.831 281.874 198.831L269.901 201.739Z" fill="white" stroke="#1D1D1B" stroke-width="2.25485" stroke-miterlimit="10" stroke-linecap="round" stroke-linejoin="round"/>
<path d="M294.153 196.786C294.153 196.786 297.059 209.499 291.614 212.049C286.169 214.591 284.72 198.244 284.72 198.244L294.153 196.786Z" fill="white" stroke="#1D1D1B" stroke-width="2.25485" stroke-miterlimit="10" stroke-linecap="round" stroke-linejoin="round"/>
<path d="M281.581 241.929L288.314 225.685" stroke="#1D1D1B" stroke-width="2.25485" stroke-miterlimit="10" stroke-linecap="round" stroke-linejoin="round"/>
<path d="M297.256 162.107C296.485 160.976 295.594 159.932 294.599 158.993C287.633 152.398 279.041 154.098 273.663 160.883C272.492 162.349 271.643 164.012 271.094 165.785C267.567 159.718 260.117 154.509 253.787 155.366C244.713 156.59 238.456 166.598 239.81 177.721C239.89 178.373 239.985 179.011 240.117 179.634C242.159 189.752 250.143 196.794 258.698 195.636C265.752 194.684 271.087 188.434 272.492 180.476C273.253 181.568 274.109 182.608 275.104 183.554C282.064 190.141 292.067 189.987 297.453 183.209C302.049 177.406 301.793 168.643 297.256 162.107Z" fill="#D7B40A"/>
<path d="M274.965 160.341C279.298 155.322 287.655 155.461 293.641 160.649C294.504 161.396 295.273 162.217 295.939 163.081C299.883 168.159 300.315 174.819 296.612 179.106C292.272 184.117 283.915 183.978 277.936 178.798C275.997 177.105 274.541 175.105 273.612 173.002C271.694 168.591 272.031 163.719 274.965 160.341Z" fill="white"/>
<path d="M274.966 160.341C277.212 157.674 280.805 156.414 284.274 156.538C287.772 156.641 291.211 158.003 294.022 160.202C296.824 162.422 298.998 165.55 299.876 169.17C300.278 170.98 300.366 172.892 300 174.768C299.598 176.629 298.742 178.417 297.498 179.897C296.224 181.348 294.57 182.447 292.785 183.092C290.992 183.744 289.082 183.92 287.238 183.773C283.535 183.443 280.125 181.707 277.534 179.252C274.958 176.79 273.099 173.574 272.521 170.115C271.907 166.686 272.638 162.942 274.966 160.341ZM274.966 160.341C273.853 161.66 273.077 163.257 272.734 164.942C272.536 165.785 272.499 166.65 272.521 167.5C272.543 168.357 272.653 169.207 272.851 170.042C273.634 173.383 275.705 176.285 278.324 178.344C280.959 180.388 284.164 181.634 287.362 181.714C290.545 181.817 293.721 180.674 295.712 178.329C296.715 177.179 297.417 175.772 297.776 174.27C298.12 172.76 298.156 171.148 297.885 169.573C297.622 167.998 297.058 166.444 296.261 165.016C295.463 163.579 294.468 162.231 293.253 161.088C290.838 158.795 287.662 157.176 284.259 156.86C282.562 156.721 280.82 156.882 279.203 157.469C277.585 158.055 276.107 159.037 274.966 160.341Z" fill="#1D1D1B"/>
<path d="M293.121 173.845C293.121 177.815 289.907 181.033 285.942 181.033C281.977 181.033 278.763 177.815 278.763 173.845C278.763 169.875 281.977 166.657 285.942 166.657C289.907 166.657 293.121 169.875 293.121 173.845Z" fill="#39A935"/>
<path d="M291.899 173.845C291.899 175.427 291.272 176.944 290.155 178.062C289.037 179.181 287.522 179.809 285.942 179.809C284.363 179.809 282.847 179.181 281.73 178.062C280.613 176.944 279.986 175.427 279.986 173.845C279.986 172.263 280.613 170.746 281.73 169.627C282.847 168.509 284.363 167.88 285.942 167.88C287.522 167.88 289.037 168.509 290.155 169.627C291.272 170.746 291.899 172.263 291.899 173.845Z" fill="#70B75D"/>
<path d="M290.655 173.845C290.655 175.096 290.159 176.297 289.275 177.182C288.391 178.066 287.192 178.564 285.943 178.564C284.693 178.564 283.494 178.066 282.61 177.182C281.726 176.297 281.23 175.096 281.23 173.845C281.23 172.593 281.726 171.393 282.61 170.508C283.494 169.623 284.693 169.126 285.943 169.126C287.192 169.126 288.391 169.623 289.275 170.508C290.159 171.393 290.655 172.593 290.655 173.845Z" fill="#1D1D1B"/>
<path d="M281.955 171.085C282.705 171.269 283.19 171.916 283.039 172.529C282.888 173.142 282.158 173.489 281.409 173.304C280.659 173.119 280.174 172.472 280.324 171.859C280.476 171.246 281.205 170.899 281.955 171.085Z" fill="white"/>
<path d="M283.315 169.5C283.711 169.598 283.967 169.942 283.887 170.268C283.806 170.594 283.421 170.779 283.024 170.682C282.627 170.584 282.371 170.24 282.452 169.914C282.532 169.588 282.918 169.402 283.315 169.501V169.5Z" fill="white"/>
<path d="M243.564 174.871C242.364 165.528 247.728 157.146 255.543 156.142C263.359 155.138 270.67 161.894 271.862 171.236C271.936 171.786 271.987 172.321 272.009 172.856C272.426 181.531 267.237 189.019 259.876 189.965C252.514 190.91 245.613 184.975 243.835 176.475C243.718 175.955 243.637 175.42 243.564 174.871Z" fill="white"/>
<path d="M243.564 174.871C243.301 172.834 243.33 170.753 243.689 168.731C244.04 166.708 244.677 164.715 245.686 162.898C246.689 161.088 248.014 159.418 249.689 158.128C251.351 156.831 253.341 155.908 255.471 155.556C257.6 155.205 259.832 155.417 261.888 156.142C263.945 156.875 265.826 158.07 267.392 159.586C268.958 161.103 270.246 162.898 271.19 164.862C272.126 166.825 272.741 168.936 273.041 171.09C273.312 173.251 273.239 175.442 272.829 177.582C272.419 179.721 271.621 181.788 270.494 183.656C269.353 185.517 267.823 187.144 266.016 188.367C264.209 189.591 262.127 190.344 259.957 190.558C257.805 190.749 255.646 190.36 253.707 189.525C251.76 188.704 250.055 187.43 248.621 185.935C247.187 184.433 246.067 182.66 245.218 180.791C244.37 178.913 243.812 176.917 243.564 174.871ZM243.564 174.871C243.842 176.908 244.428 178.901 245.306 180.747C246.191 182.594 247.406 184.279 248.862 185.693C250.333 187.1 252.082 188.192 253.97 188.851C255.858 189.503 257.878 189.686 259.803 189.364C263.689 188.697 266.901 185.986 268.723 182.616C269.66 180.93 270.246 179.062 270.582 177.164C270.919 175.266 270.948 173.303 270.685 171.383C270.443 169.463 269.924 167.573 269.119 165.822C268.328 164.063 267.274 162.415 265.95 161.022C263.352 158.209 259.554 156.377 255.624 156.729C253.678 156.897 251.76 157.586 250.107 158.707C248.435 159.848 247.028 161.335 245.979 163.067C244.918 164.815 244.175 166.737 243.784 168.745C243.389 170.76 243.33 172.834 243.564 174.871Z" fill="#1D1D1B"/>
<path d="M266.521 178.908C266.521 183.946 262.442 188.03 257.41 188.03C252.378 188.03 248.299 183.946 248.299 178.908C248.299 173.87 252.378 169.785 257.41 169.785C262.442 169.785 266.521 173.87 266.521 178.908Z" fill="#39A935"/>
<path d="M264.977 178.908C264.977 183.092 261.588 186.484 257.41 186.484C253.231 186.484 249.843 183.092 249.843 178.908C249.843 174.724 253.231 171.331 257.41 171.331C261.588 171.331 264.977 174.724 264.977 178.908Z" fill="#70B75D"/>
<path d="M263.396 178.908C263.396 180.498 262.765 182.022 261.642 183.146C260.52 184.27 258.997 184.902 257.41 184.902C255.822 184.902 254.299 184.27 253.177 183.146C252.054 182.022 251.424 180.498 251.424 178.908C251.424 177.318 252.054 175.794 253.177 174.67C254.299 173.546 255.822 172.914 257.41 172.914C258.997 172.914 260.52 173.546 261.642 174.67C262.765 175.794 263.396 177.318 263.396 178.908Z" fill="#1D1D1B"/>
<path d="M253.294 174.306C254.165 174.752 254.575 175.693 254.21 176.411C253.846 177.128 252.842 177.349 251.971 176.905C251.1 176.46 250.69 175.517 251.055 174.8C251.42 174.083 252.422 173.862 253.294 174.306Z" fill="white"/>
<path d="M255.432 172.745C255.896 172.982 256.115 173.484 255.921 173.866C255.726 174.248 255.191 174.366 254.727 174.128C254.263 173.892 254.044 173.389 254.238 173.007C254.433 172.625 254.968 172.508 255.432 172.745Z" fill="white"/>
<path d="M368.043 307.918C363.052 315.553 351.431 312.285 339.4 313.01C327.362 313.736 325.284 318.454 319.89 318.454C314.497 318.454 314.914 310.468 312.419 305.742C309.923 301.023 299.129 301.375 291.658 301.375C284.186 301.375 266.338 303.565 264.259 310.101C262.196 316.644 266.338 321.363 259.7 324.265C253.063 327.181 243.513 321.363 239.356 320.638C235.214 319.912 227.728 322.455 218.185 319.912C214.775 319.011 212.375 317.069 210.706 314.966C207.677 311.186 206.989 306.833 206.989 306.833C206.989 306.833 212.28 315.047 218.603 316.644C222.759 319.912 233.553 314.827 238.529 315.919C243.52 317.003 246.828 318.821 252.236 311.911C257.629 305.016 249.323 299.198 245.584 294.113C196.612 259.595 205.328 219.633 211.131 202.201C216.949 184.755 230.545 150.024 232.792 131.252C235.17 111.337 223.176 95.0264 223.176 95.0264C223.176 95.0264 232.726 99.0198 245.584 117.191C236.356 95.2902 229.228 81.0242 220.681 73.9608C236.034 81.9474 256.202 114.48 261.588 125.017C262.064 119.045 260 107.922 257.315 97.7741C255.258 90 252.836 82.8047 250.904 78.9433C262.188 88.7544 268.423 114.018 268.423 114.018L272.565 96.8509C272.565 96.8509 276.971 120.225 278.215 125.317C280.71 109.695 279.627 88.4906 269.25 61.9662C277.132 75.7706 283.688 82.5849 289.499 114.912C291.16 104.735 295.397 101.57 295.397 101.57C295.397 101.57 294.724 119.235 297.212 129.772C300.534 119.235 304.94 108.464 304.94 108.464C304.94 108.464 309.499 109.93 309.082 119.367C313.641 99.7451 323.615 87.7652 332.748 84.4973C321.12 96.4845 316.963 116.634 319.766 134.234C323.03 154.743 346.484 181.495 352.66 215.288C355.361 229.055 354.965 242.728 349.762 259.602C344.362 275.598 328.592 288.677 322.781 294.121C319.459 304.298 322.364 309.017 327.757 309.742C333.158 310.468 334.863 307.698 341.874 306.841C349.221 305.939 356.4 307.2 356.4 307.2C356.4 307.2 359.722 306.841 364.698 301.756C369.675 296.663 368.021 288.31 368.021 288.31C368.021 288.31 373.019 300.297 368.043 307.918V307.918Z" stroke="#1D1D1B" stroke-width="2.45949" stroke-miterlimit="10" stroke-linecap="round" stroke-linejoin="round"/>
<path d="M193.553 216.225L186.66 209.323C186.48 209.145 186.244 209.034 185.992 209.01C185.74 208.986 185.487 209.05 185.277 209.191C184.062 210.019 155.529 229.539 150.75 243.526C150.611 243.937 150.729 244.391 151.043 244.684C151.248 244.875 151.512 244.97 151.782 244.97C151.929 244.97 152.082 244.94 152.221 244.875C153.473 244.318 183.074 231.165 193.641 217.661C193.978 217.236 193.941 216.614 193.553 216.225Z" fill="#1D1D1B"/>
<path d="M186.974 226.439C186.974 226.439 182.62 212.994 178.632 211.543C174.644 210.092 169.558 211.543 174.644 216.269C179.722 220.995 181.178 227.531 184.801 228.256C188.431 228.989 186.974 226.439 186.974 226.439Z" fill="#FCEA0D" stroke="#1D1D1B" stroke-width="2.45949" stroke-miterlimit="10" stroke-linecap="round" stroke-linejoin="round"/>
<path d="M167.384 220.629C167.384 220.629 165.935 214.452 170.289 214.452C174.643 214.452 183.718 228.256 182.261 231.524C180.805 234.8 167.384 220.629 167.384 220.629Z" fill="#FCEA0D" stroke="#1D1D1B" stroke-width="2.45949" stroke-miterlimit="10" stroke-linecap="round" stroke-linejoin="round"/>
<path d="M216.005 203.007C216.005 211.736 208.938 218.812 200.22 218.812C191.502 218.812 184.435 211.736 184.435 203.007C184.435 194.278 191.502 187.202 200.22 187.202C208.938 187.202 216.005 194.278 216.005 203.007Z" fill="#9C9B9B" stroke="#1D1D1B" stroke-width="2.25485" stroke-miterlimit="10" stroke-linecap="round" stroke-linejoin="round"/>
<path d="M194.197 188.331C194.197 188.331 197.3 209.023 212.309 211.961" stroke="#1D1D1B" stroke-width="2.25485" stroke-miterlimit="10" stroke-linecap="round" stroke-linejoin="round"/>
<path d="M189.155 191.598C187.669 197.101 194.943 216.122 209.111 215.91" stroke="#1D1D1B" stroke-width="2.25485" stroke-miterlimit="10" stroke-linecap="round" stroke-linejoin="round"/>
<path d="M266.703 334.867H280.959" stroke="#1D1D1B" stroke-width="3.68961" stroke-miterlimit="10" stroke-linecap="round" stroke-linejoin="round"/>
<path d="M410.033 167.814C410.033 167.814 380.344 172.57 380.344 201.109C380.344 240.42 450.406 246.289 433.78 277.209C417.153 308.13 375.163 321.4 390.604 349.14C406.154 377.086 459.854 339.827 479.671 363.802C493.919 381.043 524.852 345.631 506.389 351.316C490.948 356.072 494.812 375.093 472.002 369.283C463.344 365.876 451.175 367.363 447.018 371.525" stroke="#1D1D1B" stroke-width="2.45949" stroke-miterlimit="10" stroke-linecap="round" stroke-linejoin="round"/>
<path d="M367.677 377.13H453.129C453.129 377.13 443.681 355.332 411.219 355.332C378.756 355.332 367.677 377.13 367.677 377.13Z" fill="#1D1D1B"/>
<path d="M412.799 166.231V362.812H406.469V166.231H412.799Z" fill="#1D1D1B"/>
<path d="M418.324 157.512V169.8H402.488V157.512H418.324Z" fill="#1D1D1B"/>
<path d="M373.517 47.6046L378.939 58.6027L391.065 60.3686L382.291 68.9267L384.362 81.0166L373.517 75.3087L362.679 81.0166L364.75 68.9267L355.975 60.3686L368.101 58.6027L373.517 47.6046Z" fill="#FCEA0D" stroke="#1D1D1B" stroke-width="2.45949" stroke-miterlimit="10" stroke-linecap="round" stroke-linejoin="round"/>
<path d="M82.5835 209.242L89.8356 223.955L106.052 226.315L94.3215 237.767L97.0877 253.938L82.5835 246.303L68.0793 253.938L70.8528 237.767L59.1147 226.315L75.3314 223.955L82.5835 209.242Z" fill="#FCEA0D" stroke="#1D1D1B" stroke-width="2.45949" stroke-miterlimit="10" stroke-linecap="round" stroke-linejoin="round"/>
<path d="M459.203 143.84L466.455 158.553L482.671 160.912L470.933 172.365L473.707 188.543L459.203 180.908L444.691 188.543L447.465 172.365L435.727 160.912L451.943 158.553L459.203 143.84Z" fill="#4CBBCC" stroke="#1D1D1B" stroke-width="2.45949" stroke-miterlimit="10" stroke-linecap="round" stroke-linejoin="round"/>
<path d="M470.838 292.164L476.261 303.162L488.379 304.928L479.612 313.486L481.676 325.576L470.838 319.868L459.993 325.576L462.064 313.486L453.297 304.928L465.415 303.162L470.838 292.164Z" fill="#FCEA0D" stroke="#1D1D1B" stroke-width="2.45949" stroke-miterlimit="10" stroke-linecap="round" stroke-linejoin="round"/>
<path d="M172.616 71.0076L178.039 82.0057L190.158 83.7715L181.391 92.3297L183.462 104.42L172.616 98.7116L161.778 104.42L163.849 92.3297L155.075 83.7715L167.194 82.0057L172.616 71.0076Z" fill="#4CBBCC" stroke="#1D1D1B" stroke-width="2.45949" stroke-miterlimit="10" stroke-linecap="round" stroke-linejoin="round"/>
<path d="M347.062 326.148H357.746" stroke="#1D1D1B" stroke-width="3.68961" stroke-miterlimit="10" stroke-linecap="round" stroke-linejoin="round"/>
<path d="M183.974 293.849H214.256" stroke="#1D1D1B" stroke-width="3.68961" stroke-miterlimit="10" stroke-linecap="round" stroke-linejoin="round"/>
<path d="M97.783 147.547L109.47 166.584L124.025 190.287L130.48 182.117L108.797 142.69L97.783 147.547Z" fill="#1D1D1B"/>
<path d="M121.903 138.689L141.061 174.563L147.099 172.621L128.401 136.601L121.903 138.689Z" fill="#1D1D1B"/>
<path d="M111.182 155.629L132.573 145.379L134.322 149.255L113.304 162.246L111.182 155.629Z" fill="#1D1D1B"/>
<path d="M149.982 169.617L143.037 131.677L151.35 127.141L181.72 147.987L174.651 152.545L150.509 134.901L155.719 166.107L149.982 169.617Z" fill="#1D1D1B"/>
<path d="M148.848 148.544L163.242 138.308L165.408 140.528L149.536 153.944L148.848 148.544Z" fill="#1D1D1B"/>
<path d="M461.142 214.21L453.063 227.773L442.276 245.812L449.996 247.293L468.24 219.904L461.142 214.21Z" fill="#1D1D1B"/>
<path d="M476.078 226.381L458.749 251.755L462.152 255.133L479.744 230.015L476.078 226.381Z" fill="#1D1D1B"/>
<path d="M460.988 225.099L475.324 235.877L473.341 238.397L457.3 228.828L460.988 225.099Z" fill="#1D1D1B"/>
<path d="M465.174 256.019L488.145 238.119L493.765 240.954L490.728 269.772L485.21 266.622L488.599 244.259L469.521 258.65L465.174 256.019Z" fill="#1D1D1B"/>
<path d="M478.888 247.908L490.758 253.99L490.033 256.217L475.514 250.253L478.888 247.908Z" fill="#1D1D1B"/>
<path d="M279.254 25.0662L277.278 37.5956L274.622 54.2796L280.82 53.0707L286.25 27.191L279.254 25.0662Z" fill="#1D1D1B"/>
<path d="M294.021 29.675L288.679 53.7815L292.221 55.2836L297.841 31.287L294.021 29.675Z" fill="#1D1D1B"/>
<path d="M282.393 33.2361L296.298 36.9803L295.573 39.4569L280.754 37.1195L282.393 33.2361Z" fill="#1D1D1B"/>
<path d="M294.739 55.0347L306.528 34.819L311.563 35.2513L317.893 57.6431L312.843 56.9471L308.694 39.2592L298.764 55.6941L294.739 55.0347Z" fill="#1D1D1B"/>
<path d="M302.54 44.8866L313.209 45.8684L313.334 47.7515L300.725 47.6416L302.54 44.8866Z" fill="#1D1D1B"/>
</svg>
