<svg width="24" height="24" viewBox="0 0 24 24" fill="none" xmlns="http://www.w3.org/2000/svg">
<path opacity="0.1" fill-rule="evenodd" clip-rule="evenodd" d="M0 12C0 5.37258 5.37258 0 12 0C18.6274 0 24 5.37258 24 12C24 18.6274 18.6274 24 12 24C5.37258 24 0 18.6274 0 12Z" fill="#71B738"/>
<g clip-path="url(#clip0)">
<path fill-rule="evenodd" clip-rule="evenodd" d="M15.7782 7C16.4526 7 17 7.54746 17 8.22176V15.7782C17 16.4525 16.4525 17 15.7782 17H13.6988V13.2321H14.9996L15.2471 11.6184H13.6988V10.5712C13.6988 10.1298 13.9151 9.69943 14.6086 9.69943H15.3125V8.32561C15.3125 8.32561 14.6736 8.21658 14.0629 8.21658C12.7877 8.21658 11.9543 8.98941 11.9543 10.3885V11.6184H10.5368V13.2321H11.9543V17H8.22176C7.54746 17 7 16.4525 7 15.7782V8.22176C7 7.54746 7.54744 7 8.22176 7H15.7782V7Z" fill="#71B738"/>
</g>
<defs>
<clipPath id="clip0">
<rect width="10" height="10" fill="white" transform="translate(7 7)"/>
</clipPath>
</defs>
</svg>
