<svg width="80" height="66" viewBox="0 0 80 66" fill="none" xmlns="http://www.w3.org/2000/svg">
<g clip-path="url(#clip0)">
<path d="M16.0125 22.2389L16.5887 21.1843L20.009 22.3052L17.2889 19.9395L17.8652 18.9224L22.8012 21.5647L22.3949 22.2879L19.038 20.5101L22.003 22.9939L21.6601 23.6105L17.9632 22.3888L21.2567 24.328L20.8504 25.0685L16.0125 22.2389Z" fill="#001B26"/>
<path d="M23.1928 20.4726C22.7031 20.423 22.2459 20.205 21.899 19.856L20.3286 18.4815C19.9424 18.1854 19.6722 17.7633 19.565 17.2886C19.5016 16.8967 19.6658 16.4789 20.0577 16.0294C20.4496 15.5799 20.8415 15.3695 21.2391 15.3782C21.7215 15.4243 22.1723 15.6385 22.5127 15.9833L24.0889 17.3606C24.4765 17.6551 24.7504 18.0745 24.864 18.5478C24.9293 18.9454 24.768 19.3661 24.3799 19.8099C23.9909 20.2709 23.5933 20.487 23.1928 20.4726ZM23.8757 18.8619C23.7939 18.698 23.6768 18.5544 23.5328 18.4412L21.5417 16.6979C21.4094 16.567 21.2486 16.4684 21.072 16.4098C20.996 16.3965 20.9177 16.4055 20.8466 16.4356C20.7756 16.4658 20.7148 16.5158 20.6715 16.5798C20.6139 16.6314 20.5725 16.6986 20.5526 16.7734C20.5326 16.8481 20.5349 16.927 20.5591 17.0005C20.6355 17.1685 20.7511 17.3157 20.8962 17.4298L22.8873 19.1587C23.0219 19.2896 23.1845 19.3881 23.3628 19.4468C23.4393 19.4611 23.5183 19.4525 23.59 19.4223C23.6617 19.3921 23.7229 19.3415 23.7662 19.2768C23.8228 19.2258 23.8633 19.1594 23.8828 19.0857C23.9022 19.012 23.8998 18.9342 23.8757 18.8619Z" fill="#001B26"/>
<path d="M22.5127 13.618L23.138 13.1282L25.9128 14.6525L24.1177 12.3473L24.864 11.771L28.3217 16.1796L27.7166 16.6522L24.8352 14.981L26.7427 17.4187L25.9762 18.018L22.5127 13.618Z" fill="#001B26"/>
<path d="M26.3682 10.8293L28.512 9.67676L28.8894 10.3712L27.7369 10.9936L28.4486 12.2989L29.3361 11.8148L29.7164 12.5121L28.8289 12.9933L29.679 14.5263L30.8316 13.8952L31.2004 14.5753L29.045 15.7451L26.3682 10.8293Z" fill="#001B26"/>
<path d="M31.6962 11.9985L29.5322 9.18329L30.5407 8.82311L31.7711 10.4771L31.6271 8.43699L32.6096 8.08545L32.7335 11.6297L33.4798 13.7187L32.4425 14.0875L31.6962 11.9985Z" fill="#001B26"/>
<path d="M36.3064 7.29625L37.7241 7.18388C38.1642 7.12276 38.6124 7.19714 39.0092 7.39711C39.3262 7.58152 39.5048 7.94747 39.548 8.49494C39.5847 8.76985 39.5333 9.0493 39.4011 9.29311C39.2694 9.49801 39.0624 9.64291 38.8248 9.69652C38.9703 9.69818 39.1139 9.73062 39.246 9.7917C39.3781 9.85279 39.4957 9.94113 39.5913 10.0509C39.7916 10.3184 39.9034 10.6418 39.9111 10.9759C39.9976 12.0689 39.4991 12.6577 38.4156 12.7422L36.7501 12.8777L36.3064 7.29625ZM38.139 11.9613C38.2481 11.9659 38.3567 11.9454 38.4566 11.9015C38.5565 11.8575 38.645 11.7912 38.7153 11.7078C38.8296 11.5049 38.8713 11.2691 38.8334 11.0393C38.8347 10.799 38.7567 10.5651 38.6116 10.3737C38.5274 10.3033 38.4288 10.2524 38.3227 10.2245C38.2166 10.1966 38.1057 10.1924 37.9978 10.2123L37.7097 10.2354L37.8509 11.9988L38.139 11.9613ZM37.9027 9.43718C38.006 9.44131 38.1089 9.42253 38.2041 9.38217C38.2992 9.34182 38.3843 9.2809 38.4531 9.20379C38.5557 9.02086 38.5933 8.80858 38.5597 8.60156C38.5608 8.50307 38.5402 8.40554 38.4993 8.31591C38.4585 8.22627 38.3984 8.14672 38.3234 8.08289C38.1381 7.97538 37.9214 7.9347 37.7097 7.96764L37.4964 7.98492L37.6146 9.46024L37.9027 9.43718Z" fill="#001B26"/>
<path d="M42.098 7.16943L43.3543 7.30486L43.8355 12.9842L42.7924 12.8719L42.7146 11.6271L41.8358 11.5262L41.4929 12.7335L40.4268 12.6212L42.098 7.16943ZM42.6743 10.9153L42.5763 8.63898L42 10.8433L42.6743 10.9153Z" fill="#001B26"/>
<path d="M44.7003 12.7908C44.5486 12.3208 44.5588 11.8136 44.7291 11.3501L45.2881 9.42526C45.3935 8.94129 45.6559 8.50572 46.0344 8.18623C46.359 7.95379 46.8095 7.92017 47.3858 8.08538C47.9621 8.25058 48.3107 8.49742 48.4318 8.82591C48.5806 9.22947 48.5806 9.67291 48.4318 10.0765L48.2992 10.5289L47.2561 10.2234L47.4002 9.72781C47.4386 9.5993 47.4684 9.46838 47.4895 9.33593C47.5047 9.23711 47.4875 9.13605 47.4405 9.04779C47.3789 8.95354 47.2826 8.88731 47.1726 8.86337C47.0996 8.83054 47.0183 8.82067 46.9396 8.83508C46.8608 8.84949 46.7883 8.88749 46.7317 8.94405C46.6129 9.10504 46.5276 9.28829 46.481 9.48289L45.7693 11.9264C45.7041 12.111 45.6824 12.3082 45.7059 12.5027C45.7251 12.5763 45.7652 12.6427 45.8215 12.6939C45.8778 12.745 45.9478 12.7787 46.0229 12.7908C46.0916 12.8222 46.1684 12.8311 46.2425 12.816C46.3165 12.801 46.3839 12.7629 46.4349 12.7072C46.5504 12.5461 46.6336 12.3641 46.6798 12.1713L46.8325 11.6469L47.8929 11.9552L47.7633 12.3989C47.667 12.831 47.4248 13.2167 47.0775 13.491C46.772 13.7071 46.3398 13.733 45.7895 13.5717C45.2391 13.4103 44.8501 13.1683 44.7003 12.7908Z" fill="#001B26"/>
<path d="M50.4573 9.23535L51.4716 9.74537L50.4256 11.8546L52.3937 10.2006L53.382 10.6963L51.2901 12.4712L50.9184 15.7359L49.8868 15.2173L50.2383 12.5951L49.9502 12.7824L48.9647 14.7447L47.9504 14.2376L50.4573 9.23535Z" fill="#001B26"/>
<path d="M29.9903 50.3804L31.0766 50.9134L30.143 54.3885L32.356 51.5387L33.4048 52.0516L31.0334 57.123L30.29 56.7657L31.8805 53.3079L29.5753 56.4026L28.9414 56.0943L29.9615 52.3484L28.2038 55.7428L27.4546 55.374L29.9903 50.3804Z" fill="#001B26"/>
<path d="M33.0329 57.3584C32.8561 56.9026 32.8428 56.3995 32.9955 55.935L33.4997 53.9179C33.5811 53.4389 33.8279 53.0035 34.197 52.6875C34.514 52.4541 34.9635 52.3994 35.5398 52.5521C36.1161 52.7048 36.4849 52.9469 36.6607 53.3042C36.8384 53.7556 36.8536 54.2547 36.7039 54.7161L36.1968 56.7331C36.1135 57.2122 35.8659 57.6472 35.4966 57.9635C35.1739 58.2056 34.7243 58.2517 34.1538 58.1105C33.5833 57.9693 33.2029 57.7215 33.0329 57.3584ZM34.7618 57.2287C34.8757 57.0816 34.9536 56.9099 34.9894 56.7274L35.6435 54.1715C35.6971 53.996 35.7079 53.8103 35.6752 53.6298C35.6547 53.5543 35.6123 53.4867 35.5533 53.4354C35.4943 53.3841 35.4214 53.3515 35.3439 53.3416C35.2717 53.3141 35.1931 53.3079 35.1175 53.3238C35.0419 53.3396 34.9725 53.3768 34.9174 53.431C34.8046 53.5762 34.7276 53.746 34.6927 53.9266L34.053 56.4767C33.9985 56.6558 33.9857 56.8451 34.0155 57.0299C34.0448 57.1003 34.0902 57.1627 34.1481 57.2123C34.2059 57.2619 34.2746 57.2973 34.3486 57.3155C34.4226 57.3337 34.4998 57.3343 34.5741 57.3172C34.6484 57.3002 34.7176 57.2659 34.7762 57.2172L34.7618 57.2287Z" fill="#001B26"/>
<path d="M37.6261 53.0713L38.4214 53.1145L39.5077 56.0853L39.6633 53.1779L40.6085 53.2298L40.3203 58.8198L39.5538 58.7766L38.4675 55.6127L38.3033 58.7046L37.3293 58.6527L37.6261 53.0713Z" fill="#001B26"/>
<path d="M41.2427 53.1749L43.666 52.8867L43.7582 53.6705L42.4587 53.8232L42.6315 55.2985L43.6343 55.1804L43.7265 55.9699L42.7266 56.088L42.9283 57.8313L44.2394 57.6786L44.3316 58.4451L41.8939 58.7332L41.2427 53.1749Z" fill="#001B26"/>
<path d="M45.6971 55.8579L43.7319 52.9016L44.7606 52.6134L45.8729 54.3423V52.2964L46.8756 52.0083L46.7546 55.5525L47.3568 57.6877L46.2993 57.9758L45.6971 55.8579Z" fill="#001B26"/>
<path d="M48.6968 51.2245L49.9185 50.4897C50.2846 50.2378 50.719 50.1041 51.1633 50.1065C51.5264 50.1324 51.852 50.3946 52.1344 50.8499C52.2897 51.0789 52.3684 51.3513 52.3591 51.6279C52.347 51.7481 52.3112 51.8647 52.2539 51.971C52.1965 52.0773 52.1187 52.1713 52.0249 52.2474C52.1558 52.1838 52.2987 52.1485 52.4442 52.1441C52.5897 52.1396 52.7346 52.166 52.8691 52.2215C53.1676 52.3715 53.4115 52.6113 53.5665 52.9073C54.1427 53.8437 53.9497 54.5958 53.019 55.1548L51.5782 56.0192L48.6968 51.2245ZM51.0826 52.4261C51.1765 52.3835 51.2599 52.3209 51.327 52.2428C51.3942 52.1647 51.4436 52.0728 51.4716 51.9737C51.4786 51.7674 51.4167 51.5647 51.2959 51.3974C51.2533 51.3087 51.1917 51.2305 51.1155 51.1682C51.0393 51.106 50.9504 51.0613 50.855 51.0372C50.6412 51.0237 50.4294 51.0848 50.2557 51.2101L50.0712 51.3196L50.8348 52.5874L51.0826 52.4261ZM52.4225 54.5814C52.5197 54.5356 52.6053 54.4686 52.6732 54.3854C52.741 54.3021 52.7893 54.2046 52.8144 54.1002C52.8257 53.8684 52.7576 53.6397 52.6213 53.4519C52.5129 53.2312 52.3332 53.0535 52.1113 52.9476C52.0051 52.9215 51.8944 52.9193 51.7873 52.9412C51.6801 52.9632 51.5792 53.0087 51.4918 53.0744L51.2296 53.2329L52.143 54.7485L52.4225 54.5814Z" fill="#001B26"/>
<path d="M52.4426 48.7119L53.3849 47.8677L57.9232 51.3254L57.1423 52.0285L56.1655 51.2505L55.5085 51.8268L56.1684 52.8843L55.3644 53.596L52.4426 48.7119ZM55.6122 50.7895L53.8574 49.3487L55.1137 51.2476L55.6122 50.7895Z" fill="#001B26"/>
<path d="M58.6291 49.8926C58.1392 49.8597 57.674 49.6651 57.3065 49.3394L55.7217 48.1119C55.3145 47.8334 55.0106 47.4283 54.8573 46.9593C54.7564 46.5732 54.8919 46.141 55.2578 45.6684C55.6238 45.1959 55.9667 44.9826 56.3326 44.9653C56.7584 44.9739 57.1672 45.1343 57.4852 45.4177L57.8569 45.7059L57.1798 46.5703L56.7706 46.2533C56.6648 46.1709 56.5541 46.0949 56.4392 46.0257C56.352 45.9758 56.2505 45.9565 56.1511 45.971C56.0412 45.9936 55.9449 46.0589 55.8831 46.1525C55.8252 46.2083 55.7859 46.2805 55.7704 46.3593C55.755 46.4382 55.7641 46.5199 55.7966 46.5934C55.9044 46.7612 56.0433 46.907 56.2058 47.0227L58.2228 48.5816C58.3736 48.7177 58.5542 48.8164 58.7502 48.8697C58.8261 48.8793 58.9033 48.8667 58.9723 48.8335C59.0413 48.8002 59.0992 48.7478 59.1392 48.6824C59.194 48.6301 59.2309 48.5618 59.2443 48.4872C59.2578 48.4126 59.2472 48.3357 59.2141 48.2675C59.1039 48.1022 58.9642 47.9586 58.802 47.8439L58.3698 47.5097L59.0469 46.6452L59.4129 46.9334C59.7794 47.1814 60.0499 47.5475 60.1794 47.9707C60.2658 48.3357 60.1333 48.7458 59.7817 49.2011C59.4187 49.6564 59.0354 49.8926 58.6291 49.8926Z" fill="#001B26"/>
<path d="M56.4912 44.0863L57.007 43.0778L59.1105 44.1583L57.4709 42.1759L57.978 41.1904L59.7357 43.2737L62.9947 43.6743L62.4674 44.7001L59.8481 44.3255L60.0325 44.6309L61.9862 45.6337L61.4704 46.6422L56.4912 44.0863Z" fill="#001B26"/>
<path d="M24.9276 33.8529L26.3539 39.3681L27.2472 39.0799L25.1552 33.778L24.9276 33.8529ZM32.2667 31.4325L32.1312 31.4757L32.817 33.5792L33.4394 33.3775C33.7679 33.2709 33.8227 32.8703 33.5979 32.1817C33.4481 31.7235 33.2896 31.4527 33.1167 31.3662C32.8363 31.2875 32.5371 31.311 32.2724 31.4325H32.2667ZM39.8507 28.9977L41.277 34.5157L42.1703 34.2275L40.0754 28.9256L39.8507 28.9977ZM70.6507 13.0401L66.8817 14.2676C62.8457 8.41495 57.0275 4.02226 50.2933 1.7435C43.559 -0.535259 36.2689 -0.578213 29.5083 1.62103C22.7476 3.82028 16.878 8.14411 12.7734 13.9488C8.66868 19.7535 6.54841 26.7286 6.72823 33.8356L2.95927 35.0631L0 40.8779L2.96791 50.0007L8.78271 52.9628L12.5517 51.7353C16.5877 57.588 22.4059 61.9807 29.1401 64.2594C35.8744 66.5382 43.1645 66.5811 49.9251 64.3819C56.6858 62.1826 62.5554 57.8588 66.66 52.0541C70.7647 46.2494 72.885 39.2743 72.7052 32.1673L76.4741 30.9426L79.4334 25.125L76.4655 16.0022L70.6507 13.0401ZM29.8088 2.54291C36.3247 0.431701 43.3452 0.461075 49.8432 2.62673C56.3412 4.79239 61.9757 8.98067 65.9222 14.5788L64.5449 15.0312C60.7456 9.7776 55.3777 5.86464 49.2135 3.85531C43.0493 1.84598 36.4066 1.84387 30.2411 3.84928C24.0756 5.85468 18.7052 9.76422 14.9026 15.0154C11.1 20.2666 9.06117 26.5887 9.0795 33.0721L7.68775 33.5244C7.58539 26.6755 9.67737 19.9735 13.6576 14.3989C17.6379 8.82437 23.2976 4.66976 29.8088 2.54291ZM64.4037 23.5229L65.0923 25.6465L62.7439 26.413L63.5796 28.9832L66.1902 28.1188L66.9077 30.3203L61.7614 31.9944L58.0904 20.7221L63.0753 19.0998L63.787 21.2869L61.3378 22.085L62.0553 24.2865L64.4037 23.5229ZM50.1087 19.7251C47.9331 18.0217 45.3723 16.8792 42.6515 16.398C39.9306 15.9168 37.1332 16.1117 34.5054 16.9655C31.8776 17.8194 29.4999 19.306 27.5815 21.2945C25.6632 23.2831 24.263 25.7127 23.5041 28.3695L10.0448 32.7493C10.1015 26.5294 12.1109 20.4844 15.7894 15.4684C19.4678 10.4524 24.6292 6.71896 30.5445 4.79539C36.4598 2.87181 42.83 2.85539 48.7552 4.74844C54.6803 6.64148 59.8609 10.3483 63.5652 15.3453L50.1087 19.7251ZM52.0018 25.1077L51.2901 22.9322L56.7418 21.1601L57.4536 23.3413L55.9754 23.8225L58.9375 32.928L56.4451 33.7377L53.4829 24.6265L52.0018 25.1077ZM38.2198 23.18L36.5658 22.8745L35.4132 24.0934L35.1914 22.4279L33.6757 21.7047L35.1914 20.9785L35.4103 19.313L36.5629 20.5319L38.214 20.2265L37.413 21.7018L38.2198 23.18ZM41.3145 42.2466L42.9684 42.5521L44.121 41.3332L44.3429 42.9987L45.8585 43.722L44.3429 44.4452L44.1239 46.1136L42.9713 44.8947L41.3202 45.2001L42.1213 43.7248L41.3145 42.2466ZM43.758 37.8582L43.0289 36.2157L41.7813 36.6249L42.1789 38.3739L39.7585 39.1635L37.364 27.4705L41.2655 26.1998L46.1784 37.0744L43.758 37.8582ZM42.4152 21.5808L41.2424 21.3647L40.4212 22.2291L40.2656 21.0477L39.188 20.5348L40.2656 20.019L40.4212 18.8376L41.2424 19.702L42.4152 19.4859L41.8389 20.5319L42.4152 21.5808ZM46.4637 40.8059L47.6364 41.022L48.4576 40.1576L48.6132 41.339L49.6909 41.8519L48.6132 42.359L48.4576 43.5433L47.6364 42.6789L46.4637 42.895L47.04 41.8461L46.4637 40.8059ZM47.5096 36.6364L43.8415 25.3584L46.3916 24.5256L49.2933 29.5451L47.5442 24.151L49.9531 23.3673L53.6212 34.6453L51.1921 35.4435L48.1205 30.2021L49.956 35.844L47.5096 36.6364ZM37.1191 43.8401L38.2918 44.0562L39.113 43.1918L39.2686 44.3732L40.3463 44.8861L39.2686 45.399L39.113 46.5832L38.2918 45.7188L37.1191 45.9349L37.6954 44.8861L37.1191 43.8401ZM36.2806 32.4439C36.304 32.6359 36.2972 32.8303 36.2604 33.0202C36.2132 33.2062 36.1342 33.3826 36.027 33.5417C35.8955 33.7373 35.7283 33.9064 35.5343 34.0402C35.7521 34.004 35.9755 34.0208 36.1855 34.0892C36.3669 34.152 36.5274 34.2637 36.6494 34.4119C36.7597 34.5439 36.8562 34.6868 36.9375 34.8384C37.0138 34.9908 37.0784 35.1487 37.1306 35.311C37.7376 37.1781 38.189 38.5977 38.4849 39.5698L36.05 40.3622L34.6093 35.965C34.5678 35.8227 34.5047 35.6876 34.422 35.5645C34.3902 35.5209 34.3497 35.4843 34.3031 35.457C34.2565 35.4297 34.2048 35.4124 34.1511 35.406C34.049 35.39 33.945 35.39 33.8428 35.406C33.7506 35.4272 33.6123 35.4675 33.4279 35.5271L35.0991 40.659L32.5865 41.4946L28.9184 30.2165L32.7421 28.9717C33.0805 28.8521 33.4379 28.7954 33.7967 28.8046C34.0742 28.8098 34.3465 28.8799 34.592 29.0092C34.8338 29.1532 35.0397 29.3503 35.1942 29.5855C35.3747 29.8346 35.5283 30.1021 35.6524 30.3836C35.7966 30.7179 35.9236 31.0593 36.0327 31.4066C36.1019 31.6198 36.1566 31.7927 36.1912 31.931C36.2343 32.1013 36.2641 32.2747 36.2806 32.4497V32.4439ZM33.0706 24.6207L31.8978 24.4046L31.0766 25.269L30.921 24.0876L29.8434 23.5747L30.9181 23.0532L31.0737 21.8689L31.895 22.7333L33.0677 22.5172L32.4914 23.5661L33.0706 24.6207ZM31.2409 41.9297L28.8348 42.7106L28.1058 41.071L26.8437 41.4946L27.2414 43.2235L24.821 44.013L22.4265 32.32L26.328 31.0493L31.2409 41.9297ZM13.7965 35.1323L16.2169 34.3457L18.8592 42.4656C18.8995 42.5867 18.9312 42.6846 18.9572 42.7538C18.9945 42.8524 19.0378 42.9486 19.0868 43.0419C19.134 43.1384 19.1974 43.2261 19.2741 43.3013C19.3439 43.3624 19.4267 43.4067 19.5162 43.4309C19.6227 43.4589 19.7353 43.4538 19.8389 43.4165C19.9281 43.3887 20.0106 43.3426 20.0809 43.2811C20.1429 43.2266 20.1862 43.154 20.2048 43.0736C20.2248 42.9972 20.2374 42.919 20.2423 42.8402C20.2467 42.749 20.2369 42.6576 20.2135 42.5694L20.153 42.3187L20.0781 42.0766L17.4358 33.9567L19.8562 33.17L22.5532 41.46C22.8856 42.48 22.8933 43.3339 22.5763 44.0216C22.2593 44.7093 21.587 45.2184 20.5593 45.5488C19.5104 45.8946 18.6546 45.8859 17.9919 45.5142C17.3291 45.1425 16.8393 44.451 16.505 43.4309L13.7965 35.1323ZM29.3247 46.2807C31.5007 47.9826 34.0615 49.124 36.782 49.6044C39.5024 50.0848 42.2993 49.8896 44.9266 49.0359C47.5539 48.1823 49.9314 46.6962 51.8499 44.7085C53.7684 42.7208 55.1692 40.2922 55.9293 37.6363L69.3857 33.2593C69.3271 39.4781 67.3164 45.5212 63.6377 50.5355C59.959 55.5498 54.7981 59.2818 48.8838 61.2045C42.9695 63.1272 36.6006 63.1435 30.6765 61.251C24.7525 59.3586 19.5725 55.653 15.8682 50.6576L29.3247 46.2807ZM8.57813 45.5863L6.99044 40.6878C6.82599 40.2174 6.7441 39.7222 6.7484 39.224C6.74599 38.8504 6.82155 38.4804 6.97027 38.1377C7.10977 37.8491 7.30573 37.5914 7.54656 37.3798C7.7681 37.1837 8.01411 37.0171 8.27845 36.8842C8.52811 36.7622 8.78618 36.6582 9.05069 36.573C9.36833 36.4685 9.69409 36.3904 10.0246 36.3396C10.2921 36.2995 10.564 36.2995 10.8314 36.3396C11.0564 36.3728 11.2769 36.4318 11.4884 36.5154C11.6908 36.5962 11.875 36.7167 12.0301 36.8698C12.1874 37.0199 12.332 37.1828 12.4623 37.3568C12.6041 37.5525 12.7257 37.762 12.8254 37.9821C12.9435 38.2328 13.0473 38.469 13.1308 38.6909C13.2144 38.9128 13.3095 39.1808 13.419 39.4862L11.0389 40.2613L10.7508 39.3681C10.7044 39.2169 10.6365 39.0733 10.5491 38.9416C10.4908 38.8513 10.4064 38.7809 10.307 38.7399C10.2362 38.7167 10.1625 38.7041 10.088 38.7024C10.0203 38.7056 9.95341 38.7182 9.88919 38.7399C9.77015 38.7736 9.65931 38.8315 9.56359 38.9099C9.49552 38.9667 9.44048 39.0374 9.40223 39.1174C9.3744 39.23 9.3744 39.3477 9.40223 39.4603C9.42598 39.6069 9.45773 39.7522 9.49732 39.8954C9.53477 40.0308 9.60105 40.2383 9.69326 40.5206L11.1109 44.8832C11.1657 45.0474 11.2176 45.1857 11.2665 45.2952C11.3205 45.4153 11.3872 45.5293 11.4654 45.6352C11.5395 45.745 11.6479 45.827 11.7737 45.8686C11.9066 45.9058 12.0478 45.8997 12.1771 45.8514C12.2847 45.8287 12.3822 45.7719 12.4549 45.6893C12.5276 45.6067 12.5717 45.5029 12.5805 45.3932C12.58 45.0543 12.5175 44.7184 12.3961 44.402L11.9725 43.0996L11.3069 43.3157L10.6614 41.3591L13.6783 40.3795L15.8164 46.9492L14.8396 47.2575L14.1192 46.4478C14.0196 46.8701 13.8056 47.2568 13.5006 47.5654C13.1956 47.8739 12.8114 48.0924 12.3903 48.1969C10.6 48.7828 9.32635 47.9126 8.56948 45.5863H8.57813ZM49.6333 63.4514C43.1171 65.5655 36.0953 65.5385 29.5956 63.3743C23.0958 61.2102 17.4594 57.0225 13.5112 51.4241L14.9029 50.9717C18.7032 56.221 24.0702 60.13 30.2323 62.1366C36.3943 64.1432 43.0339 64.1441 49.1965 62.1391C55.3591 60.1341 60.7271 56.2266 64.5288 50.9783C68.3304 45.73 70.3699 39.4114 70.3539 32.9309L71.7457 32.4785C71.8489 39.3276 69.7573 46.03 65.7769 51.6048C61.7965 57.1795 56.1363 61.3339 49.6246 63.46L49.6333 63.4514ZM73.5898 28.1505L68.4435 29.8275L64.7754 18.5466L69.7574 16.9272L70.4692 19.1142L68.0199 19.9124L68.7374 22.1138L71.0858 21.3474L71.7745 23.4652L69.4261 24.2288L70.2617 26.7991L72.8752 25.9347L73.5898 28.1505Z" fill="#001B26"/>
</g>
<defs>
<clipPath id="clip0">
<rect width="79.4334" height="66" fill="white"/>
</clipPath>
</defs>
</svg>
