<?xml version="1.0" encoding="utf-8"?>
<!-- Generator: Adobe Illustrator 23.0.5, SVG Export Plug-In . SVG Version: 6.00 Build 0)  -->
<svg version="1.1" id="Layer_1" xmlns="http://www.w3.org/2000/svg" xmlns:xlink="http://www.w3.org/1999/xlink" x="0px" y="0px"
	 viewBox="27 0 580.89 200.78" style="enable-background:new 0 0 580.89 200.78;" xml:space="preserve">
<style type="text/css">
	.st0{fill:#9DC75E;}
	.st1{fill:#71B738;}
	.st2{fill:#FFFFFF;}
	.st3{fill:#1D1D1B;}
	.st4{fill:#E8451E;}
	.st5{fill:#EE7122;}
	.st6{fill:#F4981B;}
	.st7{fill:#DB0D15;}
	.st8{fill:#E29811;}
</style>
<g>
	<g>
		<path class="st0" d="M113.98,147.3c-1.25,3.32-4.12,5.76-7.14,7.62c-12.05,7.43-27.78,7.49-40.83,1.99
			c-2.55-1.08-5.13-2.44-6.69-4.74c-0.91-1.35-1.4-2.9-1.71-4.51c-0.19-0.95-0.31-1.92-0.42-2.87c-2.96-24.95-3.57-50.04,0.05-74.91
			c0.72-4.88,1.8-9.24,4.5-13.37c2.38-3.63-4.55-8.11-1.55-19.78c3.67,4.5,6,10.67,12.33,10.67c0.42-0.18,0.87-0.34,1.36-0.49
			c5.45-1.67,14.82-1.72,18.58,0.28c3.36,1.79,10.41-4.06,11.66-9.43c4.25,7.37-2.53,14.21-0.38,17.12c1.82,2.46,3.28,6.5,4,9.63
			c5.87,25.42,6.96,49.32,7.1,75.41C114.85,142.41,114.85,144.97,113.98,147.3z"/>
		<path class="st1" d="M113.98,147.3c-1.25,3.32-4.12,5.76-7.14,7.62c-12.05,7.43-27.78,7.49-40.83,1.99
			c-2.55-1.08-5.13-2.44-6.69-4.74c-0.91-1.35-1.4-2.9-1.71-4.51c11.03,10.72,33.03,3.05,43.03-10.28c10.33-14,9-57-0.33-74.33
			C93.42,50.25,76.28,47.2,73.88,46.91c5.45-1.67,14.82-1.72,18.58,0.28c3.36,1.79,10.41-4.06,11.66-9.43
			c4.25,7.37-2.53,14.21-0.38,17.12c1.82,2.46,3.28,6.5,4,9.63c5.87,25.42,6.96,49.32,7.1,75.41
			C114.85,142.41,114.85,144.97,113.98,147.3z"/>
		<path class="st0" d="M41.89,54.07c1.11-3.13,1.95-11.13-1.12-11.79c-3.5-0.75-4.67,6.54-4.75,9.75c-1.7-0.25-2.83-0.15-4.5,0.25
			c-1.67,0.4-2.91,0.81-3.25,2.5c-0.34,1.69,2.52,4.45,4.23,4.22c-2-1.02-4.37,1.79-3.43,3.83c0.94,2.04,3.7,3.2,6.33,3.33
			c-0.34,1.41-1.5,10.13,2.75,17c3.18,5.14,10.91,10.38,16.79,10.13l0.55-6.85c-2.55-0.62-5.49-1.22-8.22-4.4
			c-3.42-4-3.78-13.29-3.06-17c2.31-3.87,5.81-6.5,3.52-9.78c-0.98-1.45-3.08-1.75-4.72-1.16c-1.64,0.59-2.94,1.86-4.17,3.09
			c-1.14,1.13-2.31,3.01-1.18,4.15c1.04,1.06,2.82,0.17,4-0.73L41.89,54.07z"/>
		<path class="st0" d="M100.73,158.39c-0.19,3.6-0.31,8.44,0.29,10.23c1,3,6.5,0,8.5,2s-10.5,9-14,4c-2.1-3-4.56-9.07-6.2-13.44
			C95.21,160.73,95.37,160.04,100.73,158.39z"/>
		<path class="st0" d="M68.65,157.69c1.78,4.09,4.41,10.42,4.55,12.5c0.22,3.15-6.01,2.47-7.1,5.08s13.13,4.33,14.47-1.63
			c0.73-3.26,0.82-8.7,0.7-13.22C76.58,159.91,73.15,159.32,68.65,157.69z"/>
		<g>
			<path class="st1" d="M99.53,176.8c-2.16,0-3.81-0.75-4.83-2.19c-2.14-3.06-4.62-9.12-6.31-13.66c-0.11-0.29-0.08-0.62,0.09-0.89
				s0.45-0.43,0.77-0.46c4.1-0.32,5.27-0.73,7.61-1.56c0.91-0.32,2.05-0.72,3.58-1.19c0.31-0.1,0.65-0.03,0.91,0.17
				c0.26,0.2,0.4,0.51,0.38,0.84c-0.27,5.01-0.18,8.61,0.24,9.86c0.27,0.8,1.26,0.82,3.32,0.66c1.74-0.13,3.7-0.29,4.94,0.95
				c0.49,0.49,0.63,1.16,0.4,1.86c-0.72,2.17-5.43,4.89-9.5,5.49C100.56,176.76,100.03,176.8,99.53,176.8z M90.73,161.47
				c1.62,4.24,3.77,9.35,5.61,11.98c1.22,1.74,3.95,1.41,5.47,1.05c3.61-0.84,6.53-3.03,6.89-3.87c-0.64-0.48-1.97-0.38-3.26-0.27
				c-2.04,0.16-4.58,0.36-5.37-2.02c-0.47-1.41-0.61-4.49-0.41-9.16c-0.83,0.27-1.51,0.51-2.14,0.73
				C95.36,160.69,94.07,161.14,90.73,161.47z"/>
		</g>
		<g>
			<path class="st1" d="M72.43,178.67c-3,0-5.89-0.72-6.92-1.92c-0.48-0.56-0.6-1.24-0.34-1.87c0.67-1.61,2.55-2.22,4.21-2.76
				c1.96-0.63,2.88-1.03,2.82-1.87c-0.1-1.43-1.73-5.87-4.47-12.17c-0.16-0.37-0.09-0.79,0.19-1.08c0.27-0.29,0.7-0.39,1.07-0.25
				c4.37,1.59,7.73,2.17,12.39,2.68c0.5,0.05,0.88,0.47,0.89,0.97c0.11,4.19,0.06,9.92-0.73,13.46c-0.48,2.13-2.26,3.64-5.15,4.36
				C75.15,178.53,73.78,178.67,72.43,178.67z M67.08,175.52c0.65,0.64,4.19,1.55,7.84,0.96c1.54-0.25,4.2-0.98,4.66-3.06
				c0.55-2.47,0.8-6.75,0.7-12.1c-3.62-0.42-6.52-0.92-9.83-1.96c2.38,5.6,3.63,9.22,3.74,10.76c0.17,2.5-2.25,3.28-4.2,3.91
				C68.76,174.43,67.49,174.84,67.08,175.52z"/>
		</g>
		<g>
			<path class="st1" d="M103.37,38.06c2.06,3.72,1.15,7.49-0.09,11.3c-0.41,1.26-0.91,2.63-0.86,3.98c0.07,1.56,1.21,2.7,1.9,4.03
				c2.25,4.34,3.09,9.29,4.04,14.04c1.05,5.23,1.92,10.5,2.63,15.79c1.4,10.46,2.16,21,2.55,31.54c0.2,5.3,0.31,10.6,0.36,15.9
				c0.05,4.83,0.89,10.56-2.18,14.68c-2.73,3.66-7.35,6.03-11.53,7.61c-4.31,1.63-8.89,2.49-13.49,2.64
				c-4.58,0.15-9.17-0.39-13.6-1.54c-2.24-0.59-4.46-1.32-6.59-2.23c-2.04-0.86-4.16-1.91-5.65-3.6c-1.65-1.87-2.16-4.39-2.47-6.79
				c-0.35-2.71-0.63-5.44-0.9-8.16c-0.55-5.54-0.97-11.1-1.26-16.66c-0.55-10.93-0.54-21.9,0.2-32.83
				c0.38-5.63,0.95-11.25,1.74-16.83c0.68-4.82,1.69-9.56,4.3-13.75c1.18-1.89,0.91-3.65,0.18-5.68c-0.97-2.71-1.97-5.35-2.11-8.26
				c-0.11-2.18,0.18-4.33,0.71-6.45c-0.56,0.15-1.11,0.29-1.67,0.44c2.37,2.95,4.1,6.54,7.14,8.9c1.39,1.08,2.98,1.77,4.72,1.98
				c1.76,0.21,3.45-0.69,5.18-1.03c3.88-0.76,8.1-0.92,12-0.25c0.77,0.13,1.54,0.3,2.28,0.54c0.68,0.22,1.29,0.62,1.97,0.8
				c1.42,0.38,2.93-0.07,4.21-0.68c3.75-1.78,7.08-5.64,8.1-9.68c0.31-1.25-1.61-1.78-1.93-0.53c-0.86,3.42-3.59,6.55-6.66,8.22
				c-1.19,0.64-2.44,1.07-3.72,0.52c-1.31-0.56-2.61-0.95-4.02-1.17c-3.58-0.56-7.26-0.5-10.85-0.01c-1.66,0.23-3.33,0.54-4.92,1.1
				c-1.56,0.55-3.35-0.15-4.67-1.04c-3.24-2.17-5.03-6.12-7.42-9.09c-0.48-0.59-1.5-0.24-1.67,0.44c-0.96,3.86-1.09,7.81-0.02,11.67
				c0.36,1.3,0.85,2.56,1.31,3.82c0.32,0.88,0.74,1.86,0.73,2.82c-0.02,1.38-1.26,2.63-1.84,3.82c-1.07,2.17-1.83,4.49-2.37,6.85
				c-1.19,5.28-1.69,10.78-2.19,16.16c-1.08,11.47-1.32,23.02-0.91,34.53c0.21,5.81,0.58,11.61,1.09,17.4
				c0.25,2.78,0.52,5.55,0.83,8.32c0.28,2.54,0.44,5.18,1.17,7.65c1.37,4.66,5.21,6.97,9.48,8.68c4.42,1.78,9.09,2.9,13.83,3.37
				c9.3,0.93,19.01-0.83,27.02-5.77c3.86-2.38,7.33-5.68,8.16-10.33c0.47-2.62,0.33-5.31,0.31-7.96c-0.02-2.72-0.05-5.44-0.1-8.16
				c-0.2-11.07-0.69-22.14-1.81-33.15c-1.1-10.83-2.69-21.71-5.28-32.29c-0.56-2.27-1.33-4.51-2.34-6.62
				c-0.43-0.91-0.92-1.78-1.48-2.61c-0.38-0.56-0.54-0.92-0.48-1.61c0.12-1.48,0.79-2.95,1.22-4.35c0.55-1.77,0.98-3.61,1-5.48
				c0.02-2.11-0.55-4.12-1.57-5.97C104.48,35.93,102.75,36.93,103.37,38.06z"/>
		</g>
		<g>
			<g>
				<path class="st2" d="M75.14,82.94c-3.38,0-5.98-1.45-7.32-4.08c-1.56-3.04-1.2-7.45,0.82-10.26c1.6-2.21,3.98-3.48,6.54-3.48
					c2.62,0,5.02,1.36,6.41,3.64c1.6,2.62,2.55,6.97,0.85,10.32c-0.8,1.57-2.53,3.51-6.23,3.81C75.84,82.93,75.49,82.94,75.14,82.94
					z"/>
				<path class="st1" d="M75.18,65.63c2.34,0,4.62,1.16,5.99,3.4c2.75,4.5,2.75,12.75-5,13.37c-0.35,0.03-0.7,0.04-1.03,0.04
					c-8.51,0-9.22-9.21-6.1-13.54C70.64,66.7,72.94,65.63,75.18,65.63L75.18,65.63z M75.18,64.63L75.18,64.63
					c-2.72,0-5.25,1.34-6.95,3.69c-2.16,2.99-2.52,7.53-0.86,10.78c1.43,2.8,4.19,4.35,7.77,4.35c0.36,0,0.73-0.02,1.11-0.05
					c3.93-0.32,5.78-2.39,6.64-4.08c1.79-3.52,0.81-8.07-0.87-10.81C80.54,66.08,77.98,64.63,75.18,64.63L75.18,64.63z"/>
			</g>
			<circle class="st3" cx="75.34" cy="76.9" r="3.83"/>
		</g>
		<g>
			<path class="st3" d="M68.83,60.87c0.35-0.25,0.71-0.47,1.1-0.65c0.05-0.02,0.1-0.04,0.15-0.07c-0.12,0.05-0.12,0.05-0.02,0.01
				c0.08-0.03,0.15-0.06,0.23-0.08c0.2-0.07,0.41-0.13,0.62-0.19c0.21-0.05,0.42-0.09,0.63-0.13c0.27-0.05-0.22,0.02,0.05-0.01
				c0.11-0.01,0.21-0.02,0.32-0.03c0.43-0.03,0.86-0.01,1.28,0.04c0.52,0.06,1.02-0.51,1-1c-0.03-0.6-0.44-0.93-1-1
				c-1.86-0.23-3.85,0.27-5.37,1.37c-0.42,0.3-0.67,0.88-0.36,1.37C67.74,60.93,68.38,61.19,68.83,60.87L68.83,60.87z"/>
		</g>
		<g>
			<path class="st3" d="M92.13,62.97c0.13,0.01,0.25,0.02,0.37,0.03c0.02,0,0.2,0.02,0.07,0.01c-0.13-0.02,0.05,0.01,0.07,0.01
				c0.25,0.04,0.49,0.09,0.74,0.16c0.23,0.06,0.46,0.13,0.68,0.22c0.05,0.02,0.1,0.04,0.16,0.06c0.25,0.1-0.11-0.05,0.03,0.01
				c0.11,0.06,0.23,0.11,0.34,0.16c0.21,0.11,0.42,0.23,0.62,0.35c0.11,0.07,0.21,0.14,0.31,0.21c0.05,0.03,0.09,0.07,0.14,0.1
				c0.08,0.06,0.07,0.06,0,0c0.39,0.33,0.74,0.67,1.07,1.06c0.33,0.41,1.07,0.37,1.41,0c0.4-0.43,0.35-0.98,0-1.41
				c-1.46-1.79-3.72-2.84-6.01-2.96c-0.52-0.03-1.02,0.48-1,1C91.15,62.54,91.56,62.94,92.13,62.97L92.13,62.97z"/>
		</g>
		<g>
			<path class="st1" d="M42.61,54.27c0.82-2.38,1.15-5.08,1.02-7.59c-0.09-1.79-0.46-4.45-2.49-5.08
				c-4.83-1.49-5.78,7.53-5.87,10.43c0.25-0.25,0.5-0.5,0.75-0.75c-2.64-0.35-7.85-0.12-8.47,3.3c-0.44,2.43,2.61,5.31,4.95,5.17
				c0.66-0.04,1.12-1.08,0.38-1.4c-2.46-1.04-5.11,1.35-4.73,3.93c0.47,3.19,4.54,4.44,7.25,4.62c-0.24-0.32-0.48-0.63-0.72-0.95
				c-1.29,5.61-0.23,12.5,2.72,17.4c1.84,3.04,4.62,5.53,7.6,7.43c2.94,1.87,6.4,3.34,9.95,3.25c0.43-0.01,0.72-0.34,0.75-0.75
				c0.18-2.28,0.37-4.56,0.55-6.85c0.03-0.32-0.25-0.65-0.55-0.72c-2.08-0.5-4.13-1.04-5.89-2.33c-1.78-1.29-2.99-3.03-3.73-5.08
				c-1.29-3.62-1.64-7.7-1.34-11.52c0.08-0.97,0.24-1.61,0.8-2.44c0.73-1.08,1.54-2.09,2.26-3.17c0.96-1.45,1.79-3.15,1.26-4.92
				c-0.54-1.82-2.05-3-3.92-3.17c-2.2-0.2-4.1,1.02-5.66,2.44c-1.4,1.28-3.8,3.5-2.81,5.66c1.07,2.33,3.86,1.18,5.37,0.07
				c0.77-0.57,0.02-1.87-0.76-1.3c-0.73,0.54-1.86,1.41-2.79,0.98c-1.34-0.61,0.16-2.46,0.76-3.1c1.4-1.49,3.21-3.28,5.39-3.28
				c2.16,0,3.6,1.96,2.87,4.01c-0.64,1.8-2.09,3.3-3.15,4.86c-0.45,0.66-0.85,1.22-0.97,2c-0.09,0.62-0.15,1.25-0.19,1.87
				c-0.09,1.55-0.05,3.11,0.08,4.65c0.27,3.14,0.85,6.48,2.48,9.23c2.1,3.54,5.72,5.05,9.53,5.97c-0.18-0.24-0.37-0.48-0.55-0.72
				c-0.18,2.28-0.37,4.56-0.55,6.85c0.25-0.25,0.5-0.5,0.75-0.75c-3.29,0.09-6.46-1.31-9.19-3.04c-2.88-1.83-5.56-4.26-7.27-7.24
				c-1.73-3.02-2.52-6.51-2.7-9.97c-0.1-1.94-0.1-4.02,0.34-5.93c0.11-0.5-0.23-0.92-0.72-0.95c-1.89-0.13-4.22-0.73-5.36-2.4
				c-0.9-1.32,0.2-4.16,2.09-3.36c0.13-0.47,0.25-0.93,0.38-1.4c-1.61,0.1-4.2-2.29-3.27-3.96c0.48-0.86,1.62-1.08,2.5-1.29
				c1.45-0.35,2.83-0.42,4.3-0.22c0.41,0.05,0.74-0.39,0.75-0.75c0.06-1.94,0.35-3.91,0.94-5.76c0.36-1.14,1.45-4.06,3.18-3.15
				c1.45,0.76,1.3,3.67,1.26,5c-0.06,1.94-0.34,3.92-0.98,5.76C40.85,54.79,42.3,55.18,42.61,54.27L42.61,54.27z"/>
		</g>
		<g>
			<path class="st3" d="M98,95.23c-0.21,0-0.41-0.14-0.48-0.35c-0.17-0.54-0.56-0.99-1.15-1.33c-0.24-0.14-0.32-0.44-0.18-0.68
				c0.14-0.24,0.44-0.32,0.68-0.18c1.02,0.59,1.43,1.36,1.6,1.9c0.08,0.26-0.06,0.54-0.33,0.63C98.1,95.23,98.05,95.23,98,95.23z"/>
		</g>
		<g>
			<path class="st3" d="M67.4,98.97c-0.01,0-0.01,0-0.02,0c-0.27-0.01-0.49-0.24-0.48-0.51c0-0.06,0.06-1.5,1.45-2.55
				c0.22-0.17,0.53-0.12,0.7,0.1c0.17,0.22,0.12,0.53-0.1,0.7c-0.99,0.75-1.05,1.75-1.05,1.79C67.89,98.76,67.67,98.97,67.4,98.97z"
				/>
		</g>
		<g>
			<g>
				<path class="st2" d="M90.5,82.18c-2.52,0-4.47-1.08-5.48-3.05c-1.16-2.27-0.9-5.55,0.61-7.64c1.19-1.65,2.98-2.6,4.89-2.6
					c1.97,0,3.76,1.02,4.81,2.72c1.19,1.95,1.9,5.19,0.62,7.68c-0.6,1.18-1.9,2.63-4.67,2.86C91.02,82.17,90.75,82.18,90.5,82.18z"
					/>
				<path class="st1" d="M90.53,69.38c1.71,0,3.38,0.85,4.38,2.49c2.01,3.29,2.01,9.32-3.66,9.78c-0.26,0.02-0.51,0.03-0.75,0.03
					c-6.23,0-6.75-6.73-4.46-9.9C87.2,70.16,88.88,69.38,90.53,69.38L90.53,69.38z M90.53,68.38
					C90.53,68.38,90.53,68.38,90.53,68.38c-2.08,0-4.01,1.02-5.3,2.81c-1.64,2.27-1.91,5.7-0.65,8.16c1.1,2.15,3.2,3.33,5.92,3.33
					c0.27,0,0.55-0.01,0.83-0.03c3-0.24,4.41-1.83,5.07-3.13c1.36-2.67,0.62-6.1-0.64-8.17C94.63,69.49,92.67,68.38,90.53,68.38
					L90.53,68.38z"/>
			</g>
			<circle class="st3" cx="90.64" cy="77.62" r="2.8"/>
		</g>
		<g>
			<path class="st3" d="M81.32,88.74c0,0,0.69-0.44,1.19-0.31s0.94,1.5-0.31,1.88S80.82,89.31,81.32,88.74z"/>
			<path class="st3" d="M85.91,88.74c0,0,0.69-0.44,1.19-0.31s0.94,1.5-0.31,1.88S85.41,89.31,85.91,88.74z"/>
		</g>
		<path class="st2" d="M89.32,100.27c0,0,1.08,2.75,2.67,2.5c1.58-0.25,0.08-4,0.08-4L89.32,100.27z"/>
		<g>
			<g>
				<path class="st4" d="M107.19,146.62c-0.09,0-0.17-0.01-0.26-0.03c-0.33-0.09-0.59-0.34-0.7-0.66L94.9,110.25
					c-0.12-0.38-0.01-0.79,0.29-1.05l29.33-26c0.22-0.19,0.51-0.28,0.8-0.24c0.29,0.04,0.55,0.21,0.7,0.45l18.17,28.33
					c0.26,0.41,0.19,0.95-0.16,1.27l-36.17,33.33C107.68,146.52,107.43,146.62,107.19,146.62z M97,110.27l10.66,33.55l34.39-31.7
					l-17.08-26.64L97,110.27z"/>
			</g>
			<polygon class="st5" points="96.01,108.67 107.34,144.33 143.35,111.51 125.19,83.18 			"/>
			<path class="st2" d="M98.85,110.16c0,0.5,10.17,31.02,10.17,31.02l5.83,1.17l-10.83-30.5L98.85,110.16z"/>
			<polygon class="st5" points="95.4,109.18 124.73,83.18 131.4,83.84 148.06,113.84 115.4,143.84 103.56,111.84 			"/>
			<g>
				<path class="st4" d="M106.85,110.34c-0.26,0-0.52-0.1-0.71-0.3c-0.39-0.4-0.38-1.03,0.02-1.41l22.83-22.33
					c0.39-0.39,1.03-0.38,1.41,0.02c0.39,0.4,0.38,1.03-0.02,1.41l-22.83,22.33C107.36,110.25,107.11,110.34,106.85,110.34z"/>
			</g>
			<g>
				<path class="st4" d="M115.85,144.84c-0.08,0-0.16-0.01-0.23-0.03c-0.32-0.08-0.59-0.31-0.7-0.63l-11.67-31.55l-7.71-2.52
					c-0.34-0.11-0.6-0.4-0.67-0.75c-0.07-0.35,0.05-0.71,0.32-0.95l29.33-26c0.21-0.18,0.49-0.27,0.76-0.25l6.67,0.67
					c0.33,0.03,0.62,0.22,0.77,0.51l16.67,30c0.22,0.4,0.14,0.91-0.2,1.22l-32.67,30C116.34,144.75,116.1,144.84,115.85,144.84z
					 M97.82,108.77l6.51,2.13c0.29,0.09,0.52,0.32,0.63,0.6l11.32,30.6l30.99-28.46l-16.03-28.85l-5.71-0.57L97.82,108.77z"/>
			</g>
		</g>
		<g>
			<path class="st0" d="M113.77,92c3.96,7.91,4.37,8.73,9.78,21.82c-1.52,1.17-9.75,2.62-8.64,4.19c0.56,0.79,6.34,1.18,8.18,1.29
				c2.01,6.81,5.28,11.31,7.33,10.22c2.05-1.09,0.86-5.78,0.41-6.82c0.71,1.3,4.77,5.59,7.23,3c2.19-2.31-1.38-5.23-2.46-6.55
				c0.91,1.25,6.41,2.73,6.68,0c0.27-2.73-3.82-3.82-9.55-8.59c-4.12-3.43-10.71-20.02-21.49-29.15
				C112.46,85.76,113.77,92,113.77,92z"/>
			<g>
				<path class="st1" d="M113.12,91.66c3.55,7.09,6.67,14.31,9.7,21.64c0.11-0.28,0.23-0.56,0.34-0.85c-1.39,0.99-3.41,1.3-5,1.83
					c-1.19,0.4-3.39,0.89-3.98,2.17c-1.31,2.85,7.54,2.79,8.9,2.87c-0.24-0.18-0.48-0.37-0.72-0.55c0.81,2.68,1.83,5.39,3.38,7.75
					c0.84,1.27,2.07,2.95,3.71,3.16c3.89,0.49,2.93-5.86,2.09-7.91c-0.46,0.19-0.91,0.39-1.37,0.58c1.29,2.22,4.77,5.26,7.5,3.84
					c1.55-0.81,2.16-2.54,1.57-4.15c-0.61-1.66-2.01-2.83-3.11-4.14c-0.63-0.74-1.67,0.32-1.06,1.06c1.47,1.79,6.63,2.9,7.77,0.25
					c1.38-3.19-3.58-5.55-5.55-6.89c-1.79-1.23-3.72-2.46-5.12-4.15c-1.01-1.22-1.85-2.59-2.68-3.94c-2.3-3.72-4.46-7.53-6.88-11.19
					c-3.09-4.69-6.55-9.23-10.84-12.9c-0.55-0.47-1.47-0.03-1.25,0.73c0.98,3.5,1.79,7.05,2.53,10.6c0.2,0.94,1.64,0.54,1.45-0.4
					c-0.74-3.55-1.56-7.1-2.53-10.6c-0.42,0.24-0.84,0.49-1.25,0.73c6.67,5.72,11.24,13.38,15.7,20.84c1.5,2.51,2.95,5.16,4.87,7.38
					c2.5,2.89,6.2,4.39,9.06,6.85c0.89,0.77,2.08,2.56,0.16,2.9c-1.29,0.23-3.5-0.23-4.37-1.29c-0.35,0.35-0.71,0.71-1.06,1.06
					c0.78,0.92,1.69,1.73,2.33,2.75c0.72,1.14,0.9,2.86-0.77,3.28c-1.91,0.48-4.29-1.9-5.16-3.39c-0.41-0.71-1.7-0.23-1.37,0.58
					c0.42,1.03,1.63,7.02-0.87,5.88c-1.26-0.57-2.14-2.13-2.79-3.27c-1.15-2.01-1.96-4.19-2.63-6.41c-0.1-0.33-0.39-0.53-0.72-0.55
					c-1.7-0.1-3.41-0.22-5.11-0.45c-0.74-0.1-1.53-0.41-2.26-0.46c-0.08-0.01-0.23-0.14-0.29-0.14c0.12-0.01,0.13,0.35,0.09,0.35
					c0.03,0,0.43-0.33,0.47-0.36c2.4-1.48,5.63-1.38,7.94-3.02c0.25-0.17,0.48-0.53,0.34-0.85c-3.08-7.45-6.25-14.79-9.85-22
					C113.98,90.04,112.69,90.8,113.12,91.66z"/>
			</g>
		</g>
		<path class="st2" d="M73.07,100.6c0,0-0.79,2.73,0.33,3.42c1.5,0.92,2.67-2.5,2.67-2.5L73.07,100.6z"/>
		<g>
			<path class="st3" d="M81.45,102.47c-7.03,0-12.75-3.97-13.01-4.15c-0.17-0.12-0.21-0.35-0.09-0.52c0.12-0.17,0.35-0.21,0.52-0.09
				c0.07,0.05,6.73,4.66,14.25,3.93c7.52-0.73,13.2-7.06,13.26-7.13c0.14-0.15,0.37-0.17,0.53-0.03c0.16,0.14,0.17,0.37,0.03,0.53
				c-0.24,0.27-5.94,6.62-13.74,7.37C82.6,102.45,82.02,102.47,81.45,102.47z"/>
		</g>
		<circle class="st2" cx="73.19" cy="76.9" r="0.82"/>
		<circle class="st2" cx="89.44" cy="77.72" r="0.82"/>
		<g>
			<polygon class="st6" points="90.59,51.89 128.38,58.95 99.38,34.11 61.38,26.93 			"/>
			<path class="st4" d="M70.22,29.46l11.81,7.43c0,0,22.19,0.82,28.98,18.19c7.46,1.13,17.99,3.65,17.99,3.65l-29-24.84L70.22,29.46
				z"/>
			<g>
				<path class="st7" d="M129.27,59.89c-0.22,0-0.44-0.07-0.62-0.22L98.84,36.1L61.75,27.6c-0.31-0.07-0.56-0.28-0.69-0.57
					c-0.13-0.29-0.11-0.62,0.04-0.89l1.13-2.03c0.21-0.38,0.64-0.57,1.06-0.5l37.54,7.13c0.17,0.03,0.33,0.11,0.46,0.22l29.75,25.26
					c0.37,0.32,0.46,0.85,0.21,1.27l-1.13,1.89c-0.15,0.25-0.39,0.42-0.68,0.47C129.39,59.88,129.33,59.89,129.27,59.89z
					 M63.49,25.95l36.02,8.25c0.15,0.03,0.28,0.1,0.4,0.19l29.09,23l0.11-0.19l-28.9-24.54l-36.57-6.95L63.49,25.95z"/>
			</g>
			<polygon class="st4" points="63.08,24 100.62,31.13 130.37,56.39 129.24,58.28 99.26,34.57 61.94,26.03 			"/>
			<g>
				<path class="st7" d="M129,59.74c-0.06,0-0.12-0.01-0.18-0.02l-37.79-7.06c-0.17-0.03-0.33-0.11-0.47-0.22L61.35,27.47
					c-0.34-0.29-0.45-0.78-0.25-1.19c0.2-0.41,0.64-0.64,1.09-0.55l38.01,7.18c0.17,0.03,0.33,0.11,0.46,0.22l29,24.84
					c0.34,0.29,0.45,0.78,0.25,1.19C129.74,59.52,129.38,59.74,129,59.74z M91.66,50.74l33.86,6.33L99.55,34.83L65.5,28.39
					L91.66,50.74z"/>
			</g>
			<g>
				<path class="st8" d="M129.93,74.83l-3.5,0.16l-0.09-2c-0.04-0.97,0.7-1.78,1.67-1.83l0,0c0.97-0.04,1.78,0.7,1.83,1.67
					L129.93,74.83z"/>
				<path class="st8" d="M129.98,75.12l-3.5,0.16l-2.1,19.62c0,0,1.32,1.52,4.82,1.36c3.5-0.16,4.67-1.8,4.67-1.8L129.98,75.12z"/>
			</g>
			<path class="st6" d="M68.03,46.04c0,0,14.91,14.61,16.7,16.24c5.46,1.72,23.71,5.72,23.71,5.72l2.58-12.92
				c0,0-3.46-8.3-13.16-13.71c-8.62-4.46-16.76-4.72-20.56-4.24C75.97,38.35,68.03,46.04,68.03,46.04z"/>
			<g>
				<g>
					<path class="st7" d="M126.47,75.53c-0.27,0-0.49-0.21-0.5-0.48l-0.09-2c-0.06-1.24,0.91-2.29,2.14-2.35
						c1.26-0.06,2.29,0.91,2.35,2.14l0.09,2c0.01,0.28-0.2,0.51-0.48,0.52l-3.5,0.16C126.48,75.53,126.48,75.53,126.47,75.53z
						 M128.12,71.71c-0.02,0-0.04,0-0.06,0c-0.69,0.03-1.22,0.62-1.19,1.31l0.07,1.5l2.5-0.11l-0.07-1.5
						C129.34,72.23,128.79,71.71,128.12,71.71z"/>
				</g>
				<g>
					<path class="st7" d="M128.69,96.78c-3.31,0-4.63-1.48-4.69-1.55c-0.09-0.1-0.13-0.24-0.12-0.38l2.1-19.62
						c0.03-0.25,0.23-0.44,0.47-0.45l3.5-0.16c0.24-0.03,0.46,0.16,0.51,0.4l3.89,19.34c0.03,0.14,0,0.28-0.08,0.39
						c-0.05,0.08-1.36,1.84-5.06,2.01C129.04,96.77,128.86,96.78,128.69,96.78z M124.9,94.71c0.41,0.33,1.71,1.18,4.27,1.06
						c2.56-0.12,3.78-1.08,4.16-1.45l-3.76-18.68l-2.64,0.12L124.9,94.71z"/>
				</g>
				<g>
					<path class="st7" d="M132.03,96.2c-0.25,0-0.46-0.18-0.49-0.43l-2.9-20.53c-0.04-0.27,0.15-0.53,0.43-0.56
						c0.28-0.04,0.53,0.15,0.56,0.43l2.9,20.53c0.04,0.27-0.15,0.53-0.43,0.56C132.08,96.2,132.05,96.2,132.03,96.2z"/>
				</g>
				<g>
					<path class="st7" d="M129.19,96.77c-0.27,0-0.49-0.21-0.5-0.48l-0.97-21.18c-0.01-0.28,0.2-0.51,0.48-0.52
						c0.28-0.02,0.51,0.2,0.52,0.48l0.97,21.18c0.01,0.28-0.2,0.51-0.48,0.52C129.21,96.77,129.2,96.77,129.19,96.77z"/>
				</g>
				<g>
					<path class="st7" d="M126.31,96.46c-0.01,0-0.02,0-0.02,0c-0.28-0.01-0.49-0.25-0.48-0.52l0.99-20.83
						c0.01-0.28,0.25-0.49,0.52-0.48c0.28,0.01,0.49,0.25,0.48,0.52l-0.99,20.83C126.8,96.25,126.58,96.46,126.31,96.46z"/>
				</g>
			</g>
			<g>
				<path class="st7" d="M128.04,71.71c-0.27,0-0.49-0.21-0.5-0.48l-0.57-12.4c-0.01-0.28,0.2-0.51,0.48-0.52
					c0.28-0.01,0.51,0.2,0.52,0.48l0.57,12.4c0.01,0.28-0.2,0.51-0.48,0.52C128.06,71.71,128.05,71.71,128.04,71.71z"/>
			</g>
			<path class="st4" d="M97.97,41.71l-12.5,21l22,5l3.54-12.63C111.01,55.08,103.47,44.21,97.97,41.71z"/>
			<g>
				<path class="st7" d="M108.44,69c-0.07,0-0.14-0.01-0.21-0.02c-0.75-0.16-18.35-4.04-23.8-5.75c-0.14-0.04-0.27-0.12-0.37-0.21
					c-1.78-1.62-16.12-15.67-16.72-16.26c-0.19-0.19-0.3-0.45-0.3-0.72c0-0.27,0.11-0.53,0.3-0.72c0.32-0.31,7.97-7.71,9.28-8.92
					c0.15-0.14,0.35-0.23,0.55-0.26c1.71-0.21,10.77-1.01,21.14,4.35c9.92,5.53,13.48,13.86,13.63,14.21
					c0.08,0.18,0.1,0.39,0.06,0.58l-2.58,12.92c-0.05,0.26-0.21,0.49-0.43,0.64C108.82,68.94,108.63,69,108.44,69z M85.24,61.39
					c4.83,1.48,18.59,4.57,22.42,5.42l2.31-11.6c-0.68-1.43-4.3-8.33-12.61-12.96c-9.29-4.8-17.42-4.39-19.63-4.16
					c-1.47,1.38-6.39,6.14-8.27,7.96C72.4,48.92,83.2,59.49,85.24,61.39z"/>
			</g>
		</g>
	</g>
	<g>
		<g>
			<path class="st4" d="M175.17,71.29c0.01-0.51,0.04-1.24,0.08-2.18c0.01-0.23,0.01-0.47,0-0.72c-0.01-0.25-0.01-0.49,0-0.72
				l0.28-3.89c0.09-2.02,0.27-4.06,0.56-6.11c0.28-2.05,0.62-4.07,1.02-6.06c0.31-1.6,0.67-3.03,1.07-4.3c0.41-1.27,0.99-2.6,1.75-4
				c0.54-1,1.15-1.77,1.84-2.31c1.58-1.27,3.52-1.9,5.79-1.9c1.65,0,3.58,0.36,5.78,1.07c2.2,0.71,3.96,1.61,5.27,2.71
				c0.12,0.11,0.22,0.19,0.31,0.25c0.09,0.05,0.19,0.13,0.31,0.21l2.59,2.66c-0.03-0.03,0.13,0.17,0.48,0.62
				c0.08,0.11,0.15,0.21,0.22,0.29c0.07,0.09,0.16,0.19,0.25,0.3c0.45,0.61,1.03,1.45,1.73,2.52c0.71,1.07,1.32,1.84,1.85,2.32
				l0.61,0.48c0.23,0.15,0.49,0.23,0.77,0.23c0.49,0,0.93-0.4,1.32-1.2c0.39-0.8,0.69-1.41,0.91-1.82c0.15-0.29,0.29-0.59,0.41-0.88
				c0.12-0.29,0.25-0.6,0.39-0.93c0.68-1.51,1.38-2.88,2.12-4.13c0.73-1.24,1.72-2.46,2.95-3.65c1.94-1.86,4.18-3.05,6.72-3.58
				c2.15-0.44,4.01-0.31,5.58,0.38c0.07,0.03,0.13,0.07,0.21,0.1c0.07,0.03,0.15,0.07,0.22,0.1c0.29,0.16,0.43,0.24,0.41,0.23
				l1.48,1.07c0.58,0.58,0.98,1.04,1.21,1.39c0.57,0.84,1.02,1.71,1.35,2.59c0.33,0.89,0.65,1.82,0.94,2.8
				c0.35,1.19,0.68,2.85,0.98,4.99c0.3,2.13,0.48,3.86,0.55,5.17c0.02,0.57,0.07,1.15,0.15,1.76c0.08,0.6,0.12,1.19,0.13,1.75
				c0,0.81,0.04,1.62,0.13,2.44c0.09,0.81,0.13,1.63,0.13,2.45l0.13,2.49c0.12,0.82,0.16,1.65,0.13,2.49
				c-0.03,0.84,0,1.66,0.08,2.44c0.03,0.35,0.04,0.77,0.03,1.25s-0.02,0.9-0.02,1.26c0,2.53-0.07,5.71-0.22,9.55
				c-0.15,3.84-1.11,6.65-2.88,8.42c-1.35,1.34-3.29,1.84-5.85,1.49c-2.55-0.35-4.47-1.36-5.75-3.03c-1.24-1.62-1.86-3.71-1.88-6.26
				c-0.02-2.55,0.02-4.8,0.12-6.73c0.08-1.62,0.33-4.22,0.76-7.81s0.47-6.04,0.12-7.37c-0.27-1-0.95-1.2-2.02-0.62
				c-0.44,0.24-0.96,0.63-1.57,1.17c-0.61,0.54-1.09,0.99-1.44,1.34l-0.48,0.44c-0.02,0.02-0.04,0.03-0.05,0.03l-0.03,0.03
				l-0.02,0.02l-3.12,2.67c-0.1,0.08-0.37,0.26-0.8,0.56c-2.03,1.4-3.87,2.03-5.5,1.9c-1.63-0.13-3.41-1.02-5.35-2.66
				c-0.72-0.59-1.54-1.34-2.47-2.24s-1.7-1.7-2.32-2.39c-0.31-0.34-0.75-0.77-1.33-1.3c-0.58-0.53-1.09-0.8-1.54-0.8
				c-0.77,0-1.07,1-0.91,2.99c0.16,1.99,0.25,3.19,0.29,3.61l0.41,4.02c0.02,0.19,0.04,0.38,0.05,0.57c0.01,0.2,0.03,0.36,0.05,0.49
				l0.3,3.07c0.17,2.37,0.19,4.97,0.05,7.8c-0.14,2.83-0.75,5.21-1.82,7.16c-0.26,0.46-0.65,0.99-1.17,1.6
				c-0.52,0.61-1,1.04-1.44,1.3c-1.54,0.93-3.15,1.36-4.82,1.28c-1.67-0.08-3.15-0.77-4.43-2.07l-0.84-0.98l-0.69-1.03
				c-0.12-0.21-0.22-0.41-0.29-0.61l-0.75-1.87c-0.52-1.54-0.91-3.28-1.15-5.22c-0.24-1.94-0.39-3.92-0.46-5.93V71.29z"/>
			<path class="st4" d="M265.05,91.31c-1.78-0.04-3.4-0.26-4.86-0.66c-1.67-0.43-3.08-0.95-4.23-1.57
				c-1.15-0.62-2.41-1.46-3.79-2.53c-0.39-0.29-0.91-0.78-1.55-1.45c-0.64-0.67-1.11-1.22-1.42-1.65c-0.43-0.56-0.86-1.13-1.3-1.72
				s-0.82-1.22-1.15-1.9c-0.37-0.74-0.71-1.39-1-1.95s-0.6-1.3-0.9-2.21c-0.36-1.05-0.62-1.81-0.76-2.29s-0.33-1.29-0.55-2.44
				c-0.29-1.4-0.47-2.57-0.52-3.52c-0.05-0.95-0.08-2.13-0.08-3.55c0-1.55,0.2-3.3,0.59-5.23s0.92-3.57,1.59-4.89
				c0.21-0.42,0.56-1.09,1.05-2.02l1.25-1.84c0.39-0.56,1-1.27,1.83-2.12c0.83-0.86,1.48-1.47,1.96-1.85l3.63-2.53
				c2.97-1.76,6.42-2.92,10.35-3.46c0.73-0.1,1.68-0.16,2.83-0.17s2.11,0.02,2.86,0.11c0.51,0.08,0.97,0.13,1.37,0.17
				c0.4,0.04,0.84,0.1,1.34,0.19c3.31,0.62,6.24,1.8,8.78,3.54c1.94,1.34,3.58,3.14,4.92,5.37s2.36,4.49,3.03,6.75
				c0.62,2.13,1.03,3.96,1.23,5.5c0.2,1.53,0.29,3.45,0.29,5.76c0,1.53-0.24,3.26-0.72,5.2c-0.48,1.94-1.06,3.58-1.74,4.94
				c-0.46,0.94-0.83,1.63-1.1,2.07c-0.22,0.33-0.42,0.65-0.61,0.95c-0.19,0.31-0.39,0.61-0.62,0.9l-1.43,1.74
				c-0.46,0.59-0.97,1.13-1.54,1.62c-0.57,0.49-1.13,0.95-1.69,1.4c-0.04,0.03-0.07,0.05-0.09,0.07s-0.04,0.03-0.07,0.07
				c0,0.01,0,0.02-0.02,0.02l-0.02,0.01c-0.49,0.42-1.09,0.82-1.79,1.22s-1.33,0.74-1.89,1.01c-3.71,1.86-7.73,2.84-12.07,2.95
				H265.05z M263.01,68.45c0.63,1.7,1.38,3.25,2.23,4.66l1.94,2.56c0.69,0.7,1.6,1.39,2.72,2.06s2.16,0.45,3.1-0.68l0.16-0.2
				c0.25-0.36,0.49-0.87,0.71-1.53c0.82-2.46,0.86-5.93,0.13-10.42s-1.71-7.96-2.92-10.42l-0.97-1.54l-0.33-0.41
				c-0.25-0.26-0.57-0.51-0.95-0.74c-1.21-0.72-2.31-0.63-3.29,0.26c-0.98,0.9-1.71,1.9-2.21,3.02c-0.54,1.25-0.88,2.47-1.04,3.68
				c-0.16,1.21-0.24,2.54-0.24,3.99C262.06,64.86,262.38,66.75,263.01,68.45z"/>
			<path class="st4" d="M297.57,67.92c0.01-0.35,0.04-0.78,0.08-1.28c0.01-0.09,0.02-0.53,0.02-1.31c0-0.26,0.01-0.46,0.04-0.6
				s0.05-0.32,0.06-0.55c0.03-1.22,0.11-2.41,0.22-3.54c0.12-1.14,0.25-2.31,0.4-3.51c0.23-1.92,0.59-4.02,1.08-6.29
				s1.17-4.26,2.02-5.96c0.68-1.34,1.37-2.37,2.07-3.07c0.5-0.48,0.96-0.88,1.38-1.18c1.28-0.92,2.71-1.34,4.28-1.26
				c1.58,0.08,3.02,0.46,4.35,1.15c0.91,0.47,1.88,1.18,2.91,2.14c1.03,0.96,1.86,1.83,2.49,2.63l1.15,1.41
				c-0.07-0.09,0.03,0.03,0.28,0.34c0.08,0.11,0.16,0.23,0.25,0.36l1.1,1.46c0.1,0.14,0.19,0.26,0.26,0.36
				c0.08,0.1,0.16,0.21,0.26,0.34l2.13,3.02c0.52,0.78,1.47,2.05,2.84,3.81c1.37,1.77,2.44,2.65,3.22,2.65
				c0.66,0,1.07-0.82,1.24-2.45c0.17-1.63,0.26-2.7,0.27-3.19l0.08-1.67c0-0.21,0.01-0.34,0.03-0.4c0.02-0.06,0.04-0.19,0.07-0.39
				v-0.89c0.05-0.51,0.1-1.05,0.13-1.6c0.03-0.55,0.09-1.1,0.16-1.63c0.19-1.28,0.42-2.47,0.71-3.56s0.84-2.07,1.66-2.92l0.95-0.8
				c2.22-1.44,4.42-1.37,6.59,0.21c0.85,0.62,1.47,1.43,1.85,2.42c0.38,0.99,0.66,1.99,0.84,3.01c0.14,0.92,0.24,1.5,0.28,1.76
				c0.09,0.64,0.19,1.58,0.32,2.81c0.13,1.23,0.19,2.15,0.19,2.76c0,0.25,0.01,0.43,0.03,0.55c0.02,0.12,0.04,0.26,0.05,0.43
				l0.36,8.74c-0.02,3.66-0.07,7.27-0.13,10.82c-0.07,3.55-0.42,7.08-1.07,10.59c-0.45,2.47-1.13,4.47-2.05,5.99
				c-0.71,1.18-1.56,2.08-2.56,2.69s-2.26,0.71-3.81,0.28c-0.46-0.12-0.88-0.29-1.26-0.5c-0.38-0.21-0.76-0.42-1.13-0.63
				c-0.43-0.22-0.95-0.57-1.56-1.05c-0.61-0.48-1.09-0.9-1.43-1.26l-2.21-2.3c-0.1-0.1-0.17-0.17-0.21-0.21s-0.11-0.13-0.21-0.26
				c-0.09-0.1-0.16-0.17-0.22-0.23c-0.06-0.05-0.13-0.13-0.21-0.23l-1.16-1.48c-0.49-0.69-1-1.37-1.51-2.04
				c-0.51-0.67-0.98-1.38-1.41-2.11c-0.13-0.2-0.25-0.38-0.36-0.53c-0.11-0.16-0.22-0.34-0.33-0.55l-2.59-4.56
				c-0.69-1.38-1.39-2.75-2.12-4.13s-1.39-2.78-2.02-4.2c-0.07-0.12-0.12-0.21-0.16-0.28c-0.04-0.07-0.09-0.16-0.15-0.28l-0.57-1.2
				c-0.22-0.4-0.32-0.6-0.31-0.57l-0.62-1.15c-0.88-1.5-1.55-2.06-2.03-1.67c-0.48,0.38-0.71,1.38-0.71,3
				c0,3.24,0.51,7.3,1.53,12.18s1.14,8.64,0.35,11.26c-0.28,0.98-0.66,1.78-1.13,2.39c-1.25,1.65-3.09,2.37-5.54,2.14
				c-2.44-0.22-4.44-1.42-6-3.6c-1.58-2.17-2.6-5.07-3.08-8.7c-0.48-3.64-0.72-6.89-0.72-9.75V67.92z"/>
			<path class="st4" d="M395.04,73.7c-0.03,1.42-0.2,2.98-0.49,4.68c-0.07,0.29-0.15,0.63-0.25,1c-0.1,0.37-0.19,0.7-0.27,0.98
				c-0.45,1.44-0.95,2.56-1.52,3.35s-1.26,1.68-2.09,2.67l-0.77,0.72c-0.89,0.85-2.05,1.61-3.49,2.27
				c-1.44,0.66-2.73,1.18-3.88,1.57c-1.64,0.55-3.33,0.91-5.06,1.09s-3.48,0.27-5.24,0.27c-4.33,0-8.39-1.04-12.17-3.13
				c-0.12-0.07-0.22-0.12-0.3-0.17l-0.29-0.17c-1.07-0.62-2.09-1.37-3.07-2.25c-0.2-0.16-0.34-0.32-0.44-0.46
				c-0.1-0.14-0.23-0.3-0.39-0.46c-1.44-1.51-1.94-3.2-1.5-5.08c0.44-1.88,1.54-3.4,3.29-4.54c1.08-0.72,2.23-1.04,3.44-0.95
				c1.21,0.09,2.42,0.34,3.65,0.75c1.31,0.46,2.77,1.15,4.38,2.08s3.15,1.68,4.63,2.25c2.02,0.81,3.77,1,5.25,0.57
				c1.48-0.43,2.54-1.11,3.21-2.04c0.66-0.93,0.85-1.94,0.56-3.02c-0.29-1.08-1.19-1.87-2.7-2.37c-0.61-0.2-1.51-0.37-2.71-0.52
				s-2.11-0.24-2.76-0.27c-4.42-0.21-7.93-0.84-10.55-1.89c-0.28-0.1-0.65-0.26-1.1-0.48c-0.44-0.2-0.63-0.28-0.57-0.26
				c-2.17-1.14-4.03-2.6-5.59-4.4c-0.62-0.72-1.08-1.34-1.36-1.86c-0.29-0.52-0.62-1.19-1.02-2.01c-0.52-1.07-0.85-2.14-0.98-3.2
				c-0.13-1.06-0.2-2.18-0.2-3.36c0-1.16,0.22-2.36,0.67-3.62c0.45-1.25,0.92-2.24,1.41-2.96c1.43-2.12,3.23-3.94,5.38-5.46
				c0.11-0.08,0.22-0.14,0.33-0.2s0.23-0.13,0.36-0.23c0.91-0.59,2.1-1.17,3.58-1.74c1.65-0.66,3.21-1.05,4.67-1.18
				c1.46-0.13,3.09-0.2,4.88-0.2c2.11,0,4.62,0.44,7.52,1.32c2.9,0.88,5.16,2.11,6.77,3.7l0.9,0.8c0.67,0.8,1.29,1.74,1.87,2.82
				c0.58,1.08,0.57,2.17-0.03,3.25c-0.73,1.3-2.05,2.06-3.94,2.29c-1.9,0.22-3.5,0.11-4.81-0.34c-1.18-0.37-2.35-0.91-3.51-1.62
				c-0.17-0.1-0.35-0.19-0.52-0.29s-0.36-0.2-0.54-0.32c-1.29-0.78-2.56-1.36-3.82-1.75s-2.59-0.17-3.99,0.67
				c-0.5,0.32-1.06,0.79-1.68,1.41c-0.62,0.62-0.93,1.28-0.93,1.97c0,1.29,1.02,2.27,3.07,2.94c2.04,0.67,3.57,1.12,4.58,1.36
				c1.29,0.34,2.85,0.73,4.69,1.18c1.37,0.35,2.55,0.66,3.54,0.92c1,0.26,2.13,0.6,3.4,1c0.71,0.25,1.42,0.54,2.13,0.87
				c1.15,0.57,2.07,1.14,2.77,1.71l0.72,0.67c0.33,0.37,0.56,0.62,0.68,0.75c0.13,0.13,0.34,0.43,0.63,0.93
				c0.34,0.61,0.63,1.29,0.87,2.03c0.44,1.43,0.68,3.06,0.74,4.89V73.7z"/>
			<path class="st4" d="M402.17,41.03c1.18-0.96,2.54-1.66,4.09-2.12c2.87-0.82,5.75-1.21,8.65-1.16s5.82,0.07,8.75,0.06l4.45,0.21
				c0.66,0.1,1.35,0.16,2.08,0.2c0.73,0.03,1.45,0.1,2.17,0.2c2.3,0.33,4.67,0.86,7.14,1.58c2.46,0.73,4.26,2.22,5.41,4.49
				c0.67,1.36,1,3.03,1,5.01c0,1.98-0.58,3.56-1.75,4.72c-1.07,1.05-2.25,1.58-3.54,1.59s-2.57-0.04-3.85-0.16s-2.51-0.08-3.67,0.11
				c-1.16,0.19-2.15,0.98-2.96,2.37c-0.73,1.25-1.25,3.02-1.57,5.32c-0.31,2.3-0.56,4.19-0.75,5.67c-0.07,0.47-0.11,0.97-0.14,1.48
				c-0.03,0.52-0.07,1.04-0.14,1.55l-0.26,2.97c-0.03,1.18-0.23,3.2-0.58,6.06c-0.36,2.86-0.63,4.8-0.83,5.82
				c-0.32,1.52-0.9,3.13-1.74,4.84s-2.2,2.56-4.07,2.56c-1.46,0-2.67-0.56-3.61-1.69c-0.94-1.13-1.65-2.3-2.12-3.51
				c-0.46-1.14-0.8-2.59-1.03-4.36c-0.23-1.56-0.38-3.28-0.45-5.13c-0.07-1.86-0.1-3.58-0.09-5.15c0-0.29,0.02-0.52,0.05-0.66
				c0.03-0.15,0.05-0.37,0.05-0.66c0-0.22,0-0.44-0.01-0.66c0-0.22-0.01-0.44-0.01-0.67l0.1-2.56c0-0.9,0.03-1.77,0.1-2.62
				c0.07-0.85,0.1-1.71,0.1-2.6c0-0.31,0.01-0.54,0.04-0.69s0.05-0.37,0.06-0.64c0-0.21-0.01-0.43-0.02-0.67
				c-0.01-0.23-0.01-0.46,0.02-0.66c0.05-0.69,0.08-1.44,0.08-2.24v-2.32c0-1.67-0.23-2.64-0.69-2.9c-0.46-0.26-1.15-0.43-2.07-0.51
				c-0.63-0.04-1.08-0.07-1.33-0.07c-0.25,0-0.72-0.08-1.41-0.23c-1.98-0.41-3.71-1.27-5.19-2.61c-1.48-1.33-2.22-3.12-2.22-5.36
				C400.41,43.38,401,41.99,402.17,41.03z"/>
			<path class="st4" d="M493.06,85.74c-0.43,0.7-0.86,1.21-1.29,1.53c-0.93,0.72-2.04,1.36-3.35,1.9c-1.54,0.69-3.44,1.27-5.69,1.75
				s-4.22,0.87-5.89,1.17c-1.38,0.24-2.61,0.41-3.7,0.51c-1.09,0.1-2.3,0.2-3.65,0.31c-1.21,0.11-2.56,0.13-4.04,0.07
				c-1.48-0.06-2.73-0.26-3.76-0.62c-2.34-0.78-4.02-2.36-5.04-4.76s-1.75-4.71-2.19-6.91l-0.92-5.22c-0.16-0.9-0.33-2.11-0.48-3.63
				c-0.16-1.53-0.29-2.78-0.39-3.76c-0.11-1.2-0.21-2.45-0.3-3.74c-0.09-1.29-0.18-2.56-0.27-3.8l-0.26-7.92
				c0.07-1.76,0.13-3.96,0.2-6.59c0.07-2.63,0.95-4.5,2.66-5.61c0.65-0.42,1.4-0.74,2.26-0.98s1.7-0.43,2.49-0.56
				c2.78-0.44,5.88-0.85,9.3-1.24c3.42-0.39,6.56-0.51,9.4-0.37c1.87,0.1,3.43,0.21,4.68,0.32c1.25,0.12,2.74,0.54,4.47,1.29
				c1.2,0.54,2.29,1.45,3.25,2.76c0.21,0.32,0.34,0.55,0.41,0.69c0.61,1.32,0.89,2.59,0.84,3.79c-0.07,1.07-0.37,1.8-0.91,2.17
				c-0.54,0.38-1.22,0.7-2.03,0.98c-1.44,0.49-3.89,0.83-7.33,1c-3.45,0.17-6.41,0.64-8.89,1.39c-0.13,0.04-0.27,0.08-0.42,0.12
				c-0.15,0.04-0.29,0.08-0.44,0.12c-0.13,0.04-0.26,0.1-0.39,0.16c-0.13,0.06-0.26,0.11-0.39,0.14c-0.82,0.29-1.55,0.71-2.18,1.23
				c-0.75,0.63-1.38,1.46-1.87,2.48s-0.34,1.91,0.44,2.67c0.54,0.54,1.29,0.75,2.25,0.65c0.97-0.1,1.77-0.22,2.4-0.34
				c2.12-0.42,4.3-0.83,6.54-1.24c2.24-0.41,4.41-0.02,6.5,1.16c0.57,0.33,1.06,0.71,1.48,1.15c0.77,0.85,0.92,1.7,0.46,2.53
				l-0.56,0.67c-0.01,0-0.02,0.01-0.03,0.02s-0.02,0.02-0.03,0.02c-0.05,0.05-0.1,0.1-0.15,0.13l-0.26,0.2
				c-1.51,1.02-3.87,1.94-7.09,2.77c-3.22,0.83-5.67,1.86-7.36,3.08c-0.96,0.69-1.63,1.35-2.02,1.99c-0.67,1.03-1.02,2.01-1.07,2.95
				c-0.1,1.75,0.34,3.05,1.31,3.89c1.18,1.03,2.83,1.18,4.96,0.44c2.13-0.73,3.8-1.31,5.03-1.74c1.31-0.43,2.2-0.74,2.67-0.94
				c0.47-0.2,1.46-0.49,2.99-0.86c0.84-0.2,1.76-0.26,2.76-0.21c1,0.06,1.86,0.36,2.58,0.91c0.58,0.44,1.1,1.03,1.58,1.77
				c1.06,1.75,1.53,3.82,1.41,6.2C493.72,84.38,493.49,85.04,493.06,85.74z"/>
			<path class="st4" d="M499.82,60.53c0.21-1.94,0.46-3.82,0.77-5.64c0.59-3.58,1.62-6.79,3.08-9.63c0.19-0.35,0.39-0.68,0.6-0.99
				c0.21-0.31,0.42-0.64,0.63-0.98c0.22-0.35,0.54-0.75,0.98-1.2s0.8-0.85,1.11-1.2c0-0.01,0.01-0.03,0.03-0.05
				c0.29-0.32,0.74-0.71,1.38-1.17c0.63-0.46,1.13-0.81,1.49-1.02c3.16-1.87,6.46-2.81,9.91-2.81c1.78,0,3.54,0.09,5.28,0.27
				c1.74,0.18,3.4,0.62,4.97,1.32c0.62,0.28,1.17,0.54,1.64,0.77c0.94,0.47,1.84,1.13,2.69,1.98c0.17,0.2,0.37,0.39,0.58,0.59
				c0.21,0.2,0.4,0.39,0.57,0.59c0.96,1.2,1.84,2.78,2.63,4.73s1.36,3.66,1.71,5.11c0.29,1.31,0.47,2.25,0.52,2.82
				s0.08,1.49,0.08,2.77c0,1.94-0.54,3.42-1.62,4.47c-1.08,1.04-2.27,2.06-3.58,3.04l-1.38,1.15c-1.65,1.67-2.15,3.29-1.49,4.85
				s1.48,3.26,2.48,5.09c0.11,0.23,0.22,0.43,0.33,0.6c0.11,0.17,0.23,0.35,0.36,0.55c0.15,0.23,0.28,0.43,0.38,0.59l0.15,0.29
				c0.03,0.07,0.09,0.15,0.16,0.26c0.89,1.44,1.7,2.78,2.44,4c0.74,1.22,1.43,2.63,2.07,4.2c0.82,2.07,0.83,3.83,0.03,5.28
				c-0.28,0.52-0.77,1.05-1.44,1.57c-1.38,1.04-3.06,1.51-5.06,1.43c-2-0.09-3.71-0.62-5.16-1.59c-0.49-0.33-0.73-0.5-0.71-0.51
				s-0.13-0.16-0.45-0.46c-0.27-0.23-0.63-0.62-1.07-1.16c-1.14-1.38-2.07-3.04-2.8-4.99c-0.73-1.95-1.36-3.76-1.91-5.43
				c-0.23-0.68-0.65-1.76-1.25-3.25s-1.25-2.23-1.94-2.23c-0.79,0-1.3,0.83-1.53,2.48c-0.23,1.66-0.4,2.9-0.5,3.72
				c-0.15,1.22-0.3,2.44-0.43,3.64s-0.33,2.37-0.58,3.51c-0.54,2.46-1.43,4.31-2.69,5.54c-1.79,1.77-3.83,2.27-6.1,1.49
				c-2.37-0.79-3.99-2.68-4.86-5.68c-0.87-3-1.51-5.71-1.91-8.13c-0.23-1.29-0.38-2.54-0.46-3.76c-0.08-1.21-0.18-2.42-0.31-3.61
				c-0.09-0.7-0.13-1.88-0.12-3.54s0.01-2.87,0.01-3.63C499.51,64.49,499.61,62.46,499.82,60.53z M523.8,57.88
				c1.07-2.45,0.64-4.43-1.3-5.94c-0.78-0.59-1.78-1.08-3-1.47c-1.22-0.39-2.08,0.12-2.56,1.53c-0.44,1.25-0.6,3.15-0.48,5.71
				c0.12,2.56,1.07,3.84,2.84,3.84C521.23,61.56,522.73,60.33,523.8,57.88z"/>
			<path class="st1" d="M209.43,151.46c-0.36,0.58-0.72,1.01-1.07,1.27c-0.77,0.6-1.7,1.13-2.79,1.59
				c-1.29,0.57-2.87,1.06-4.74,1.46c-1.88,0.4-3.51,0.72-4.91,0.97c-1.15,0.2-2.18,0.34-3.08,0.42s-1.92,0.17-3.04,0.26
				c-1.01,0.09-2.13,0.11-3.36,0.06c-1.23-0.05-2.27-0.22-3.13-0.51c-1.95-0.65-3.35-1.97-4.2-3.97c-0.85-2-1.46-3.92-1.83-5.76
				l-0.77-4.35c-0.14-0.75-0.27-1.76-0.4-3.03s-0.24-2.32-0.32-3.14c-0.09-1-0.18-2.04-0.25-3.12c-0.08-1.08-0.15-2.13-0.23-3.17
				l-0.22-6.6c0.05-1.47,0.11-3.3,0.16-5.5c0.05-2.2,0.79-3.75,2.21-4.68c0.54-0.35,1.17-0.62,1.89-0.82s1.41-0.36,2.08-0.46
				c2.32-0.36,4.9-0.71,7.75-1.03s5.46-0.43,7.83-0.31c1.56,0.08,2.86,0.17,3.9,0.27s2.29,0.45,3.73,1.07c1,0.45,1.91,1.21,2.71,2.3
				c0.17,0.26,0.29,0.46,0.34,0.57c0.51,1.1,0.74,2.16,0.7,3.16c-0.05,0.89-0.31,1.5-0.76,1.81s-1.01,0.59-1.69,0.81
				c-1.2,0.41-3.24,0.69-6.11,0.83c-2.87,0.14-5.34,0.53-7.41,1.16c-0.11,0.04-0.23,0.07-0.35,0.1c-0.12,0.03-0.24,0.07-0.36,0.1
				c-0.11,0.04-0.22,0.08-0.33,0.13c-0.11,0.05-0.22,0.09-0.33,0.12c-0.68,0.25-1.29,0.59-1.82,1.03c-0.63,0.53-1.15,1.22-1.56,2.07
				c-0.41,0.85-0.29,1.59,0.37,2.22c0.45,0.45,1.07,0.63,1.88,0.54c0.81-0.09,1.47-0.18,2-0.28c1.77-0.35,3.59-0.69,5.46-1.03
				c1.87-0.34,3.67-0.02,5.41,0.96c0.47,0.27,0.88,0.59,1.23,0.96c0.64,0.71,0.77,1.41,0.38,2.11l-0.46,0.56
				c-0.01,0-0.02,0-0.03,0.01c-0.01,0.01-0.02,0.01-0.03,0.01c-0.05,0.04-0.09,0.08-0.12,0.11l-0.22,0.16
				c-1.26,0.85-3.23,1.62-5.91,2.31c-2.68,0.69-4.73,1.55-6.13,2.57c-0.8,0.57-1.36,1.13-1.68,1.65c-0.56,0.86-0.85,1.68-0.89,2.46
				c-0.08,1.46,0.28,2.54,1.09,3.24c0.98,0.86,2.36,0.98,4.14,0.37c1.77-0.61,3.17-1.09,4.19-1.45c1.09-0.36,1.84-0.62,2.23-0.79
				c0.39-0.17,1.22-0.41,2.49-0.72c0.7-0.16,1.47-0.22,2.3-0.17c0.83,0.05,1.55,0.3,2.15,0.76c0.48,0.36,0.92,0.86,1.31,1.48
				c0.88,1.46,1.28,3.18,1.18,5.17C209.99,150.32,209.79,150.87,209.43,151.46z"/>
			<path class="st1" d="M214.86,115.96c0.31-1.59,0.82-2.66,1.53-3.22s1.8-0.97,3.27-1.22c1.24-0.22,2.64-0.33,4.21-0.33l4.84,0.03
				c0.22,0.03,0.46,0.04,0.73,0.03s0.53,0.01,0.79,0.03l2.88,0.22c0.23,0.01,0.47,0.03,0.73,0.07s0.5,0.06,0.72,0.08
				c1.53,0.16,3.52,0.43,5.96,0.81s4.28,0.93,5.51,1.67c1.18,0.72,2.06,1.44,2.62,2.16s1.15,1.65,1.76,2.79
				c0.46,0.88,0.86,1.79,1.19,2.76c0.33,0.96,0.63,1.94,0.92,2.93c0.14,0.47,0.24,0.88,0.3,1.22c0.1,0.45,0.2,0.87,0.29,1.27
				c0.09,0.4,0.18,0.83,0.26,1.29c0.3,1.8,0.48,3.09,0.54,3.86s0.09,2.04,0.09,3.81c0,3.14-0.83,6.14-2.47,9
				c-0.55,0.97-0.94,1.62-1.18,1.94c-0.39,0.52-0.76,1.01-1.11,1.48c-0.35,0.47-0.76,0.94-1.24,1.42l-0.38,0.38l-0.38,0.38
				c-0.79,0.79-1.94,1.69-3.45,2.69c-2.15,1.42-4.85,2.53-8.1,3.34c-3.25,0.8-6.13,1.2-8.63,1.2c-2.11,0-3.78-0.53-5-1.57
				c-1.22-1.05-2.19-2.43-2.91-4.14c-0.04-0.07-0.18-0.43-0.44-1.08c-0.9-2.3-1.64-5.21-2.21-8.74c-0.57-3.53-1-6.51-1.29-8.95
				c-0.04-0.25-0.06-0.47-0.07-0.68c-0.01-0.21-0.03-0.44-0.05-0.7l-0.55-7.03l-0.07-4.94C214.47,118.64,214.6,117.23,214.86,115.96
				z M233.93,133.13c0.87,3.57,1.72,6.23,2.56,7.99c0.06,0.14,0.15,0.31,0.26,0.53c-0.03-0.05,0.05,0.1,0.25,0.48
				c0.99,1.89,1.84,2.16,2.53,0.83c0.69-1.33,1.21-2.53,1.54-3.57c1.1-3.44,1.18-6.83,0.25-10.19c-0.19-0.67-0.41-1.26-0.65-1.78
				s-0.51-1.06-0.81-1.61c-0.19-0.35-0.52-0.82-0.98-1.42c-0.46-0.6-0.85-1.03-1.17-1.3c-0.53-0.44-1.3-0.92-2.32-1.44
				s-1.8-0.28-2.34,0.71c-0.25,0.46-0.38,0.95-0.39,1.46c-0.01,0.51-0.02,1.03-0.02,1.54C232.63,126.97,233.06,129.56,233.93,133.13
				z"/>
			<path class="st1" d="M289.29,112.35c1.06,0.11,2.11,0.65,3.14,1.63c0.54,0.53,1.07,1.25,1.59,2.16c0.93,1.67,1.59,3.86,1.98,6.56
				c0.35,2.49,0.4,5.18,0.16,8.07c-0.24,2.89-0.59,5.42-1.06,7.59c-0.2,0.93-0.49,2.06-0.88,3.4c-0.38,1.34-0.76,2.41-1.12,3.23
				c-0.49,1.08-0.83,1.79-1,2.12s-0.61,1.01-1.29,2.05l-1.56,1.86l-0.03,0.03l-0.01,0.01l-1.56,1.31c-0.24,0.16-0.45,0.32-0.65,0.46
				c-0.2,0.14-0.41,0.29-0.64,0.42c-2.45,1.4-5.32,2.13-8.61,2.19h-0.6c-3.78-0.05-6.88-0.99-9.28-2.82
				c-0.06-0.05-0.35-0.28-0.86-0.7l-0.78-0.78c-0.03-0.04-0.16-0.17-0.38-0.4l-0.94-1.3c-0.31-0.45-0.51-0.77-0.6-0.96
				c-0.09-0.18-0.18-0.34-0.26-0.48s-0.17-0.3-0.26-0.49c-0.63-1.3-1.18-2.8-1.65-4.48c-0.12-0.41-0.23-0.81-0.34-1.19
				s-0.21-0.78-0.31-1.19c-0.26-1.07-0.58-2.66-0.94-4.77c-0.36-2.12-0.66-4.33-0.88-6.64c-0.22-2.32-0.31-4.52-0.27-6.6
				c0.04-2.09,0.34-3.63,0.91-4.64c0.68-1.23,1.94-1.85,3.76-1.85c1.18,0,2.15,0.14,2.93,0.41s1.49,0.89,2.13,1.85
				c0.22,0.34,0.42,0.78,0.59,1.32c0.17,0.54,0.31,1.01,0.41,1.42c0.21,0.92,0.38,2.23,0.53,3.92s0.25,3.05,0.33,4.07
				c0.12,1.6,0.29,3.21,0.52,4.83c0.23,1.62,0.68,3.17,1.37,4.64c0.6,1.33,1.26,2.35,1.98,3.06c1.13,1.13,2.31,1.7,3.53,1.7
				c0.76,0,1.39-0.23,1.9-0.68s0.91-0.94,1.19-1.46c0.63-1.17,1.07-2.46,1.33-3.88c0.11-0.66,0.27-1.82,0.47-3.49
				c0.21-1.67,0.31-2.86,0.32-3.56l0.31-4.89c0.06-0.91,0.14-1.7,0.22-2.35c0.16-1.56,0.34-3.03,0.53-4.41
				c0.19-1.38,0.64-2.75,1.34-4.12l0.83-1.12c0.05-0.06,0.16-0.16,0.31-0.3c0.47-0.45,1.02-0.7,1.63-0.77H289.29z"/>
			<path class="st1" d="M316.92,156.5c-2.3-0.82-4.43-1.87-6.4-3.13c-0.12-0.07-0.4-0.26-0.83-0.56c-0.57-0.43-1.21-0.96-1.89-1.59
				c-0.69-0.63-1.23-1.23-1.63-1.8c-0.11-0.14-0.21-0.27-0.31-0.38c-0.1-0.12-0.2-0.25-0.3-0.4c-1.28-1.73-2.29-3.63-3.04-5.69
				c-0.75-2.06-1.27-4.15-1.57-6.28c-0.61-4.35-0.06-8.24,1.65-11.69c0.16-0.3,0.31-0.59,0.48-0.87c0.16-0.28,0.34-0.57,0.52-0.87
				c0.14-0.25,0.52-0.77,1.14-1.57c0.62-0.8,1.05-1.32,1.26-1.54l2.15-2.05c0.22-0.22,0.47-0.43,0.75-0.64
				c0.31-0.24,0.44-0.34,0.4-0.3l2.9-1.93c0.7-0.38,1.33-0.69,1.87-0.93c2.26-0.94,4.67-1.44,7.23-1.52s4.98,0.35,7.28,1.27
				c1.97,0.79,3.75,2.07,5.36,3.83c1.6,1.76,2.19,3.78,1.75,6.06c-0.3,1.49-0.82,2.61-1.56,3.34c-0.63,0.63-1.17,1-1.62,1.11
				c-0.45,0.12-1.09,0.15-1.91,0.1c-0.89-0.03-2.03-0.2-3.42-0.51c-1.39-0.31-2.76-0.22-4.13,0.28c-1.78,0.64-3.3,1.48-4.57,2.52
				l-1.29,1.12c-0.35,0.36-0.54,0.55-0.58,0.59c-0.04,0.04-0.21,0.25-0.51,0.66c-1.23,1.65-1.58,3.29-1.05,4.92
				c0.19,0.58,0.49,1.26,0.9,2.02c0.41,0.76,0.84,1.35,1.3,1.76c1.91,1.76,4.25,2.23,7.03,1.41l2.15-0.72
				c0.44-0.14,1.11-0.42,2.02-0.85c0.17-0.08,0.33-0.16,0.47-0.22c0.14-0.06,0.3-0.14,0.49-0.23l2.8-1.46
				c0.16-0.1,0.33-0.19,0.49-0.25s0.32-0.15,0.49-0.25c0.51-0.3,0.81-0.47,0.89-0.52c0.1-0.05,0.19-0.09,0.27-0.13
				s0.16-0.08,0.25-0.13c0.94-0.46,1.89-0.89,2.86-1.31c0.97-0.42,1.98-0.12,3.04,0.89c1.26,1.2,2.05,2.69,2.37,4.47
				s0.15,3.49-0.51,5.13c-0.73,1.79-1.9,3.32-3.51,4.59c-1.61,1.26-3.25,2.31-4.92,3.15c-3.15,1.58-6.38,2.37-9.69,2.37
				C321.65,157.73,319.22,157.32,316.92,156.5z"/>
			<path class="st1" d="M350.24,145.46c0.64-2.93,1.11-5.04,1.42-6.34c0.19-0.89,0.46-1.87,0.8-2.93c0.34-1.06,0.65-2.04,0.94-2.92
				c0.28-0.88,0.7-2.01,1.24-3.38s1.02-2.49,1.43-3.36c0.45-0.96,0.89-1.91,1.33-2.87s0.93-1.9,1.46-2.83
				c0.05-0.11,0.1-0.21,0.15-0.31s0.1-0.2,0.16-0.32l1.41-2.37c0.37-0.55,0.62-0.91,0.74-1.09s0.4-0.56,0.85-1.13l2.41-2.19
				c0.6-0.39,1.22-0.69,1.86-0.9c1.43-0.47,2.96-0.59,4.58-0.36c2.12,0.31,3.93,1.25,5.41,2.83c0.62,0.67,1.11,1.29,1.46,1.86
				c1.18,1.91,2.11,3.81,2.78,5.7l0.88,2.49c0.38,1.2,0.71,2.3,0.98,3.28c0.27,0.98,0.58,2.08,0.92,3.28
				c0.49,1.79,0.94,3.64,1.34,5.55s0.77,3.79,1.12,5.65c0.27,1.48,0.45,2.77,0.54,3.89c0.09,1.12,0.13,2.42,0.13,3.92
				c0,3.05-1.09,5.2-3.28,6.44c-2.28,1.3-4.4,0.89-6.37-1.23c-0.5-0.53-0.94-1.05-1.32-1.57c-0.38-0.51-0.79-1.07-1.22-1.66
				l-2.09-2.95c-0.06-0.08-0.12-0.15-0.16-0.19c-0.04-0.05-0.09-0.12-0.16-0.22l-0.97-1.19c-0.9-0.9-1.66-1.33-2.28-1.29
				c-0.62,0.04-1.31,0.48-2.1,1.31c-0.11,0.11-0.19,0.21-0.25,0.3c-0.06,0.09-0.13,0.19-0.23,0.3c-0.41,0.46-0.96,1.2-1.65,2.19
				s-1.27,1.75-1.76,2.26c-0.47,0.5-0.92,0.97-1.33,1.4c-0.41,0.43-0.92,0.85-1.53,1.25c-1.23,0.81-2.58,1.34-4.06,1.59
				c-1.48,0.25-2.86-0.07-4.16-0.98c-0.36-0.25-0.55-0.38-0.57-0.41s-0.14-0.15-0.39-0.37c-0.95-0.83-1.42-2.03-1.42-3.6
				C349.27,150.58,349.59,148.39,350.24,145.46z M369.82,136.88c0.49-0.27,0.89-0.82,1.19-1.63c0.46-1.22,0.63-2.79,0.51-4.7
				s-0.51-3.37-1.2-4.38c-0.42-0.58-0.87-0.88-1.34-0.88c-0.85,0-1.42,0.63-1.71,1.89c-0.29,1.26-0.44,2.24-0.44,2.92
				c0,0.87,0.01,1.75,0.03,2.67c0.02,0.91,0.14,1.76,0.36,2.56c0.32,1.18,0.93,1.76,1.83,1.76
				C369.29,137.1,369.55,137.03,369.82,136.88z"/>
			<path class="st1" d="M392.61,114.19c0.98-0.8,2.12-1.39,3.41-1.77c2.39-0.68,4.79-1,7.21-0.96s4.85,0.06,7.29,0.05l3.71,0.18
				c0.55,0.08,1.13,0.14,1.74,0.16s1.21,0.08,1.8,0.16c1.91,0.27,3.9,0.71,5.95,1.32s3.55,1.85,4.51,3.74
				c0.56,1.13,0.83,2.52,0.83,4.18s-0.49,2.96-1.46,3.93c-0.89,0.88-1.88,1.32-2.95,1.33c-1.07,0.01-2.14-0.04-3.21-0.14
				c-1.07-0.1-2.09-0.07-3.06,0.09c-0.97,0.16-1.79,0.82-2.47,1.98c-0.61,1.04-1.05,2.52-1.31,4.44c-0.26,1.92-0.47,3.49-0.62,4.72
				c-0.05,0.39-0.09,0.8-0.12,1.24c-0.02,0.43-0.06,0.86-0.12,1.29l-0.22,2.47c-0.03,0.98-0.19,2.67-0.49,5.05
				c-0.3,2.38-0.53,4-0.69,4.85c-0.26,1.27-0.75,2.61-1.45,4.03s-1.83,2.13-3.39,2.13c-1.22,0-2.22-0.47-3.01-1.41
				c-0.78-0.94-1.37-1.91-1.76-2.93c-0.38-0.95-0.67-2.16-0.86-3.64c-0.19-1.3-0.32-2.73-0.38-4.28c-0.06-1.55-0.08-2.98-0.08-4.29
				c0-0.25,0.01-0.43,0.04-0.55s0.04-0.31,0.04-0.55c0-0.18,0-0.37-0.01-0.55c0-0.18-0.01-0.37-0.01-0.56l0.08-2.13
				c0-0.75,0.03-1.47,0.08-2.18c0.05-0.71,0.08-1.43,0.08-2.17c0-0.26,0.01-0.45,0.03-0.57c0.02-0.13,0.04-0.31,0.05-0.53
				c0-0.17,0-0.36-0.01-0.55c-0.01-0.2,0-0.38,0.01-0.55c0.05-0.57,0.07-1.2,0.07-1.87v-1.93c0-1.39-0.19-2.2-0.57-2.42
				s-0.96-0.36-1.72-0.42c-0.53-0.04-0.9-0.05-1.11-0.05s-0.6-0.06-1.18-0.19c-1.65-0.34-3.09-1.06-4.33-2.17
				c-1.24-1.11-1.85-2.6-1.85-4.47C391.14,116.15,391.63,114.99,392.61,114.19z"/>
			<path class="st1" d="M433.82,126.22c0.25-2.52,0.69-4.75,1.31-6.69c0.03-0.1,0.06-0.22,0.1-0.35c0.04-0.13,0.08-0.26,0.13-0.38
				c0.93-2.64,2.25-4.73,3.95-6.25c0.24-0.21,0.62-0.48,1.16-0.82c1.01-0.6,2.04-0.9,3.08-0.9c1.56,0,2.73,0.59,3.5,1.77
				s1.3,2.43,1.57,3.74c0.55,2.61,0.84,5.55,0.88,8.84c0.04,3.29,0.02,6.33-0.06,9.14c-0.01,0.21-0.03,0.37-0.05,0.48
				c-0.02,0.12-0.03,0.29-0.03,0.54l-0.63,9.24c-0.07,0.79-0.18,1.78-0.32,2.96c-0.14,1.18-0.28,2.12-0.42,2.82
				c-0.29,1.47-0.76,3.14-1.4,5.01s-1.95,2.81-3.92,2.81c-0.84,0-1.48-0.06-1.92-0.19s-1.01-0.42-1.7-0.88
				c-1.2-0.79-2.11-1.95-2.73-3.47s-1.09-2.94-1.42-4.26c-0.22-0.89-0.48-2.34-0.77-4.33c-0.3-1.99-0.44-3.46-0.44-4.39
				c0-0.22-0.01-0.38-0.04-0.47s-0.04-0.26-0.04-0.48l-0.15-6.69C433.44,131.02,433.57,128.75,433.82,126.22z"/>
			<path class="st1" d="M472.79,156.1c-1.49-0.04-2.83-0.22-4.05-0.55c-1.39-0.36-2.57-0.79-3.53-1.31
				c-0.96-0.51-2.01-1.22-3.16-2.11c-0.33-0.25-0.76-0.65-1.29-1.21s-0.93-1.02-1.18-1.37c-0.36-0.46-0.72-0.94-1.08-1.44
				s-0.68-1.02-0.96-1.59c-0.31-0.62-0.59-1.16-0.83-1.63s-0.5-1.08-0.75-1.85c-0.3-0.88-0.51-1.51-0.64-1.91s-0.28-1.07-0.46-2.03
				c-0.25-1.17-0.39-2.14-0.44-2.93c-0.05-0.79-0.07-1.78-0.07-2.96c0-1.29,0.16-2.75,0.49-4.36c0.33-1.61,0.77-2.97,1.33-4.07
				c0.17-0.35,0.46-0.91,0.88-1.68l1.04-1.53c0.33-0.46,0.84-1.05,1.52-1.77c0.69-0.71,1.23-1.23,1.63-1.54l3.02-2.11
				c2.48-1.47,5.35-2.43,8.63-2.88c0.61-0.08,1.4-0.13,2.36-0.14s1.76,0.02,2.39,0.09c0.43,0.06,0.81,0.11,1.14,0.14
				s0.7,0.08,1.11,0.16c2.76,0.52,5.2,1.5,7.31,2.95c1.61,1.12,2.98,2.61,4.1,4.48c1.12,1.87,1.96,3.74,2.53,5.63
				c0.52,1.78,0.86,3.3,1.03,4.58c0.16,1.28,0.25,2.88,0.25,4.8c0,1.28-0.2,2.72-0.6,4.33s-0.88,2.98-1.45,4.12
				c-0.38,0.78-0.69,1.36-0.92,1.72c-0.18,0.27-0.35,0.54-0.51,0.79c-0.16,0.25-0.33,0.51-0.52,0.75l-1.19,1.45
				c-0.38,0.49-0.81,0.94-1.29,1.35c-0.47,0.41-0.94,0.79-1.41,1.17c-0.04,0.03-0.06,0.04-0.08,0.05c-0.01,0.01-0.03,0.03-0.06,0.05
				c0,0.01,0,0.02-0.01,0.02l-0.01,0.01c-0.41,0.35-0.91,0.69-1.49,1.02c-0.58,0.33-1.11,0.61-1.57,0.84
				c-3.09,1.55-6.44,2.37-10.06,2.46H472.79z M471.09,137.05c0.53,1.41,1.15,2.71,1.86,3.88l1.61,2.13
				c0.57,0.58,1.33,1.15,2.27,1.71s1.8,0.37,2.58-0.57l0.14-0.16c0.21-0.3,0.41-0.72,0.59-1.27c0.68-2.05,0.72-4.95,0.11-8.68
				c-0.61-3.74-1.42-6.63-2.43-8.68l-0.81-1.29l-0.27-0.34c-0.21-0.22-0.47-0.42-0.79-0.62c-1.01-0.6-1.93-0.53-2.74,0.22
				c-0.82,0.75-1.43,1.59-1.84,2.52c-0.45,1.04-0.74,2.06-0.87,3.07c-0.13,1.01-0.2,2.12-0.2,3.33
				C470.3,134.05,470.56,135.63,471.09,137.05z"/>
			<path class="st1" d="M499.89,136.61c0.01-0.29,0.03-0.65,0.07-1.07c0.01-0.07,0.01-0.44,0.01-1.09c0-0.22,0.01-0.38,0.03-0.5
				c0.02-0.11,0.04-0.27,0.05-0.46c0.03-1.02,0.09-2.01,0.18-2.95c0.1-0.95,0.21-1.92,0.33-2.93c0.19-1.61,0.49-3.35,0.9-5.24
				c0.41-1.89,0.97-3.55,1.68-4.97c0.57-1.12,1.14-1.97,1.72-2.56c0.42-0.4,0.8-0.73,1.15-0.98c1.07-0.77,2.26-1.12,3.57-1.05
				s2.52,0.38,3.62,0.96c0.76,0.39,1.57,0.99,2.43,1.78s1.55,1.53,2.07,2.19l0.96,1.18c-0.05-0.07,0.02,0.02,0.23,0.29
				c0.06,0.09,0.13,0.19,0.21,0.3l0.92,1.22c0.08,0.12,0.16,0.22,0.22,0.3s0.14,0.18,0.22,0.29l1.78,2.52
				c0.44,0.65,1.23,1.71,2.37,3.18c1.14,1.47,2.03,2.21,2.68,2.21c0.55,0,0.89-0.68,1.03-2.04c0.14-1.36,0.22-2.25,0.23-2.66
				l0.07-1.39c0-0.17,0.01-0.29,0.03-0.34c0.02-0.05,0.04-0.16,0.05-0.32v-0.74c0.05-0.43,0.08-0.87,0.11-1.33
				c0.03-0.46,0.07-0.91,0.14-1.36c0.16-1.07,0.35-2.06,0.59-2.97s0.7-1.72,1.38-2.43l0.79-0.67c1.85-1.2,3.68-1.14,5.5,0.18
				c0.71,0.52,1.23,1.19,1.54,2.02s0.55,1.66,0.7,2.51c0.12,0.77,0.2,1.25,0.23,1.46c0.07,0.54,0.16,1.32,0.27,2.34
				s0.16,1.79,0.16,2.3c0,0.21,0.01,0.36,0.03,0.46s0.03,0.22,0.04,0.36l0.3,7.29c-0.02,3.05-0.05,6.06-0.11,9.02
				c-0.05,2.96-0.35,5.9-0.89,8.83c-0.37,2.06-0.94,3.72-1.71,4.99c-0.59,0.98-1.3,1.73-2.13,2.24c-0.83,0.51-1.89,0.59-3.17,0.23
				c-0.38-0.1-0.73-0.24-1.05-0.42s-0.63-0.35-0.94-0.53c-0.36-0.18-0.79-0.47-1.3-0.88c-0.51-0.4-0.91-0.75-1.19-1.05l-1.85-1.91
				c-0.08-0.08-0.14-0.14-0.17-0.18c-0.03-0.04-0.09-0.11-0.17-0.22c-0.07-0.08-0.13-0.15-0.18-0.19c-0.05-0.05-0.11-0.11-0.17-0.19
				l-0.97-1.23c-0.41-0.57-0.83-1.14-1.26-1.7s-0.82-1.15-1.18-1.76c-0.11-0.16-0.21-0.31-0.3-0.45c-0.09-0.13-0.18-0.29-0.27-0.46
				l-2.16-3.8c-0.57-1.15-1.16-2.3-1.76-3.45s-1.16-2.32-1.68-3.5c-0.05-0.1-0.1-0.18-0.14-0.23s-0.08-0.13-0.12-0.23l-0.48-1
				c-0.18-0.34-0.27-0.5-0.26-0.48l-0.52-0.96c-0.73-1.25-1.29-1.71-1.69-1.39c-0.4,0.32-0.59,1.15-0.59,2.5
				c0,2.7,0.43,6.08,1.28,10.15c0.85,4.07,0.95,7.2,0.29,9.39c-0.24,0.82-0.55,1.48-0.94,2c-1.04,1.38-2.58,1.97-4.61,1.78
				c-2.04-0.19-3.7-1.19-5-3c-1.31-1.8-2.17-4.22-2.57-7.25c-0.4-3.03-0.6-5.74-0.6-8.13V136.61z"/>
		</g>
		<g>
			<path class="st2" d="M191.51,73.48c0.35,0.3,0.39,2.19,0.14,5.68c-0.26,3.5-0.45,5.61-0.58,6.33c-0.4,2.04-0.96,3.62-1.68,4.74
				c-0.33,0.47-0.83,1.01-1.52,1.62c-0.68,0.61-1.4,1-2.15,1.15l1.82-1.46c1.76-1.48,2.7-4,2.82-7.56c0.12-3.57,0.16-6.44,0.11-8.61
				c-0.01-0.18-0.02-0.45-0.04-0.82c-0.01-0.38,0.01-0.63,0.06-0.77C190.66,73.16,190.99,73.06,191.51,73.48z"/>
			<path class="st2" d="M199.58,46.42c0.69,0.69,1.14,1.42,1.34,2.19l-1.78-1.93c-1.49-1.41-3.4-2.79-5.72-4.13
				c-2.33-1.34-4.59-1.68-6.78-1.04c-0.71,0.22-1.49,0.55-2.32,0.99c-0.84,0.45-1.33,0.67-1.47,0.67c-0.88,0-1.05-0.35-0.51-1.05
				c0.21-0.29,0.97-0.67,2.28-1.15s2.33-0.76,3.07-0.82c1.64-0.15,3.45,0.28,5.43,1.31c1.99,1.03,3.52,2.06,4.59,3.1
				C198.27,45.12,198.89,45.74,199.58,46.42z"/>
			<path class="st2" d="M221.39,72.4c0.5-0.28,0.8-0.13,0.91,0.42c0.02,0.14,0.01,0.36-0.02,0.68c-0.03,0.33-0.05,0.57-0.05,0.72
				c-0.13,1.35-0.24,2.79-0.34,4.3c-0.09,1.5-0.1,2.92-0.04,4.24c0.1,2.14,0.36,3.74,0.77,4.82c0.41,1.08,1.27,2.27,2.6,3.58
				c-1.25-0.45-2.25-1.41-2.99-2.9c-0.61-1.18-1.02-2.77-1.23-4.76c-0.16-1.47-0.23-2.92-0.2-4.34c0.02-1.41,0.07-2.86,0.14-4.35
				c0.01-0.36,0.01-0.82,0.02-1.36C220.97,72.9,221.11,72.55,221.39,72.4z"/>
			<path class="st2" d="M223.67,37.69c0.23-0.21,0.74-0.28,1.52-0.22c0.78,0.07,1.34,0.14,1.68,0.2c2.98,0.66,4.96,3.14,5.94,7.46
				c0.99,4.31,1.41,7.64,1.28,9.99c-0.18-0.38-0.39-1.32-0.61-2.82c-0.22-1.49-0.39-2.56-0.52-3.18c-0.68-3.19-1.48-5.51-2.4-6.95
				c-0.91-1.43-1.82-2.39-2.71-2.86l-2.43-0.54c-0.73,0.11-1.24,0.1-1.53-0.02C223.25,38.51,223.18,38.16,223.67,37.69z"/>
		</g>
		<g>
			<path class="st2" d="M538.96,134.94c-0.17,0.07-0.26,0.27-0.26,0.61l-0.28,4.81c-0.08,1.36-0.23,3.45-0.44,6.28
				c-0.22,2.84-0.5,4.83-0.86,5.97c-0.27,0.86-0.69,1.57-1.25,2.14c-0.41,0.4-0.79,0.69-1.16,0.89c-0.37,0.19-0.64,0.36-0.8,0.53
				c0.38-0.08,0.78-0.25,1.2-0.49c0.42-0.25,0.76-0.47,1.03-0.66c0.9-0.67,1.51-1.82,1.82-3.47c0.31-1.65,0.54-3.05,0.68-4.2
				c0.19-1.47,0.36-3,0.51-4.61c0.14-1.6,0.28-3.16,0.39-4.66c0.02-0.28,0.08-0.83,0.17-1.63c0.09-0.81,0.05-1.29-0.11-1.45
				C539.42,134.83,539.2,134.81,538.96,134.94z"/>
			<path class="st2" d="M521.26,126.1c-0.77-1.17-1.48-2.24-2.12-3.19c-0.63-0.95-1.39-1.98-2.28-3.1
				c-0.13-0.17-0.29-0.36-0.46-0.56c-0.28-0.3-0.53-0.59-0.77-0.86c-0.24-0.28-0.49-0.56-0.76-0.83c-0.43-0.38-0.82-0.72-1.15-1
				c-1.64-1.24-3.05-1.71-4.23-1.42s-2.44,1.01-3.78,2.16c-0.17,0.14-0.36,0.31-0.58,0.53c-0.19,0.27-0.17,0.51,0.05,0.73
				c0.22,0.23,0.5,0.2,0.83-0.07c0.09-0.08,0.17-0.17,0.24-0.25c0.06-0.09,0.15-0.18,0.26-0.28c0.41-0.34,0.9-0.74,1.47-1.19
				c0.57-0.46,1.23-0.71,1.99-0.76c1.12-0.05,2.19,0.35,3.21,1.19c1.01,0.85,1.75,1.51,2.21,1.97l3.78,4.76
				c0.3,0.41,0.6,0.82,0.9,1.24c0.29,0.41,0.59,0.82,0.89,1.23c0.19,0.25,0.5,0.67,0.95,1.26c0.44,0.59,0.76,0.97,0.95,1.12
				c-0.07-0.22-0.31-0.67-0.73-1.32C521.72,126.8,521.43,126.35,521.26,126.1z"/>
			<path class="st2" d="M507.19,154.26c-0.21-0.19-0.53-0.51-0.94-0.97c-0.28-0.29-0.42-0.44-0.42-0.45
				c-0.67-0.85-1.2-1.61-1.61-2.3c-0.41-0.68-0.8-1.64-1.17-2.88c-0.65-2.17-1.01-4.25-1.08-6.25c-0.06-1.99-0.15-4.15-0.27-6.48
				c-0.21,0.59-0.33,1.65-0.36,3.16c-0.03,1.51-0.03,2.62,0,3.32c0.12,2.44,0.49,4.78,1.11,7.04s1.77,4.26,3.46,5.99
				c0.08,0.09,0.16,0.17,0.23,0.23c0.06,0.06,0.14,0.13,0.22,0.21l0.89,0.89c0.32,0.36,0.61,0.42,0.86,0.17
				c0.26-0.24,0.23-0.53-0.09-0.87C507.68,154.71,507.4,154.43,507.19,154.26z"/>
			<path class="st2" d="M492.06,127.4c-0.08-0.52-0.2-0.83-0.37-0.94c-0.41-0.27-0.68-0.19-0.82,0.24c-0.05,0.17,0.02,0.7,0.21,1.61
				c0.19,0.91,0.31,1.47,0.34,1.69c0.43,2.41,0.65,4.68,0.65,6.83c0.01,2.14-0.47,4.35-1.41,6.61c-1.53,3.61-3.9,6.4-7.13,8.37
				c-0.3,0.18-0.86,0.52-1.69,1.02c-0.82,0.5-1.32,0.84-1.49,1c0.97-0.26,2.11-0.8,3.4-1.64c1.3-0.84,2.33-1.58,3.09-2.22l1.86-1.94
				c2.44-3.05,3.81-6.13,4.09-9.24c0.28-3.11,0.1-6.52-0.55-10.24C492.2,128.29,492.13,127.92,492.06,127.4z"/>
			<path class="st2" d="M461.75,120.53l-1,1.04c-0.94,1.05-1.77,2.29-2.48,3.72c-1.63,3.23-2.21,6.55-1.77,9.96
				c0.45,3.41,1.3,6.76,2.54,10.04c0.1,0.25,0.28,0.77,0.57,1.58c0.29,0.81,0.48,1.27,0.58,1.39c0.2,0.26,0.44,0.31,0.7,0.15
				c0.26-0.15,0.34-0.41,0.23-0.77c-0.08-0.22-0.18-0.46-0.3-0.73s-0.22-0.52-0.3-0.76c-0.76-1.93-1.5-4.02-2.22-6.27
				c-0.72-2.24-1.07-4.55-1.07-6.92c0-2.47,0.54-4.91,1.62-7.33c1.09-2.41,2.47-4.32,4.16-5.71l1.68-1.43
				c0.3-0.25,0.59-0.5,0.87-0.73c0.28-0.23,0.55-0.47,0.83-0.73c-0.73,0.32-1.54,0.84-2.44,1.55
				C463.06,119.3,462.33,119.95,461.75,120.53z"/>
			<path class="st2" d="M539.69,87.63c-0.12-1.08-0.55-2.37-1.3-3.88c-0.74-1.51-1.39-2.72-1.95-3.63c-0.2-0.29-0.37-0.58-0.53-0.85
				s-0.33-0.56-0.5-0.85c-0.13-0.2-0.3-0.48-0.49-0.83c-0.2-0.36-0.45-0.54-0.74-0.54c-0.87,0.03-0.99,0.48-0.39,1.37
				c0.61,0.88,1.03,1.49,1.26,1.82c0.63,0.97,1.34,2.1,2.11,3.39c0.78,1.29,1.33,2.5,1.66,3.61c0.33,1.16,0.38,2.04,0.16,2.63
				c-0.23,0.6-0.44,1.21-0.65,1.85c0.53-0.24,0.91-0.79,1.14-1.63C539.69,89.23,539.77,88.42,539.69,87.63z"/>
			<path class="st2" d="M537.56,50.52c-0.43-1.4-0.84-2.54-1.22-3.42c-1.11-2.44-2.3-4.25-3.58-5.44c-1.59-1.44-3.53-2.5-5.84-3.2
				c-0.49-0.13-1.8-0.44-3.92-0.93c-2.12-0.49-3.33-0.58-3.62-0.29c-0.66,0.66-0.44,1.07,0.65,1.23c1.03,0.17,1.99,0.31,2.87,0.42
				c0.89,0.12,1.87,0.31,2.95,0.57c2.42,0.59,4.47,1.54,6.16,2.85c0.05,0.06,0.23,0.24,0.52,0.54c0.39,0.42,0.64,0.66,0.74,0.73
				c0.1,0.08,0.38,0.44,0.84,1.09c1.21,1.78,2.2,3.82,2.98,6.14c0.19,0.56,0.36,1.15,0.53,1.77c0.17,0.62,0.36,1.18,0.57,1.67
				C538.2,53.17,537.99,51.93,537.56,50.52z"/>
			<path class="st2" d="M508.73,93.53c-0.27-0.06-0.52-0.15-0.75-0.27c-1.09-0.53-1.99-1.69-2.68-3.48c-0.7-1.8-1.26-3.78-1.68-5.96
				c-0.42-2.17-0.73-4.32-0.93-6.43c-0.2-2.11-0.35-3.74-0.45-4.88c-0.04-0.27-0.06-0.58-0.09-0.96c-0.02-0.37-0.05-0.67-0.09-0.91
				c-0.2-0.88-0.59-1.03-1.17-0.45c-0.22,0.22-0.26,0.78-0.12,1.69c0.14,0.91,0.23,1.54,0.27,1.91c0.19,1.67,0.42,3.45,0.71,5.33
				c0.29,1.88,0.63,3.6,1.01,5.18c0.44,1.83,1.15,3.93,2.14,6.3s2.52,3.44,4.57,3.21C509.25,93.69,509.01,93.6,508.73,93.53z"/>
			<path class="st2" d="M448.15,123.6c-0.11-1.53-0.32-3.19-0.62-4.96c-0.31-1.78-0.9-3.27-1.79-4.47c-1.26-1.7-2.04-2.33-2.33-1.9
				c-0.28,0.42-0.32,0.75-0.1,0.98c0.39,0.43,0.81,0.83,1.25,1.21c0.44,0.38,0.88,1.08,1.32,2.11c0.68,1.66,1.15,3.95,1.39,6.87
				c0.25,2.92,0.38,5.3,0.4,7.15c0,0.65-0.02,2.04-0.07,4.15c-0.04,2.12-0.02,3.35,0.06,3.71c0.41-1.6,0.63-4.04,0.65-7.33
				C448.34,127.83,448.29,125.32,448.15,123.6z"/>
			<path class="st2" d="M441.12,156.69c-0.21-0.13-0.42-0.28-0.62-0.45c-1.15-0.91-2.04-2.08-2.68-3.53c-0.36-0.8-0.7-1.87-1.02-3.2
				c-0.11-0.44-0.27-1.07-0.46-1.91c-0.2-0.83-0.53-1.01-1.01-0.52c-0.29,0.3-0.1,1.3,0.56,3.02c0.66,1.71,1.1,2.78,1.33,3.21
				c0.42,0.8,1.04,1.63,1.87,2.47c0.82,0.84,1.71,1.29,2.67,1.35C441.54,156.97,441.33,156.83,441.12,156.69z"/>
			<path class="st2" d="M490.34,45.42c-0.23-0.39-0.59-0.95-1.08-1.67c-0.49-0.71-0.88-1.23-1.17-1.54
				c-1.57-1.69-3.59-2.72-6.07-3.09c-2.47-0.37-4.85-0.51-7.13-0.41c-2.32,0.12-4.65,0.38-7,0.76c-2.34,0.39-4.63,0.83-6.86,1.32
				c-0.45,0.1-1.22,0.26-2.3,0.48c-1.08,0.22-1.76,0.4-2.03,0.54c0.64,0,1.41-0.08,2.31-0.24c0.9-0.15,1.7-0.28,2.4-0.37
				c1.83-0.21,3.42-0.39,4.75-0.52c2.46-0.23,5.82-0.41,10.06-0.53c4.24-0.13,7.37,0.51,9.4,1.91c0.93,0.64,1.8,1.59,2.62,2.85
				c0.09,0.13,0.26,0.42,0.52,0.86c0.26,0.45,0.44,0.7,0.55,0.77c0.37,0.3,0.69,0.3,0.97-0.01
				C490.55,46.22,490.57,45.85,490.34,45.42z"/>
			<path class="st2" d="M475.4,89.63c-1.53,0.18-3.2,0.32-5.03,0.42c-1.82,0.11-3.51,0.06-5.07-0.15c-1.84-0.23-3.23-0.73-4.19-1.49
				c-0.9-0.73-1.67-1.79-2.29-3.2c-0.62-1.41-1.12-2.67-1.48-3.78c-0.1-0.28-0.21-0.63-0.33-1.05c-0.13-0.41-0.29-0.68-0.49-0.8
				c-0.37-0.2-0.67-0.16-0.9,0.11c-0.23,0.26-0.26,0.62-0.1,1.07c0.47,1.36,0.96,2.7,1.48,4.04c0.51,1.33,1.14,2.47,1.87,3.42
				c1.58,2.08,4.22,3.16,7.92,3.25c1.58,0.05,3.17-0.05,4.78-0.28c1.62-0.24,3.15-0.51,4.62-0.8l8.48-2.05L475.4,89.63z"/>
			<path class="st2" d="M426.87,118.56c-0.53-0.93-1.12-1.66-1.77-2.18c-0.25-0.21-0.56-0.43-0.92-0.65
				c-1.04-0.62-2.19-1.09-3.46-1.39c-1.27-0.31-2.51-0.54-3.74-0.69c-0.41-0.06-1.39-0.16-2.95-0.32c-1.56-0.15-2.42-0.15-2.6,0.02
				c-0.46,0.43-0.38,0.74,0.25,0.94c0.22,0.08,1.43,0.15,3.64,0.21c2.21,0.06,4.23,0.35,6.05,0.86c1.13,0.32,2.19,0.79,3.18,1.41
				s1.72,1.44,2.2,2.47c0.15,0.35,0.29,0.72,0.42,1.11c0.13,0.4,0.25,0.78,0.37,1.13C427.62,120.47,427.4,119.5,426.87,118.56z"/>
			<path class="st2" d="M404.99,154.27c-0.42-0.95-0.73-2.08-0.95-3.38c-0.4-2.27-0.53-5.12-0.37-8.54
				c0.15-3.43,0.28-6.37,0.39-8.82c0.01-0.38,0.05-0.97,0.11-1.79c0.06-0.81-0.22-1.1-0.82-0.85c-0.21,0.08-0.32,0.56-0.34,1.43
				c-0.04,1.59-0.11,3.51-0.19,5.76c-0.08,2.25-0.07,4.53,0.04,6.84c0.11,2.31,0.37,4.5,0.79,6.56c0.42,2.07,1.12,3.7,2.08,4.91
				C405.65,155.92,405.4,155.22,404.99,154.27z"/>
			<path class="st2" d="M443.22,46.13c-0.63-1.12-1.34-2-2.11-2.62c-0.31-0.25-0.68-0.51-1.12-0.79c-1.23-0.74-2.61-1.3-4.14-1.66
				c-1.52-0.37-3.02-0.65-4.49-0.83c-0.49-0.07-1.67-0.19-3.54-0.38c-1.87-0.18-2.91-0.18-3.12,0.02c-0.55,0.51-0.45,0.89,0.3,1.13
				c0.26,0.1,1.72,0.18,4.37,0.25c2.65,0.08,5.07,0.42,7.26,1.03c1.36,0.38,2.63,0.95,3.81,1.69c1.19,0.74,2.07,1.73,2.64,2.97
				c0.18,0.41,0.35,0.86,0.51,1.34c0.15,0.47,0.3,0.92,0.44,1.35C444.13,48.41,443.86,47.25,443.22,46.13z"/>
			<path class="st2" d="M416.97,88.96c-0.5-1.13-0.88-2.48-1.14-4.05c-0.48-2.72-0.63-6.14-0.44-10.25
				c0.18-4.11,0.34-7.64,0.47-10.58c0.01-0.45,0.06-1.16,0.13-2.14s-0.26-1.32-0.98-1.03c-0.25,0.1-0.39,0.68-0.41,1.73
				c-0.05,1.9-0.13,4.2-0.23,6.9c-0.1,2.7-0.08,5.44,0.05,8.21s0.45,5.4,0.95,7.87c0.5,2.48,1.34,4.44,2.49,5.89
				C417.77,90.95,417.47,90.1,416.97,88.96z"/>
			<path class="st2" d="M384.18,141.28c-0.7-3.38-1.34-6.32-1.91-8.83c-0.19-0.81-0.32-1.37-0.39-1.68
				c-0.15-0.74-0.48-0.88-0.98-0.44c-0.05,0.3,0.14,1.34,0.55,3.13c0.42,1.79,0.68,2.92,0.79,3.4c0.31,1.41,0.79,3.64,1.43,6.7
				c0.64,3.06,1.01,5.22,1.11,6.48c0.07,0.82,0.04,1.66-0.08,2.51s-0.41,1.6-0.87,2.24c-0.05,0.05-0.2,0.22-0.44,0.51l-0.47,0.52
				c0.17-0.07,0.36-0.2,0.57-0.42c0.21-0.21,0.38-0.38,0.49-0.51c0.56-0.61,0.92-1.35,1.07-2.22c0.15-0.87,0.22-1.75,0.22-2.63
				C385.25,147.57,384.88,144.65,384.18,141.28z"/>
			<path class="st2" d="M368.78,114.21c-0.82,0.04-1.62,0.23-2.4,0.56c-0.65,0.27-1.27,0.67-1.84,1.2c-0.58,0.52-1.03,0.99-1.36,1.4
				l-0.64,0.79c-0.66,0.8-1.28,1.65-1.85,2.56c-0.56,0.9-1.13,1.78-1.7,2.64c-0.34,0.5-0.41,0.85-0.22,1.06
				c0.24,0.3,0.49,0.27,0.74-0.09s0.49-0.71,0.72-1.07c0.78-1.24,1.77-2.69,2.95-4.35c1.19-1.67,2.4-2.87,3.63-3.62
				c0.8-0.47,1.62-0.74,2.48-0.79c0.85-0.05,1.54-0.15,2.08-0.32C370.47,114.15,369.61,114.16,368.78,114.21z"/>
			<path class="st2" d="M353.78,155.32c-0.93-0.2-1.61-0.91-2.05-2.12c-0.37-1.02-0.43-2.51-0.16-4.48c0.26-1.97,0.5-3.55,0.72-4.75
				c0.16-0.78-0.04-1.07-0.59-0.87c-0.15,0.05-0.31,0.49-0.46,1.3c-0.18,0.99-0.35,2.01-0.51,3.06c-0.15,1.05-0.23,2.09-0.23,3.13
				c0,3.62,1.74,5.37,5.24,5.25C355.36,155.7,354.71,155.52,353.78,155.32z"/>
			<path class="st2" d="M338.12,150.1c-1.58,1.15-3.37,2.09-5.36,2.83c-2.13,0.79-4.13,1.29-6.03,1.53
				c-1.89,0.23-3.94,0.39-6.14,0.5c-1.03,0.04-1.25,0.38-0.66,1.02c0.19,0.2,0.77,0.26,1.72,0.17c0.96-0.09,1.62-0.14,1.97-0.17
				c1.31-0.08,2.51-0.21,3.63-0.4c2.44-0.35,4.54-0.94,6.31-1.76c1.78-0.81,3.41-1.88,4.88-3.2c0.45-0.4,1.04-1.13,1.77-2.19
				c0.73-1.05,1.08-2.1,1.05-3.14C340.74,147.35,339.69,148.95,338.12,150.1z"/>
			<path class="st2" d="M333.95,119.41c-0.08-0.11-0.18-0.21-0.3-0.28c-0.13-0.08-0.23-0.17-0.33-0.26
				c-0.59-0.56-1.39-1.21-2.42-1.92c-1.02-0.72-1.88-1.24-2.59-1.55c-2.39-1.03-5.05-1.34-7.99-0.92c-2.93,0.41-5.42,1.29-7.48,2.64
				c-1.16,0.76-2.05,1.48-2.66,2.16c-0.55,0.61-0.92,1.05-1.11,1.3c-0.14,0.19-0.33,0.44-0.54,0.73c-0.21,0.3-0.37,0.56-0.46,0.78
				l1.15-1.28c0.58-0.61,1.18-1.2,1.79-1.77c0.61-0.58,1.34-1.07,2.19-1.48c2.11-1,4.7-1.65,7.79-1.95
				c2.63-0.26,4.84,0.02,6.63,0.84c1.79,0.81,3.59,2.06,5.39,3.74c0.33,0.3,0.62,0.33,0.89,0.06
				C334.16,119.99,334.18,119.71,333.95,119.41z"/>
			<g>
				<path class="st2" d="M207.4,117.53c-0.19-0.32-0.49-0.79-0.9-1.38c-0.41-0.6-0.73-1.03-0.97-1.3c-1.31-1.4-3-2.26-5.06-2.57
					s-4.04-0.42-5.95-0.34c-1.93,0.1-3.87,0.31-5.83,0.64c-1.95,0.32-3.86,0.69-5.72,1.1c-0.37,0.08-1.01,0.21-1.91,0.39
					c-0.9,0.19-1.47,0.34-1.7,0.46c0.54,0,1.18-0.07,1.93-0.2s1.41-0.24,2-0.31c1.53-0.18,2.85-0.33,3.96-0.44
					c2.05-0.19,4.85-0.34,8.38-0.44c3.54-0.11,6.15,0.42,7.84,1.59c0.77,0.54,1.5,1.33,2.18,2.38c0.08,0.11,0.22,0.35,0.43,0.72
					c0.22,0.37,0.37,0.58,0.46,0.63c0.31,0.26,0.58,0.26,0.81,0C207.58,118.2,207.6,117.89,207.4,117.53z"/>
				<path class="st2" d="M194.99,154.97c-1.28,0.15-2.68,0.26-4.19,0.35c-1.52,0.09-2.93,0.04-4.23-0.13
					c-1.54-0.19-2.7-0.61-3.49-1.24c-0.76-0.6-1.4-1.49-1.91-2.67c-0.52-1.17-0.93-2.22-1.24-3.14c-0.08-0.24-0.17-0.53-0.28-0.88
					c-0.1-0.35-0.23-0.57-0.4-0.67c-0.31-0.16-0.56-0.13-0.75,0.09c-0.19,0.22-0.22,0.52-0.08,0.9c0.39,1.13,0.8,2.25,1.23,3.36
					s0.95,2.06,1.56,2.86c1.32,1.73,3.52,2.63,6.6,2.7c1.31,0.04,2.64-0.04,3.99-0.24c1.34-0.19,2.62-0.41,3.84-0.66l7.07-1.71
					L194.99,154.97z"/>
				<path class="st2" d="M294.65,123.21c-0.22-0.45-0.55-0.52-0.97-0.21c-0.17,0.14-0.24,0.57-0.22,1.3c0,0.48,0.01,0.96,0.02,1.44
					c0.01,0.48,0.01,0.96,0.01,1.43c0,3.72-0.26,7.5-0.8,11.33c-0.53,3.84-1.93,7.21-4.2,10.12c-0.49,0.62-0.89,1.09-1.22,1.42
					c-0.33,0.32-0.77,0.73-1.34,1.23l-1.79,1.51c0.25-0.08,0.56-0.24,0.93-0.48c0.37-0.24,0.66-0.42,0.86-0.56
					c2.03-1.38,3.68-3.22,4.93-5.53s2.14-4.65,2.66-7.02c0.37-1.71,0.64-3.41,0.81-5.12c0.16-1.71,0.27-3.47,0.32-5.27
					c0.01-0.41,0.04-1.39,0.08-2.96C294.77,124.28,294.74,123.4,294.65,123.21z"/>
				<path class="st2" d="M263.39,139.41c-0.13-0.98-0.24-1.86-0.32-2.66c-0.17-1.55-0.34-3.32-0.51-5.31
					c-0.02-0.14-0.06-0.69-0.12-1.66c-0.06-0.97-0.14-2.01-0.22-3.13c-0.08-1.12-0.16-2.15-0.24-3.08c-0.08-0.93-0.13-1.43-0.17-1.5
					c-0.28-0.46-0.62-0.49-1.01-0.1c-0.17,0.2-0.22,0.59-0.14,1.19c0.08,0.61,0.14,1.05,0.17,1.33c0.21,2.16,0.44,4.31,0.67,6.44
					c0.22,2.13,0.53,4.27,0.93,6.4c0.1,0.62,0.26,1.43,0.47,2.44c0.2,1.01,0.42,1.76,0.65,2.25
					C263.57,141.26,263.52,140.39,263.39,139.41z"/>
				<path class="st2" d="M249.95,121.4c-0.53-1.33-1.02-2.33-1.46-2.98c-1.31-1.87-3.05-3.12-5.22-3.75
					c-2.16-0.63-4.37-1.09-6.62-1.38c-0.48-0.05-1.83-0.2-4.06-0.44c-2.22-0.23-3.44-0.25-3.65-0.05c-0.26,0.24-0.28,0.49-0.06,0.76
					c0.12,0.19,0.52,0.3,1.21,0.33c0.68,0.04,1.2,0.07,1.55,0.1c1.84,0.16,3.71,0.36,5.6,0.59c1.89,0.24,3.71,0.6,5.46,1.09
					c1.95,0.57,3.39,1.29,4.33,2.15c0.95,0.85,1.8,2.06,2.58,3.62c0.24,0.49,0.45,1,0.63,1.53c0.17,0.53,0.37,1.03,0.59,1.51
					C250.77,123.76,250.48,122.74,249.95,121.4z"/>
				<path class="st2" d="M248.59,146.23c-0.56,0.56-1.02,1.04-1.4,1.45c-1.21,1.34-2.85,2.59-4.91,3.76
					c-2.05,1.17-3.96,2.03-5.71,2.6c-1.33,0.44-2.95,0.78-4.85,1.04c-1.91,0.26-3.58,0.17-5.01-0.28c-1.32-0.41-2.42-1.19-3.31-2.35
					c-0.22-0.29-0.42-0.56-0.6-0.81c-0.19-0.25-0.39-0.54-0.59-0.86c-0.3-0.44-0.61-0.56-0.94-0.35c-0.33,0.22-0.35,0.54-0.08,0.97
					c0.46,0.72,0.87,1.28,1.2,1.68l1.36,1.42c0.54,0.43,1.11,0.79,1.69,1.08c0.58,0.29,1.33,0.5,2.24,0.63
					c1.64,0.25,3.33,0.22,5.07-0.07c1.73-0.3,3.3-0.71,4.68-1.24c1.5-0.57,2.81-1.2,3.91-1.91c1.1-0.7,2.18-1.47,3.21-2.29
					c0.74-0.57,1.73-1.53,2.97-2.88c1.24-1.34,1.98-2.4,2.23-3.16C249.54,145.15,249.15,145.67,248.59,146.23z"/>
			</g>
			<path class="st2" d="M392.4,68.77c-0.63-1.31-1.3-2.36-1.99-3.15c-1.54-1.74-4.49-3.18-8.85-4.34c-4.36-1.15-7.68-2.01-9.98-2.56
				c-0.58-0.15-1.28-0.32-2.1-0.51c-0.35-0.08-0.73-0.13-1.13-0.15c-0.41-0.02-0.59,0.21-0.54,0.7c0.02,0.33,0.57,0.61,1.65,0.84
				l6.37,1.4c3.07,0.71,5.81,1.43,8.2,2.16c1.54,0.48,2.81,0.99,3.79,1.52c0.98,0.53,1.89,1.28,2.72,2.24
				c1.17,1.36,1.93,3.19,2.27,5.46c0.04,0.36,0.07,0.76,0.09,1.19c0.03,0.43,0.1,0.79,0.23,1.09l0.1-1.61
				C393.32,71.51,393.04,70.08,392.4,68.77z"/>
			<path class="st2" d="M389.79,48.27c-0.07-0.34-0.83-1.04-2.28-2.11c-1.46-1.07-2.39-1.73-2.79-1.99
				c-2.16-1.36-4.36-2.22-6.63-2.6c-2.78-0.45-5.61-0.39-8.49,0.18c-2.36,0.5-4.41,1.5-6.17,3.02c0.86-0.24,1.73-0.64,2.61-1.19
				c0.87-0.56,2.24-0.96,4.1-1.19c3.07-0.38,5.9-0.26,8.48,0.35c2.18,0.52,4.24,1.51,6.17,2.95l3.14,2.56
				c0.13,0.1,0.23,0.2,0.31,0.3c0.08,0.09,0.19,0.19,0.32,0.29c0.28,0.23,0.57,0.29,0.87,0.18
				C389.72,48.91,389.84,48.66,389.79,48.27z"/>
			<path class="st2" d="M378.37,90.33c-3.07,0.58-6.98,0.33-11.73-0.74c-2.6-0.57-4.81-1.59-6.64-3.05
				c-0.77-0.62-1.42-1.26-1.96-1.95c-0.54-0.68-1.06-1.3-1.55-1.84c-0.24-0.25-0.52-0.33-0.85-0.24c-0.32,0.09-0.46,0.32-0.41,0.7
				c0.03,0.39,0.7,1.21,2,2.46c1.3,1.26,2.23,2.06,2.79,2.42c2.13,1.46,4.71,2.39,7.74,2.79c3.03,0.41,5.86,0.51,8.5,0.31
				c2.27-0.16,3.7-0.35,4.29-0.57c0.58-0.22,1.79-0.55,3.61-1C383.37,89.52,381.44,89.76,378.37,90.33z"/>
			<path class="st2" d="M345.16,65.85c-0.22-0.21-0.48-0.23-0.77-0.08c-0.2,0.09-0.3,0.33-0.32,0.74l-0.32,5.77
				c-0.1,1.63-0.28,4.14-0.54,7.54c-0.25,3.39-0.6,5.78-1.02,7.16c-0.33,1.03-0.83,1.88-1.51,2.56c-0.48,0.48-0.94,0.83-1.39,1.06
				c-0.44,0.23-0.76,0.45-0.96,0.64c0.46-0.1,0.94-0.29,1.45-0.59c0.5-0.29,0.91-0.56,1.23-0.78c1.08-0.8,1.81-2.19,2.18-4.17
				c0.37-1.98,0.64-3.66,0.82-5.04c0.23-1.76,0.43-3.6,0.61-5.52c0.17-1.93,0.33-3.79,0.47-5.6c0.02-0.34,0.09-0.99,0.2-1.96
				C345.4,66.61,345.35,66.04,345.16,65.85z"/>
			<path class="st2" d="M324.2,56.8c-0.5-0.79-0.84-1.33-1.04-1.63c-0.93-1.41-1.78-2.68-2.54-3.83c-0.77-1.14-1.68-2.38-2.74-3.71
				c-0.16-0.21-0.35-0.43-0.56-0.67c-0.33-0.37-0.63-0.71-0.92-1.05c-0.28-0.33-0.59-0.66-0.92-0.99c-0.51-0.46-0.97-0.86-1.37-1.2
				c-1.97-1.48-3.66-2.05-5.08-1.7c-1.42,0.35-2.93,1.21-4.54,2.59c-0.19,0.16-0.42,0.38-0.68,0.64c-0.23,0.32-0.22,0.61,0.05,0.88
				c0.27,0.26,0.6,0.23,0.99-0.09c0.11-0.1,0.21-0.2,0.29-0.31c0.08-0.1,0.19-0.21,0.32-0.33c0.49-0.41,1.08-0.88,1.77-1.43
				c0.68-0.55,1.47-0.85,2.38-0.9c1.35-0.07,2.63,0.41,3.85,1.42c1.22,1.02,2.1,1.81,2.65,2.37l4.54,5.7
				c0.36,0.5,0.72,0.99,1.08,1.49c0.35,0.5,0.71,0.99,1.07,1.48c0.22,0.3,0.6,0.8,1.13,1.51c0.54,0.71,0.92,1.16,1.15,1.35
				C324.99,58.11,324.7,57.58,324.2,56.8z"/>
			<path class="st2" d="M307.27,90.67c-0.41-0.43-0.74-0.75-1-0.98c-0.25-0.22-0.63-0.61-1.12-1.15c-0.34-0.36-0.51-0.54-0.51-0.54
				c-0.8-1.02-1.44-1.94-1.93-2.76c-0.5-0.82-0.96-1.97-1.4-3.46c-0.79-2.6-1.22-5.1-1.29-7.5c-0.08-2.39-0.19-4.98-0.33-7.77
				c-0.25,0.71-0.4,1.97-0.44,3.79c-0.03,1.81-0.03,3.14,0.01,3.98c0.14,2.92,0.59,5.74,1.33,8.45c0.74,2.71,2.13,5.11,4.15,7.18
				c0.1,0.11,0.19,0.2,0.27,0.28c0.08,0.07,0.17,0.15,0.27,0.25l1.07,1.07c0.38,0.43,0.72,0.5,1.03,0.21
				C307.69,91.42,307.65,91.07,307.27,90.67z"/>
			<path class="st2" d="M288.93,58.55c-0.05-0.29-0.13-0.75-0.22-1.38c-0.09-0.62-0.24-1-0.44-1.13c-0.49-0.32-0.82-0.22-0.98,0.3
				c-0.06,0.19,0.02,0.84,0.25,1.92c0.23,1.09,0.36,1.77,0.41,2.03c0.51,2.89,0.77,5.62,0.78,8.19c0,2.58-0.56,5.22-1.7,7.93
				c-1.83,4.34-4.68,7.68-8.55,10.04c-0.36,0.22-1.03,0.63-2.02,1.23c-0.99,0.61-1.59,1-1.8,1.2c1.17-0.3,2.53-0.96,4.08-1.97
				c1.56-1,2.79-1.89,3.71-2.65l2.23-2.33c2.93-3.67,4.57-7.36,4.91-11.09C289.93,67.11,289.71,63.01,288.93,58.55z"/>
			<path class="st2" d="M254.09,47.55c-1.07,0.86-1.95,1.64-2.64,2.34l-1.2,1.25c-1.12,1.26-2.12,2.74-2.98,4.46
				c-1.95,3.87-2.66,7.85-2.12,11.95c0.54,4.09,1.55,8.11,3.05,12.05c0.11,0.29,0.34,0.92,0.68,1.89c0.35,0.97,0.58,1.52,0.7,1.67
				c0.24,0.31,0.52,0.38,0.84,0.19c0.31-0.2,0.41-0.51,0.27-0.93c-0.09-0.26-0.21-0.56-0.36-0.88c-0.14-0.32-0.26-0.63-0.36-0.91
				c-0.91-2.32-1.8-4.82-2.66-7.52c-0.86-2.7-1.29-5.47-1.29-8.31c0-2.96,0.65-5.89,1.95-8.79s2.97-5.18,4.99-6.86l2.02-1.7
				c0.36-0.31,0.7-0.6,1.04-0.88c0.33-0.28,0.66-0.57,0.99-0.88C256.14,46.07,255.16,46.7,254.09,47.55z"/>
		</g>
	</g>
</g>
</svg>
