<svg viewBox="0 0 205 261" fill="none" xmlns="http://www.w3.org/2000/svg">
<path d="M145.295 207.729C143.195 213.304 138.373 217.401 133.298 220.524C113.051 233.001 86.621 233.102 64.6937 223.866C60.4091 222.053 56.0741 219.769 53.4529 215.907C51.9238 213.64 51.1005 211.037 50.5796 208.333C50.2604 206.738 50.0588 205.109 49.8739 203.514C44.9004 161.616 43.8754 119.484 49.958 77.7213C51.1677 69.5265 52.9824 62.205 57.5191 55.2697C61.5181 49.174 49.8739 41.651 54.9147 22.0542C61.0812 29.6108 64.9962 39.9718 75.6322 39.9718C76.3379 39.6695 77.094 39.4008 77.9173 39.1489C87.0747 36.3446 102.819 36.2606 109.136 39.6191C114.782 42.625 126.628 32.8014 128.728 23.7838C135.869 36.1599 124.477 47.6459 128.09 52.5325C131.148 56.6635 133.601 63.4477 134.811 68.7037C144.674 111.39 146.505 151.524 146.74 195.336C146.757 199.517 146.757 203.816 145.295 207.729Z" fill="#9DC75E"/>
<path d="M145.296 207.73C143.195 213.305 138.373 217.402 133.299 220.525C113.052 233.002 86.6212 233.103 64.6939 223.867C60.4093 222.054 56.0742 219.77 53.4531 215.907C51.924 213.64 51.1007 211.038 50.5798 208.334C69.113 226.336 106.078 213.456 122.881 191.071C140.238 167.562 138.003 95.3542 122.326 66.2529C110.75 44.7585 81.9501 39.6368 77.9175 39.1498C87.0749 36.3454 102.819 36.2615 109.137 39.62C114.782 42.6258 126.628 32.8022 128.728 23.7847C135.869 36.1607 124.477 47.6468 128.09 52.5334C131.148 56.6643 133.601 63.4485 134.811 68.7046C144.674 111.391 146.505 151.525 146.741 195.337C146.757 199.518 146.757 203.817 145.296 207.73Z" fill="#71B738"/>
<path d="M24.167 51.1738C26.0321 45.9177 27.4435 32.4838 22.2852 31.3755C16.4043 30.116 14.4384 42.3577 14.304 47.7481C11.4475 47.3283 9.54886 47.4962 6.74285 48.1679C3.93683 48.8396 1.85332 49.5281 1.28204 52.3661C0.710751 55.204 5.51626 59.8387 8.38949 59.4525C5.02899 57.7396 1.0468 62.4583 2.62624 65.884C4.20567 69.3097 8.84316 71.2576 13.2622 71.4759C12.6909 73.8436 10.7418 88.4867 17.8829 100.023C23.2261 108.654 36.2144 117.454 46.0943 117.034L47.0184 105.531C42.7338 104.49 37.7939 103.482 33.2068 98.1424C27.4603 91.4254 26.8554 75.8252 28.0652 69.5951C31.9466 63.0965 37.8275 58.68 33.9797 53.1721C32.3331 50.7372 28.8045 50.2334 26.0489 51.2242C23.2933 52.2149 21.109 54.3476 19.0423 56.413C17.1268 58.3106 15.1609 61.4676 17.0596 63.3819C18.807 65.1619 21.7979 63.6674 23.7806 62.1561L24.167 51.1738Z" fill="#9DC75E"/>
<path d="M123.033 226.352C122.713 232.397 122.512 240.525 123.52 243.531C125.2 248.568 134.442 243.531 137.802 246.889C141.163 250.248 120.159 262.002 114.279 253.606C110.75 248.568 106.617 238.375 103.861 231.037C113.758 230.281 114.027 229.123 123.033 226.352Z" fill="#9DC75E"/>
<path d="M69.1298 225.176C72.1206 232.044 76.5397 242.674 76.7749 246.167C77.1446 251.456 66.6766 250.315 64.8452 254.697C63.0137 259.08 86.9068 261.969 89.1584 251.96C90.385 246.486 90.5362 237.351 90.3345 229.761C82.4542 228.904 76.6909 227.913 69.1298 225.176Z" fill="#9DC75E"/>
<path d="M121.016 257.266C117.387 257.266 114.614 256.007 112.9 253.589C109.305 248.45 105.138 238.274 102.298 230.65C102.113 230.163 102.163 229.609 102.449 229.156C102.735 228.702 103.205 228.434 103.743 228.383C110.632 227.846 112.598 227.157 116.53 225.764C118.059 225.226 119.974 224.555 122.545 223.765C123.066 223.597 123.637 223.715 124.074 224.051C124.511 224.387 124.746 224.907 124.712 225.461C124.259 233.874 124.41 239.92 125.116 242.019C125.569 243.362 127.233 243.396 130.694 243.127C133.618 242.909 136.911 242.64 138.995 244.722C139.818 245.545 140.053 246.67 139.667 247.846C138.457 251.49 130.543 256.057 123.704 257.065C122.747 257.199 121.856 257.266 121.016 257.266ZM106.23 231.523C108.952 238.644 112.564 247.224 115.656 251.641C117.706 254.563 122.293 254.009 124.847 253.404C130.913 251.994 135.819 248.316 136.424 246.905C135.348 246.099 133.114 246.267 130.946 246.452C127.518 246.721 123.251 247.057 121.923 243.06C121.133 240.692 120.898 235.52 121.234 227.678C119.84 228.131 118.697 228.534 117.639 228.904C114.009 230.214 111.842 230.969 106.23 231.523Z" fill="#71B738"/>
<path d="M75.481 260.407C70.4403 260.407 65.5844 259.198 63.8537 257.183C63.0472 256.242 62.8456 255.1 63.2824 254.042C64.4082 251.339 67.5671 250.315 70.3563 249.408C73.6496 248.35 75.1954 247.678 75.0946 246.268C74.9266 243.866 72.1878 236.41 67.5839 225.831C67.4501 225.531 67.409 225.199 67.4659 224.876C67.5228 224.552 67.6751 224.254 67.9031 224.018C68.3568 223.531 69.0793 223.363 69.701 223.598C77.0437 226.268 82.6893 227.242 90.5193 228.098C91.3594 228.182 91.9979 228.887 92.0147 229.727C92.1995 236.763 92.1155 246.385 90.7881 252.33C89.9816 255.906 86.9908 258.442 82.1348 259.651C80.0513 260.172 77.7494 260.407 75.481 260.407ZM66.4917 255.117C67.5839 256.192 73.532 257.72 79.6649 256.729C82.2524 256.309 86.7219 255.084 87.4948 251.591C88.419 247.443 88.839 240.256 88.671 231.272C82.5885 230.567 77.7158 229.727 72.1542 227.981C76.1531 237.384 78.2535 243.463 78.4383 246.049C78.7239 250.247 74.6577 251.557 71.3812 252.615C69.3145 253.287 67.1806 253.975 66.4917 255.117Z" fill="#71B738"/>
<path d="M127.468 24.2884C130.929 30.5352 129.4 36.8659 127.317 43.2639C126.628 45.3797 125.788 47.6803 125.872 49.9473C125.989 52.5669 127.905 54.4812 129.064 56.7146C132.845 64.0026 134.256 72.3149 135.853 80.2913C137.617 89.0738 139.079 97.9234 140.272 106.807C142.624 124.372 143.901 142.071 144.556 159.77C144.892 168.67 145.077 177.57 145.161 186.47C145.245 194.581 146.657 204.203 141.498 211.122C136.911 217.268 129.148 221.247 122.125 223.901C114.883 226.638 107.187 228.082 99.4583 228.334C91.7628 228.586 84.0504 227.679 76.6069 225.748C72.8432 224.757 69.113 223.531 65.5341 222.003C62.1064 220.559 58.5442 218.796 56.0407 215.958C53.2683 212.818 52.4113 208.586 51.8905 204.556C51.3024 200.005 50.8319 195.421 50.3782 190.853C49.4541 181.55 48.7484 172.213 48.2611 162.877C47.337 144.523 47.3538 126.101 48.5972 107.747C49.2357 98.2928 50.1934 88.8555 51.5208 79.4853C52.6634 71.3913 54.3604 63.4316 58.7459 56.3956C60.7286 53.2218 60.2749 50.2663 59.0483 46.8575C57.4185 42.3067 55.7382 37.8735 55.503 32.9869C55.3182 29.3261 55.8054 25.7157 56.696 22.1557C55.755 22.4076 54.8309 22.6427 53.89 22.8946C57.8721 27.8484 60.779 33.8769 65.8869 37.8399C68.2057 39.6535 70.8941 40.8122 73.8177 41.1648C76.775 41.5175 79.6146 40.0061 82.5214 39.4352C89.0408 38.159 96.1314 37.8903 102.684 39.0154C103.978 39.2337 105.272 39.5191 106.515 39.9222C107.658 40.2916 108.683 40.9633 109.825 41.2656C112.211 41.9037 114.749 41.148 116.899 40.1237C123.2 37.1346 128.795 30.6527 130.509 23.8686C131.03 21.7695 127.804 20.8795 127.266 22.9785C125.821 28.7216 121.234 33.9776 116.076 36.782C114.076 37.8567 111.976 38.5788 109.825 37.6552C107.624 36.7148 105.44 36.0599 103.071 35.6905C97.0556 34.7501 90.8722 34.8508 84.8402 35.6737C82.0509 36.0599 79.2449 36.5805 76.5733 37.5208C73.9521 38.4444 70.9445 37.269 68.7266 35.7744C63.2826 32.1305 60.2749 25.4974 56.2591 20.5101C55.4526 19.5193 53.7387 20.107 53.4531 21.2489C51.84 27.7308 51.6216 34.3639 53.4195 40.8458C54.0244 43.0288 54.8477 45.1446 55.6206 47.2605C56.1583 48.7382 56.864 50.3839 56.8472 51.996C56.8136 54.3133 54.7301 56.4124 53.7555 58.4107C51.9577 62.0547 50.6807 65.9505 49.7733 69.9135C47.7738 78.78 46.9337 88.0158 46.0936 97.0502C44.2789 116.311 43.8757 135.706 44.5646 155.035C44.9174 164.791 45.5391 174.531 46.396 184.254C46.8161 188.922 47.2698 193.573 47.7907 198.225C48.2611 202.49 48.53 206.923 49.7565 211.071C52.0585 218.896 58.5106 222.776 65.6853 225.647C73.112 228.636 80.9588 230.517 88.9232 231.306C104.549 232.868 120.865 229.912 134.324 221.617C140.809 217.62 146.64 212.079 148.034 204.27C148.824 199.871 148.589 195.353 148.555 190.903C148.522 186.336 148.471 181.768 148.387 177.201C148.051 158.611 147.228 140.022 145.346 121.534C143.498 103.347 140.826 85.0772 136.474 67.3107C135.533 63.4988 134.239 59.7373 132.542 56.1941C131.826 54.6721 130.995 53.2069 130.056 51.8112C129.417 50.8709 129.148 50.2663 129.249 49.1077C129.451 46.6224 130.577 44.1539 131.299 41.8029C132.223 38.8307 132.946 35.7408 132.979 32.6006C133.013 29.0574 132.055 25.6821 130.341 22.5755C129.333 20.7116 126.426 22.3908 127.468 24.2884Z" fill="#71B738"/>
<path d="M80.0352 99.6532C74.356 99.6532 69.9873 97.2183 67.7358 92.8019C65.1146 87.697 65.7195 80.2915 69.1136 75.5728C71.802 71.8616 75.801 69.729 80.1024 69.729C84.5047 69.729 88.5373 72.0128 90.8728 75.8415C93.5612 80.2411 95.1574 87.5458 92.301 93.1713C90.9568 95.8077 88.05 99.0655 81.8331 99.5692C81.2114 99.6364 80.6233 99.6532 80.0352 99.6532Z" fill="white"/>
<path d="M80.1023 70.585C84.0341 70.585 87.865 72.5329 90.167 76.2945C94.7877 83.8511 94.7877 97.7049 81.7657 98.746C81.1776 98.7964 80.5895 98.8132 80.0351 98.8132C65.7361 98.8132 64.5432 83.3473 69.7855 76.0762C72.4739 72.3818 76.3385 70.585 80.1023 70.585ZM80.1023 68.9058C75.532 68.9058 71.281 71.156 68.4245 75.1022C64.7952 80.1231 64.1903 87.7469 66.9795 93.2045C69.3823 97.9064 74.0198 100.509 80.0351 100.509C80.64 100.509 81.2617 100.476 81.9001 100.425C88.5035 99.8879 91.612 96.4118 93.057 93.5739C96.0646 87.663 94.418 80.0224 91.5952 75.4212C89.1084 71.3407 84.807 68.9058 80.1023 68.9058Z" fill="#71B738"/>
<path d="M86.806 89.5096C86.806 90.3542 86.6396 91.1906 86.3162 91.9709C85.9928 92.7512 85.5187 93.4602 84.9212 94.0574C84.3236 94.6546 83.6141 95.1284 82.8334 95.4516C82.0526 95.7748 81.2158 95.9412 80.3707 95.9412C79.5256 95.9412 78.6887 95.7748 77.908 95.4516C77.1272 95.1284 76.4178 94.6546 75.8202 94.0574C75.2226 93.4602 74.7486 92.7512 74.4252 91.9709C74.1018 91.1906 73.9353 90.3542 73.9353 89.5096C73.9353 87.8039 74.6133 86.168 75.8202 84.9619C77.027 83.7557 78.6639 83.0781 80.3707 83.0781C82.0774 83.0781 83.7143 83.7557 84.9212 84.9619C86.128 86.168 86.806 87.8039 86.806 89.5096Z" fill="black"/>
<path d="M69.4323 62.5951C70.0204 62.1751 70.6253 61.8054 71.2806 61.503C71.3646 61.4694 71.4486 61.4358 71.5326 61.3853C71.331 61.4694 71.331 61.4694 71.499 61.4021C71.6334 61.3517 71.7511 61.3013 71.8855 61.2677C72.2215 61.1501 72.5744 61.0493 72.9272 60.9485C73.2801 60.8645 73.6329 60.7972 73.9858 60.73C74.4395 60.646 73.6161 60.7636 74.0698 60.7132L74.6075 60.6628C75.33 60.6124 76.0525 60.646 76.7582 60.73C77.6319 60.8309 78.4721 59.8731 78.4385 59.0498C78.3881 58.0416 77.6992 57.4872 76.7582 57.3695C73.6329 56.9831 70.2892 57.8232 67.7353 59.6715C67.0296 60.1756 66.6095 61.1501 67.1304 61.9734C67.6008 62.6959 68.6762 63.1328 69.4323 62.5951Z" fill="black"/>
<path d="M108.582 66.1173L109.204 66.1676C109.238 66.1676 109.54 66.2012 109.322 66.1844C109.103 66.1508 109.406 66.2012 109.439 66.2012C109.859 66.2684 110.263 66.3524 110.683 66.4699C111.069 66.5707 111.456 66.6882 111.825 66.8393C111.909 66.8729 111.993 66.9065 112.094 66.9401C112.514 67.108 111.909 66.8561 112.144 66.9569C112.329 67.0576 112.531 67.1416 112.716 67.2256C113.069 67.4103 113.421 67.6118 113.758 67.8133C113.942 67.9308 114.11 68.0484 114.278 68.1659C114.362 68.2163 114.43 68.2835 114.514 68.3339C114.648 68.4346 114.631 68.4346 114.514 68.3339C115.169 68.888 115.757 69.459 116.312 70.1139C116.866 70.8024 118.109 70.7352 118.681 70.1139C119.353 69.3918 119.269 68.4682 118.681 67.7461C116.227 64.7403 112.43 62.9771 108.582 62.7756C107.709 62.7252 106.868 63.5816 106.902 64.4548C106.936 65.3952 107.625 66.0669 108.582 66.1173Z" fill="black"/>
<path d="M25.3763 51.5091C26.7541 47.5125 27.3086 42.9785 27.0902 38.7636C26.939 35.7577 26.3173 31.2909 22.9064 30.233C14.7908 27.7309 13.1945 42.8777 13.0433 47.7475L14.3035 46.4881C9.86764 45.9004 1.11354 46.2866 0.0717828 52.0296C-0.667527 56.1102 4.45723 60.9464 8.38902 60.7113C9.49798 60.6442 10.2709 58.8978 9.02751 58.3604C4.8941 56.614 0.441438 60.6274 1.07993 64.9598C1.86965 70.3166 8.70827 72.4157 13.2617 72.718C12.8585 72.1806 12.4552 71.66 12.052 71.1227C9.88444 80.5433 11.6655 92.1133 16.6222 100.342C19.7139 105.447 24.385 109.628 29.3921 112.818C34.3321 115.959 40.1457 118.427 46.1106 118.276C46.8331 118.259 47.3204 117.705 47.3708 117.017C47.6733 113.188 47.9925 109.359 48.2949 105.514C48.3454 104.976 47.8749 104.422 47.3708 104.305C43.8759 103.465 40.4314 102.558 37.4741 100.392C34.4833 98.2258 32.4502 95.3039 31.2068 91.8614C29.0393 85.7825 28.4512 78.9312 28.9553 72.5165C29.0897 70.8876 29.3585 69.8129 30.2995 68.4191C31.5261 66.6055 32.8871 64.9095 34.0968 63.0959C35.7099 60.661 37.1045 57.8062 36.214 54.834C35.3066 51.7777 32.7694 49.7962 29.6274 49.5108C25.9308 49.1749 22.7383 51.2236 20.1172 53.6081C17.7648 55.7576 13.7322 59.4855 15.3957 63.1127C17.1935 67.0253 21.8814 65.0942 24.4186 63.2302C25.7124 62.273 24.4522 60.09 23.1416 61.0472C21.915 61.954 20.0163 63.4149 18.4537 62.6929C16.2022 61.6685 18.7226 58.5619 19.7307 57.4872C22.0831 54.9851 25.1243 51.9792 28.7872 51.9792C32.4166 51.9792 34.8362 55.2706 33.6096 58.713C32.5342 61.7357 30.0978 64.2546 28.3168 66.8742C27.5607 67.9825 26.8886 68.9229 26.6869 70.2327C26.5357 71.2738 26.4349 72.3317 26.3677 73.3729C26.2165 75.9757 26.2837 78.5953 26.5021 81.1814C26.9558 86.4542 27.9303 92.0629 30.6691 96.6808C34.1977 102.625 40.2802 105.161 46.6819 106.706C46.3795 106.303 46.0602 105.9 45.7578 105.497C45.4553 109.326 45.1361 113.154 44.8336 117L46.0938 115.74C40.5658 115.891 35.2394 113.541 30.6523 110.635C25.8132 107.562 21.3101 103.482 18.4369 98.4776C15.5301 93.4063 14.2027 87.5457 13.9002 81.7355C13.7322 78.4778 13.7322 74.985 14.4715 71.7776C14.6564 70.938 14.0851 70.2327 13.2617 70.1823C10.0861 69.964 6.17109 68.9565 4.2556 66.1521C2.74338 63.9355 4.59165 59.1664 7.76733 60.5098C7.98576 59.7206 8.18739 58.9481 8.40582 58.1589C5.70062 58.3268 1.34877 54.3134 2.9114 51.5091C3.71792 50.0649 5.63341 49.6955 7.11203 49.3428C9.54839 48.7551 11.8671 48.6375 14.3371 48.9734C15.026 49.0574 15.5805 48.3185 15.5973 47.714C15.6981 44.4562 16.1854 41.1481 17.1767 38.0415C17.7816 36.1271 19.6131 31.2237 22.5199 32.7519C24.9563 34.0281 24.7042 38.9147 24.637 41.1481C24.5362 44.4058 24.0657 47.7308 22.9904 50.8206C22.4191 52.3823 24.8555 53.0372 25.3763 51.5091Z" fill="#71B738"/>
<path d="M118.445 120.294C118.092 120.294 117.756 120.059 117.639 119.706C117.353 118.799 116.698 118.043 115.706 117.471C115.611 117.417 115.527 117.344 115.46 117.257C115.393 117.17 115.344 117.07 115.315 116.964C115.287 116.857 115.281 116.746 115.296 116.637C115.311 116.528 115.348 116.423 115.404 116.329C115.639 115.926 116.143 115.791 116.546 116.026C118.26 117.018 118.949 118.312 119.235 119.219C119.369 119.656 119.134 120.126 118.68 120.277C118.613 120.294 118.529 120.294 118.445 120.294Z" fill="black"/>
<path d="M67.0295 126.574H66.9959C66.776 126.566 66.5684 126.471 66.4176 126.311C66.2667 126.151 66.1848 125.938 66.1894 125.718C66.1894 125.617 66.2902 123.197 68.6257 121.433C68.9954 121.147 69.5163 121.231 69.8019 121.601C70.0876 121.971 70.0036 122.491 69.6339 122.777C67.9705 124.037 67.8696 125.718 67.8696 125.785C67.8528 126.222 67.4832 126.574 67.0295 126.574Z" fill="black"/>
<path d="M105.843 98.3768C101.609 98.3768 98.3323 96.5632 96.6353 93.2551C94.6862 89.4432 95.1231 83.9353 97.6602 80.4256C99.6597 77.6549 102.667 76.0596 105.877 76.0596C109.187 76.0596 112.194 77.7724 113.959 80.6271C115.958 83.9017 117.151 89.3424 115 93.5238C113.992 95.5053 111.808 97.9402 107.154 98.3264C106.717 98.36 106.263 98.3768 105.843 98.3768Z" fill="white"/>
<path d="M105.894 76.8824C108.767 76.8824 111.573 78.3097 113.253 81.0637C116.63 86.5884 116.63 96.7143 107.103 97.4867C106.667 97.5203 106.246 97.5371 105.843 97.5371C95.3752 97.5371 94.5015 86.2358 98.3493 80.9126C100.298 78.1922 103.121 76.8824 105.894 76.8824ZM105.894 75.2031C102.399 75.2031 99.1558 76.916 96.9883 79.9218C94.2327 83.7337 93.779 89.4935 95.8961 93.6245C97.7444 97.2349 101.273 99.2164 105.843 99.2164C106.297 99.2164 106.767 99.1996 107.238 99.166C112.279 98.763 114.648 96.093 115.757 93.9099C118.042 89.4264 116.798 83.6665 114.681 80.1905C112.783 77.0671 109.489 75.2031 105.894 75.2031Z" fill="#71B738"/>
<path d="M110.784 90.719C110.784 91.966 110.288 93.1619 109.406 94.0437C108.524 94.9255 107.327 95.4209 106.079 95.4209C104.831 95.4209 103.635 94.9255 102.752 94.0437C101.87 93.1619 101.375 91.966 101.375 90.719C101.375 89.472 101.87 88.276 102.752 87.3942C103.635 86.5125 104.831 86.0171 106.079 86.0171C107.327 86.0171 108.524 86.5125 109.406 87.3942C110.288 88.276 110.784 89.472 110.784 90.719Z" fill="black"/>
<path d="M90.4192 109.392C90.4192 109.392 91.5786 108.653 92.4187 108.871C93.2589 109.09 93.9982 111.392 91.8979 112.03C89.7975 112.669 89.5791 110.35 90.4192 109.392Z" fill="black"/>
<path d="M98.1314 109.392C98.1314 109.392 99.2908 108.653 100.131 108.871C100.971 109.09 101.71 111.392 99.61 112.03C97.5097 112.669 97.2913 110.35 98.1314 109.392Z" fill="black"/>
<path d="M103.861 128.755C103.861 128.755 105.676 133.373 108.347 132.953C111.002 132.533 108.482 126.236 108.482 126.236L103.861 128.755Z" fill="white"/>
<path d="M133.887 206.587C133.735 206.587 133.601 206.57 133.45 206.536C133.178 206.461 132.929 206.321 132.724 206.128C132.519 205.935 132.365 205.694 132.274 205.428L113.236 145.512C113.136 145.203 113.128 144.871 113.215 144.557C113.301 144.244 113.478 143.963 113.724 143.749L163.005 100.089C163.375 99.7696 163.862 99.6184 164.35 99.6856C164.837 99.7528 165.274 100.038 165.526 100.441L196.056 148.014C196.493 148.703 196.375 149.61 195.787 150.147L135.012 206.116C134.71 206.419 134.29 206.587 133.887 206.587ZM116.765 145.546L134.676 201.885L192.46 148.652L163.778 103.901L116.765 145.546Z" fill="#E8451E"/>
<path d="M115.102 142.859L134.139 202.741L194.645 147.628L164.132 100.055L115.102 142.859Z" fill="#EE7122"/>
<path d="M119.874 145.361C119.874 146.201 136.962 197.452 136.962 197.452L146.758 199.416L128.56 148.199L119.874 145.361Z" fill="white"/>
<path d="M114.077 143.716L163.359 100.055L174.566 101.163L202.559 151.541L147.682 201.918L127.788 148.182L114.077 143.716Z" fill="#EE7122"/>
<path d="M133.315 145.664C132.878 145.664 132.442 145.497 132.122 145.161C131.967 145.004 131.844 144.818 131.762 144.614C131.679 144.409 131.638 144.19 131.641 143.97C131.644 143.749 131.692 143.532 131.78 143.33C131.868 143.127 131.996 142.945 132.156 142.793L170.516 105.295C170.673 105.14 170.859 105.018 171.063 104.935C171.268 104.852 171.487 104.811 171.708 104.815C171.928 104.818 172.146 104.865 172.348 104.953C172.55 105.041 172.733 105.169 172.885 105.329C173.54 106.001 173.524 107.059 172.852 107.697L134.491 145.194C134.172 145.513 133.752 145.664 133.315 145.664Z" fill="#E8451E"/>
<path d="M148.438 203.598C148.303 203.598 148.169 203.581 148.051 203.548C147.782 203.483 147.534 203.353 147.329 203.168C147.123 202.983 146.967 202.75 146.875 202.49L127.266 149.526L114.312 145.295C113.74 145.11 113.304 144.623 113.186 144.035C113.068 143.447 113.27 142.843 113.724 142.44L163.005 98.7794C163.358 98.4771 163.829 98.326 164.282 98.3596L175.49 99.4847C176.044 99.5351 176.531 99.8541 176.783 100.341L204.793 150.719C205.163 151.39 205.028 152.247 204.457 152.767L149.563 203.145C149.261 203.447 148.858 203.598 148.438 203.598ZM118.143 143.028L129.081 146.604C129.568 146.756 129.955 147.142 130.14 147.612L149.16 198.997L201.231 151.206L174.297 102.759L164.702 101.802L118.143 143.028Z" fill="#E8451E"/>
<path d="M144.943 114.867C151.597 128.15 152.286 129.527 161.376 151.508C158.822 153.473 144.994 155.908 146.859 158.544C147.8 159.871 157.511 160.526 160.603 160.711C163.98 172.146 169.475 179.703 172.919 177.873C176.364 176.042 174.364 168.167 173.608 166.42C174.801 168.603 181.623 175.807 185.756 171.458C189.436 167.579 183.438 162.675 181.623 160.459C183.152 162.558 192.393 165.043 192.847 160.459C193.301 155.874 186.429 154.044 176.801 146.034C169.878 140.274 158.805 112.416 140.692 97.084C142.742 104.389 144.943 114.867 144.943 114.867Z" fill="#9DC75E"/>
<path d="M143.851 114.295C149.816 126.201 155.058 138.325 160.149 150.634C160.334 150.164 160.536 149.694 160.721 149.207C158.385 150.869 154.991 151.39 152.319 152.28C150.32 152.952 146.623 153.774 145.632 155.924C143.431 160.71 158.301 160.609 160.586 160.743C160.183 160.441 159.78 160.122 159.376 159.82C160.737 164.32 162.451 168.871 165.056 172.834C166.467 174.967 168.534 177.788 171.289 178.14C177.826 178.963 176.213 168.3 174.801 164.857C174.028 165.177 173.272 165.512 172.499 165.831C174.667 169.559 180.514 174.664 185.101 172.28C187.705 170.92 188.73 168.014 187.739 165.311C186.714 162.523 184.362 160.559 182.514 158.359C181.455 157.116 179.708 158.896 180.732 160.139C183.202 163.145 191.873 165.009 193.788 160.559C196.107 155.202 187.773 151.239 184.463 148.989C181.455 146.923 178.212 144.858 175.86 142.02C174.163 139.971 172.751 137.67 171.357 135.403C167.492 129.157 163.863 122.759 159.797 116.613C154.605 108.737 148.791 101.113 141.583 94.9504C140.658 94.1611 139.113 94.9 139.482 96.1762C141.129 102.054 142.49 108.015 143.733 113.976C144.069 115.555 146.489 114.883 146.17 113.305C144.926 107.343 143.549 101.382 141.919 95.5045C141.213 95.9076 140.507 96.3274 139.818 96.7304C151.026 106.336 158.704 119.199 166.198 131.726C168.719 135.941 171.155 140.391 174.381 144.119C178.582 148.972 184.799 151.491 189.604 155.622C191.1 156.915 193.099 159.92 189.873 160.491C187.705 160.878 183.992 160.105 182.53 158.325L180.749 160.105C182.06 161.65 183.589 163.01 184.664 164.723C185.874 166.637 186.176 169.526 183.37 170.231C180.161 171.037 176.162 167.04 174.7 164.538C174.011 163.346 171.844 164.152 172.398 165.512C173.104 167.242 175.137 177.301 170.937 175.386C168.819 174.429 167.341 171.81 166.249 169.895C164.316 166.52 162.955 162.859 161.83 159.131C161.749 158.871 161.589 158.642 161.372 158.476C161.156 158.311 160.893 158.217 160.62 158.208C157.763 158.04 154.89 157.838 152.034 157.452C150.79 157.284 149.463 156.764 148.236 156.68C148.102 156.663 147.85 156.444 147.749 156.444C147.951 156.428 147.968 157.032 147.9 157.032C147.951 157.032 148.623 156.478 148.69 156.428C152.723 153.942 158.15 154.11 162.031 151.356C162.451 151.071 162.838 150.466 162.603 149.929C157.427 137.419 152.101 125.093 146.052 112.985C145.296 111.575 143.128 112.851 143.851 114.295Z" fill="#71B738"/>
<path d="M76.5568 129.309C76.5568 129.309 75.2295 133.893 77.1113 135.052C79.6317 136.597 81.5976 130.854 81.5976 130.854L76.5568 129.309Z" fill="white"/>
<path d="M90.6377 132.449C78.8255 132.449 69.2145 125.782 68.7776 125.48C68.7098 125.433 68.6519 125.373 68.6075 125.304C68.5631 125.234 68.5329 125.156 68.5189 125.075C68.5048 124.994 68.5071 124.911 68.5255 124.83C68.544 124.75 68.5783 124.674 68.6264 124.607C68.6734 124.539 68.7334 124.481 68.803 124.437C68.8725 124.392 68.9503 124.362 69.0316 124.348C69.1129 124.334 69.1962 124.336 69.2767 124.355C69.3571 124.373 69.4331 124.408 69.5001 124.456C69.6178 124.54 80.8082 132.281 93.4437 131.055C106.079 129.829 115.623 119.2 115.724 119.082C115.959 118.83 116.346 118.797 116.614 119.032C116.883 119.267 116.9 119.653 116.665 119.922C116.262 120.375 106.684 131.038 93.5781 132.298C92.57 132.415 91.5954 132.449 90.6377 132.449Z" fill="black"/>
<path d="M78.136 89.5106C78.136 89.876 77.9908 90.2265 77.7324 90.4849C77.474 90.7433 77.1236 90.8884 76.7582 90.8884C76.3928 90.8884 76.0423 90.7433 75.7839 90.4849C75.5255 90.2265 75.3804 89.876 75.3804 89.5106C75.3804 89.1452 75.5255 88.7947 75.7839 88.5364C76.0423 88.278 76.3928 88.1328 76.7582 88.1328C77.1236 88.1328 77.474 88.278 77.7324 88.5364C77.9908 88.7947 78.136 89.1452 78.136 89.5106Z" fill="white"/>
<path d="M105.44 90.8885C105.44 91.254 105.295 91.6044 105.036 91.8628C104.778 92.1212 104.428 92.2664 104.062 92.2664C103.697 92.2664 103.346 92.1212 103.088 91.8628C102.829 91.6044 102.684 91.254 102.684 90.8885C102.684 90.5231 102.829 90.1727 103.088 89.9143C103.346 89.6559 103.697 89.5107 104.062 89.5107C104.428 89.5107 104.778 89.6559 105.036 89.9143C105.295 90.1727 105.44 90.5231 105.44 90.8885Z" fill="white"/>
<path d="M105.995 47.5117L169.492 59.3672L120.765 17.6547L56.915 5.59766L105.995 47.5117Z" fill="#F4981B"/>
<path d="M71.7676 9.84668L91.6113 22.3235C91.6113 22.3235 128.896 23.7005 140.305 52.869C152.84 54.7666 170.533 58.9983 170.533 58.9983L121.805 17.2857L71.7676 9.84668Z" fill="#E8451E"/>
<path d="M170.987 60.9472C170.617 60.9472 170.248 60.8296 169.945 60.5777L119.857 20.9978L57.5363 6.72423C57.2816 6.66651 57.044 6.54983 56.8426 6.38359C56.6413 6.21734 56.4818 6.00616 56.377 5.76706C56.2712 5.52986 56.2222 5.27129 56.2339 5.01186C56.2455 4.75243 56.3175 4.49929 56.4442 4.27253L58.3429 0.863654C58.6957 0.22554 59.4182 -0.093517 60.1239 0.0240304L123.201 11.9971C123.486 12.0474 123.755 12.1818 123.973 12.3665L173.961 54.7843C174.583 55.3217 174.734 56.2117 174.314 56.917L172.415 60.0907C172.163 60.5106 171.76 60.796 171.272 60.88C171.188 60.9304 171.088 60.9472 170.987 60.9472ZM60.46 3.95347L120.983 17.8073C121.235 17.8576 121.453 17.9752 121.655 18.1263L170.533 56.749L170.718 56.43L122.142 15.2212L60.6952 3.56724L60.46 3.95347Z" fill="#DB0D15"/>
<path d="M59.7714 0.678711L122.848 12.6518L172.835 55.0696L170.937 58.2433L120.563 18.4284L57.856 4.08758L59.7714 0.678711Z" fill="#E8451E"/>
<path d="M170.533 60.697C170.432 60.697 170.332 60.6802 170.231 60.6634L106.734 48.8079C106.445 48.7514 106.173 48.6246 105.944 48.4385L56.8643 6.50768C56.581 6.26951 56.3845 5.94434 56.3055 5.58286C56.2265 5.22138 56.2694 4.84393 56.4275 4.50937C56.7635 3.82088 57.5028 3.43466 58.259 3.58579L122.125 15.6428C122.411 15.6932 122.68 15.8275 122.898 16.0122L171.625 57.7248C172.197 58.2117 172.382 59.0346 172.045 59.7231C171.777 60.3276 171.172 60.697 170.533 60.697ZM107.793 45.5838L164.686 56.2134L121.05 18.8669L63.8374 8.05259L107.793 45.5838Z" fill="#DB0D15"/>
<path d="M172.096 86.0346L166.215 86.3033L166.064 82.9448C165.996 81.3159 167.24 79.9557 168.87 79.8717C170.499 79.8046 171.86 81.0472 171.944 82.6761L172.096 86.0346Z" fill="#E29811"/>
<path d="M172.179 86.521L166.299 86.7897L162.77 119.737C162.77 119.737 164.988 122.289 170.869 122.02C176.75 121.752 178.716 118.998 178.716 118.998L172.179 86.521Z" fill="#E29811"/>
<path d="M68.0879 37.6875C68.0879 37.6875 93.1404 62.2213 96.1481 64.9585C105.322 67.8468 135.987 74.5638 135.987 74.5638L140.322 52.8679C140.322 52.8679 134.508 38.9301 118.21 29.8454C103.726 22.3559 90.0488 21.9193 83.6638 22.7254C81.4291 24.7741 68.0879 37.6875 68.0879 37.6875Z" fill="#F4981B"/>
<path d="M166.282 87.2089C165.829 87.2089 165.459 86.8563 165.442 86.4029L165.291 83.0444C165.19 80.9621 166.82 79.1989 168.887 79.0982C171.004 78.9974 172.734 80.6263 172.835 82.6918L172.986 86.0503C173.003 86.5204 172.65 86.9067 172.18 86.9235L166.299 87.1921C166.299 87.2089 166.299 87.2089 166.282 87.2089ZM169.055 80.7942H168.954C167.794 80.8446 166.904 81.8354 166.954 82.994L167.072 85.5129L171.273 85.3282L171.155 82.8093C171.104 81.6674 170.18 80.7942 169.055 80.7942Z" fill="#DB0D15"/>
<path d="M170.013 122.893C164.451 122.893 162.233 120.408 162.132 120.29C162.058 120.203 162.001 120.101 161.967 119.992C161.932 119.882 161.92 119.767 161.93 119.652L165.459 86.7054C165.509 86.2856 165.845 85.9665 166.249 85.9497L172.13 85.681C172.533 85.6307 172.903 85.9497 172.987 86.3527L179.523 118.829C179.573 119.064 179.523 119.3 179.388 119.484C179.304 119.619 177.103 122.574 170.886 122.86C170.601 122.876 170.298 122.893 170.013 122.893ZM163.644 119.417C164.333 119.971 166.518 121.399 170.819 121.197C175.12 120.996 177.17 119.384 177.809 118.762L171.491 87.3939L167.055 87.5954L163.644 119.417Z" fill="#DB0D15"/>
<path d="M175.624 121.919C175.204 121.919 174.851 121.617 174.801 121.197L169.928 86.7218C169.912 86.6123 169.917 86.5006 169.945 86.3935C169.973 86.2863 170.022 86.1858 170.089 86.098C170.157 86.0102 170.241 85.9369 170.338 85.8825C170.434 85.8281 170.541 85.7937 170.651 85.7814C171.121 85.7142 171.541 86.0333 171.592 86.5035L176.464 120.978C176.481 121.088 176.475 121.2 176.447 121.307C176.42 121.414 176.371 121.514 176.303 121.602C176.236 121.69 176.151 121.763 176.055 121.818C175.958 121.872 175.852 121.906 175.742 121.919H175.624Z" fill="#DB0D15"/>
<path d="M170.852 122.876C170.398 122.876 170.029 122.524 170.012 122.07L168.382 86.5037C168.365 86.0336 168.718 85.6473 169.189 85.6305C169.659 85.597 170.046 85.9664 170.062 86.4366L171.692 122.003C171.709 122.473 171.356 122.859 170.886 122.876H170.852Z" fill="#DB0D15"/>
<path d="M166.014 122.357H165.98C165.757 122.347 165.548 122.25 165.397 122.086C165.245 121.923 165.165 121.706 165.173 121.484L166.837 86.5049C166.854 86.0347 167.257 85.682 167.711 85.6988C168.181 85.7156 168.534 86.1186 168.517 86.572L166.854 121.551C166.837 122.004 166.467 122.357 166.014 122.357Z" fill="#DB0D15"/>
<path d="M168.92 80.7945C168.466 80.7945 168.097 80.4418 168.08 79.9884L167.122 59.1658C167.105 58.6956 167.458 58.3094 167.929 58.2926C168.399 58.2758 168.786 58.6284 168.802 59.0986L169.76 79.9213C169.777 80.3915 169.424 80.7777 168.954 80.7945H168.92Z" fill="#DB0D15"/>
<path d="M118.395 30.418L97.3918 65.6822L134.357 74.0784L140.305 52.8695C140.305 52.8695 127.636 34.6161 118.395 30.418Z" fill="#E8451E"/>
<path d="M135.987 76.2439C135.87 76.2439 135.752 76.2271 135.635 76.2103C134.374 75.9416 104.802 69.4261 95.6446 66.5546C95.4137 66.4847 95.2013 66.3642 95.0229 66.2019C92.0321 63.4816 67.9373 39.8881 66.9291 38.8974C66.6099 38.5783 66.425 38.1417 66.425 37.6883C66.425 37.2349 66.6099 36.7983 66.9291 36.4792C67.4668 35.9587 80.3207 23.5322 82.5218 21.5003C82.7739 21.2653 83.1099 21.1141 83.446 21.0637C86.3192 20.7111 101.542 19.3677 118.966 28.3685C135.635 37.6547 141.616 51.6429 141.868 52.2306C142.003 52.5329 142.036 52.8855 141.969 53.2046L137.634 74.9005C137.55 75.3371 137.281 75.7233 136.912 75.9752C136.626 76.1431 136.307 76.2439 135.987 76.2439ZM97.0056 63.4648C105.121 65.9501 128.241 71.1389 134.677 72.5663L138.558 53.087C137.416 50.6857 131.333 39.0989 117.37 31.324C101.761 23.2636 88.1003 23.9521 84.3869 24.3383C81.917 26.6556 73.6501 34.6489 70.4913 37.7051C75.4312 42.5245 93.5779 60.2742 97.0056 63.4648Z" fill="#DB0D15"/>
</svg>
