<svg width="24" height="24" viewBox="0 0 24 24" fill="none" xmlns="http://www.w3.org/2000/svg">
<path opacity="0.1" fill-rule="evenodd" clip-rule="evenodd" d="M0 12C0 5.37258 5.37258 0 12 0C18.6274 0 24 5.37258 24 12C24 18.6274 18.6274 24 12 24C5.37258 24 0 18.6274 0 12Z" fill="#71B738"/>
<g clip-path="url(#clip0)">
<path d="M11.9999 5.01465C8.13398 5.01465 5 8.14871 5 12.0146C5 14.9802 6.84502 17.5154 9.44902 18.5353C9.38777 17.9814 9.33251 17.1297 9.47333 16.525C9.60048 15.9788 10.2941 13.0456 10.2941 13.0456C10.2941 13.0456 10.0847 12.6263 10.0847 12.0063C10.0847 11.033 10.6489 10.3063 11.3514 10.3063C11.9485 10.3063 12.237 10.7547 12.237 11.2924C12.237 11.893 11.8547 12.7909 11.6573 13.623C11.4924 14.3198 12.0067 14.888 12.6938 14.888C13.9381 14.888 14.8944 13.5761 14.8944 11.6825C14.8944 10.0065 13.69 8.83465 11.9705 8.83465C9.97872 8.83465 8.80961 10.3286 8.80961 11.8724C8.80961 12.4741 9.04135 13.1192 9.33057 13.4699C9.38771 13.5392 9.39614 13.6 9.37913 13.6706C9.32595 13.8918 9.2079 14.3672 9.18469 14.4645C9.15414 14.5926 9.08321 14.6198 8.9506 14.5581C8.07631 14.1511 7.52973 12.873 7.52973 11.8463C7.52973 9.63818 9.13405 7.61036 12.1549 7.61036C14.5832 7.61036 16.4703 9.34065 16.4703 11.6531C16.4703 14.0656 14.9492 16.0071 12.8379 16.0071C12.1286 16.0071 11.4617 15.6387 11.2335 15.2034C11.2335 15.2034 10.8825 16.5399 10.7974 16.8674C10.6393 17.4755 10.2127 18.2376 9.92737 18.7025C10.5824 18.9053 11.2784 19.0146 11.9999 19.0146C15.8661 19.0146 19 15.8807 19 12.0146C19 8.14871 15.8661 5.01465 11.9999 5.01465V5.01465Z" fill="#71B738"/>
</g>
<defs>
<clipPath id="clip0">
<rect width="14" height="14" fill="white" transform="translate(5 5)"/>
</clipPath>
</defs>
</svg>
