<svg width="580" height="520" viewBox="0 0 580 520" fill="none" xmlns="http://www.w3.org/2000/svg">
<path d="M57.0084 468.418C127.72 552.532 261.211 381.67 344.962 373.397C385.535 369.379 428.343 363.322 464.018 350.242C502.744 336.078 533.06 313.684 543.005 276.756C571.237 171.896 484.576 75.3081 377.636 38.7827C316.446 17.8964 248.612 16.6625 191.864 44.8023C35.9351 122.118 -13.7194 384.315 57.0084 468.418Z" fill="#E4EBEF"/>
<path d="M241.536 238.41C287.277 284.105 287.279 358.193 241.538 403.89C195.798 449.587 121.637 449.588 75.8945 403.893C30.1524 358.198 30.1513 284.11 75.8918 238.412C121.632 192.716 195.793 192.714 241.536 238.41Z" fill="white"/>
<path d="M295.608 77.4633C322.308 104.137 322.31 147.384 295.61 174.058C268.91 200.732 225.62 200.733 198.919 174.06C172.218 147.386 172.218 104.14 198.918 77.4649C225.618 50.7902 268.908 50.7897 295.608 77.4633Z" fill="white"/>
<path d="M478.157 175.022C512.516 209.347 512.517 265 478.159 299.325C443.8 333.651 388.092 333.653 353.733 299.328C319.373 265.003 319.371 209.35 353.73 175.025C388.088 140.698 443.796 140.697 478.156 175.022H478.157Z" fill="white"/>
<path d="M170.114 303.238C160.028 320.036 209.715 358.477 306.483 352.136C371.068 347.902 431.844 314.43 403.993 291.671C385.498 276.552 346.831 271.514 274.535 288.313C238.543 296.671 180.199 286.44 170.114 303.238Z" fill="#8AE4C2"/>
<path d="M204.672 310.17C209.382 317.359 220.354 314.279 231.707 314.961C243.07 315.642 245.036 320.09 250.122 320.09C255.213 320.09 254.815 312.563 257.173 308.12C259.525 303.673 269.713 304.011 276.764 304.011C283.815 304.011 300.662 306.071 302.622 312.23C304.572 318.389 300.662 322.831 306.924 325.568C313.191 328.309 322.203 322.837 326.123 322.15C330.033 321.469 337.095 323.861 346.106 321.469C349.323 320.616 351.589 318.791 353.168 316.812C356.025 313.249 356.675 309.15 356.675 309.15C356.675 309.15 355.488 310.202 353.807 311.634C351.407 313.695 348.013 316.57 345.714 318.384C341.794 321.463 331.601 316.672 326.907 317.702C322.197 318.722 319.072 320.433 313.975 313.931C308.884 307.439 316.719 301.961 320.253 297.17C366.476 264.663 358.249 227.033 352.771 210.615C347.277 194.187 334.447 161.482 332.326 143.799C330.086 125.042 341.407 109.682 341.407 109.682C341.407 109.682 332.396 113.443 320.259 130.552C328.969 109.929 335.693 96.4894 343.765 89.8367C329.27 97.3639 310.243 127.999 305.152 137.919C304.706 132.296 306.655 121.818 309.185 112.268C311.124 104.945 313.411 98.1687 315.237 94.5311C304.588 103.77 298.707 127.564 298.707 127.564L294.798 111.394C294.798 111.394 290.641 133.407 289.465 138.198C287.113 123.486 288.133 103.518 297.929 78.5378C290.485 91.5374 284.299 97.9541 278.821 128.401C277.253 118.813 273.252 115.836 273.252 115.836C273.252 115.836 273.891 132.473 271.539 142.398C268.402 132.478 264.24 122.333 264.24 122.333C264.24 122.333 259.939 123.712 260.331 132.602C256.029 114.124 246.609 102.842 237.99 99.7621C248.962 111.05 252.887 130.027 250.24 146.599C247.157 165.914 225.02 191.108 219.194 222.934C215.606 235.139 216.616 247.355 220.719 260.881C221.089 262.136 221.503 263.392 221.927 264.663C227.029 279.723 241.91 292.041 247.393 297.17C250.53 306.758 247.785 311.2 242.7 311.881C237.598 312.563 236.04 309.15 229.37 309.15C222.711 309.15 215.665 309.488 215.665 309.488C215.665 309.488 212.529 309.15 207.83 304.359C203.131 299.568 204.694 291.698 204.694 291.698C204.694 291.698 199.978 302.991 204.672 310.17Z" fill="#40D2F6"/>
<path d="M356.734 224.549C356.734 224.549 370.778 243.707 375.23 243.707C379.682 243.707 390.981 229.34 394.063 228.309C397.146 227.285 410.159 222.15 412.559 221.126C414.954 220.101 406.394 231.046 399.547 233.1C393.381 235.493 384.821 247.13 381.051 249.523C377.286 251.916 371.121 253.971 365.982 247.812C360.842 241.652 354.339 235.15 354.339 235.15L356.734 224.549Z" fill="#40D2F6" stroke="#1D1D1B" stroke-width="2.24325" stroke-miterlimit="10" stroke-linecap="round" stroke-linejoin="round"/>
<path d="M231.137 189.246C231.137 189.246 226.341 196.087 220.864 193.694C215.386 191.301 212.642 166.665 210.246 159.824C207.851 152.984 201.686 148.874 196.547 143.745C191.407 138.611 182.503 131.084 180.795 125.955C182.165 132.457 184.56 141.69 192.095 145.113C183.873 143.745 178.739 143.058 174.969 136.899C176.338 140.322 179.421 146.138 183.191 147.163C186.955 148.187 190.038 148.874 190.038 148.874C190.038 148.874 181.816 151.954 178.738 155.033C175.656 158.113 176.343 162.217 176.343 162.217C176.343 162.217 177.713 159.824 182.165 157.426C186.617 155.033 192.095 150.586 193.808 152.292C195.521 153.998 196.203 157.083 192.095 157.426C187.986 157.77 186.955 159.481 186.955 160.506C186.955 161.53 190.72 162.217 194.49 161.192C198.254 160.168 200.655 157.088 202.024 162.217C203.394 167.352 208.872 192.326 210.246 202.589C214.011 204.301 222.577 205.326 222.577 205.326L231.137 189.246Z" fill="#40D2F6" stroke="#1D1D1B" stroke-width="2.24325" stroke-miterlimit="10" stroke-linecap="round" stroke-linejoin="round"/>
<path d="M329.807 322.091C329.807 325.492 307.141 328.25 279.181 328.25C251.22 328.25 228.554 325.492 228.554 322.091C228.554 318.69 251.22 315.932 279.181 315.932C307.141 315.932 329.807 318.69 329.807 322.091Z" fill="#53D6A4"/>
<path d="M204.656 310.513C209.328 317.702 220.219 314.623 231.492 315.304C242.775 315.986 244.719 320.433 249.772 320.433C254.826 320.433 254.434 312.906 256.77 308.464C259.106 304.016 269.219 304.354 276.216 304.354C283.214 304.354 299.937 306.414 301.887 312.573C303.825 318.733 299.937 323.175 306.161 325.911C312.38 328.653 321.327 323.18 325.221 322.493C329.104 321.812 336.112 324.205 345.059 321.812C348.254 320.959 350.499 319.135 352.067 317.155C352.266 315.465 348.324 318.169 344.667 318.733C340.773 321.812 330.661 317.021 326 318.051C321.327 319.071 318.223 320.782 313.159 314.28C308.105 307.788 315.887 302.31 319.389 297.519C365.273 265.012 357.105 227.381 351.665 210.964C346.214 194.536 333.475 161.831 331.37 144.148C329.147 125.391 340.381 110.031 340.381 110.031C340.381 110.031 331.434 113.792 319.389 130.901C328.035 110.278 334.71 96.8382 342.723 90.1855C328.336 97.7128 309.443 128.347 304.395 138.267C303.949 132.645 305.887 122.167 308.401 112.617C302.692 122.569 298.047 138.643 301.409 142.747C302.697 144.325 323.706 103.298 327.186 106.168C313.363 133.788 311.489 141.036 312.617 142.001C314.765 143.842 324.2 122.591 335.779 115.128C321.58 134.909 331.45 160.275 332.041 161.225C347.245 202.294 349.146 225.643 341.756 251.733C336.246 271.171 319.185 284.326 295.426 288.313C279.852 289.804 211.922 280.474 220.332 218.888C212.862 235.311 221.342 263.735 221.766 265.012C226.83 280.072 241.604 292.39 247.044 297.519C250.159 307.106 247.436 311.549 242.383 312.23C237.319 312.911 235.691 310.524 229.156 309.499C222.55 308.464 215.547 309.376 215.547 309.837C215.547 309.837 212.432 309.499 207.771 304.708C203.109 299.917 204.656 292.047 204.656 292.047C204.656 292.047 199.995 303.335 204.656 310.513Z" fill="#00A9D2"/>
<path d="M256.507 199.537L271.243 210.809C271.243 210.809 298.643 208.738 318.443 220.697C325.349 220.235 327.422 219.087 330.414 218.856C329.264 221.614 322.154 228.111 319.131 231.738C314.528 237.259 310.613 246.69 306.548 253.069C300.452 262.63 294.405 264.529 288.052 262.791C282.639 261.31 274.954 257.646 271.936 242.318C269.17 228.288 264.793 212.418 256.507 199.537Z" fill="#A8139F" stroke="#1D1D1B" stroke-width="2.05622" stroke-miterlimit="10" stroke-linecap="round" stroke-linejoin="round"/>
<path d="M274.003 249.217C277.918 260.489 287.821 265.066 295.614 262.555C304.163 259.797 312.176 242.35 311.3 241.4C305.13 234.71 283.67 232.661 270.99 235.504C271.662 239.362 272.752 245.054 274.003 249.217Z" fill="#C267C3" stroke="#1D1D1B" stroke-width="2.05622" stroke-miterlimit="10" stroke-linecap="round" stroke-linejoin="round"/>
<path d="M259.574 196.473L254.434 201.608" stroke="#1D1D1B" stroke-width="2.05622" stroke-miterlimit="10" stroke-linecap="round" stroke-linejoin="round"/>
<path d="M329.786 215.932L332.498 222.215" stroke="#1D1D1B" stroke-width="2.05622" stroke-miterlimit="10" stroke-linecap="round" stroke-linejoin="round"/>
<path d="M295.141 212.767C295.141 212.767 295.195 222.961 290.286 222.95C285.383 222.939 287.821 211.694 287.821 211.694L295.141 212.767Z" fill="white" stroke="#1D1D1B" stroke-width="2.05622" stroke-miterlimit="10" stroke-linecap="round" stroke-linejoin="round"/>
<path d="M275.846 210.578C275.846 210.578 274.1 221.63 280.222 222.081C284.814 222.419 284.959 211.179 284.959 211.179L275.846 210.578Z" fill="white" stroke="#1D1D1B" stroke-width="2.05622" stroke-miterlimit="10" stroke-linecap="round" stroke-linejoin="round"/>
<path d="M310.227 216.887C310.227 216.887 308.406 225.455 304.518 224.881C301.092 224.377 303.584 214.945 303.584 214.945L310.227 216.887Z" fill="white" stroke="#1D1D1B" stroke-width="2.05622" stroke-miterlimit="10" stroke-linecap="round" stroke-linejoin="round"/>
<path d="M288.971 249.217C290.813 243.004 290.582 235.188 290.582 235.188" stroke="#1D1D1B" stroke-width="2.07342" stroke-miterlimit="10" stroke-linecap="round" stroke-linejoin="round"/>
<path d="M271.479 173.199C272.193 172.153 273.037 171.161 273.987 170.265C280.566 164.052 288.67 165.651 293.75 172.046C294.856 173.43 295.657 174.997 296.178 176.66C299.507 170.946 306.537 166.042 312.514 166.847C321.08 168.001 326.982 177.427 325.704 187.9C325.633 188.503 325.536 189.102 325.414 189.697C323.491 199.225 315.951 205.857 307.88 204.768C301.226 203.872 296.183 197.981 294.856 190.491C294.137 191.516 293.331 192.498 292.391 193.388C285.824 199.596 276.382 199.451 271.297 193.061C266.963 187.605 267.199 179.353 271.479 173.199Z" fill="#00A9D2"/>
<path d="M292.52 171.531C288.434 166.804 280.545 166.938 274.895 171.82C274.097 172.51 273.37 173.277 272.725 174.111C268.998 178.892 268.595 185.169 272.092 189.203C276.189 193.925 284.078 193.791 289.717 188.914C291.548 187.32 292.918 185.437 293.804 183.452C295.614 179.305 295.292 174.712 292.52 171.531Z" fill="white" stroke="#1D1D1B" stroke-width="1.38228" stroke-miterlimit="10"/>
<path d="M294.825 180.732C294.277 183.989 292.526 187.02 290.093 189.338C287.65 191.645 284.433 193.281 280.937 193.592C279.197 193.732 277.392 193.565 275.701 192.954C274.014 192.342 272.452 191.312 271.249 189.944C270.078 188.554 269.272 186.87 268.891 185.115C268.542 183.35 268.628 181.547 269.009 179.847C269.836 176.435 271.893 173.489 274.535 171.402C277.188 169.331 280.437 168.049 283.74 167.952C287.011 167.829 290.405 169.015 292.526 171.531C294.717 173.988 295.41 177.513 294.825 180.732ZM288.525 168.832C287 168.28 285.351 168.129 283.751 168.263C280.534 168.559 277.537 170.082 275.26 172.244C274.111 173.317 273.177 174.594 272.425 175.941C271.673 177.288 271.147 178.747 270.894 180.233C270.636 181.719 270.674 183.232 270.996 184.654C271.335 186.07 272 187.39 272.946 188.479C274.82 190.684 277.822 191.763 280.824 191.666C283.847 191.591 286.876 190.416 289.357 188.49C291.828 186.553 293.783 183.817 294.518 180.673C294.706 179.89 294.814 179.09 294.83 178.28C294.851 177.475 294.814 176.66 294.631 175.871C294.309 174.283 293.573 172.781 292.521 171.536C291.447 170.308 290.05 169.385 288.525 168.832Z" fill="#1D1D1B"/>
<path d="M288.74 182.631C287.843 179.004 284.175 176.783 280.539 177.679C276.909 178.575 274.686 182.24 275.583 185.872C276.479 189.499 280.147 191.72 283.783 190.824C287.419 189.928 289.637 186.263 288.74 182.631Z" fill="#E83C55"/>
<path d="M283.581 178.8C286.588 179.584 288.39 182.656 287.605 185.661C286.82 188.666 283.745 190.465 280.737 189.681C277.73 188.896 275.928 185.825 276.713 182.82C277.499 179.815 280.573 178.016 283.581 178.8V178.8Z" fill="#CE2041"/>
<path d="M283.156 179.92C283.725 180.051 284.263 180.293 284.739 180.631C285.214 180.97 285.618 181.398 285.928 181.893C286.238 182.388 286.447 182.938 286.544 183.514C286.64 184.089 286.623 184.678 286.492 185.246C286.361 185.815 286.119 186.352 285.78 186.827C285.441 187.302 285.012 187.706 284.517 188.015C284.022 188.325 283.471 188.534 282.895 188.63C282.319 188.727 281.73 188.709 281.161 188.578C280.011 188.314 279.014 187.604 278.389 186.606C277.763 185.607 277.56 184.401 277.825 183.252C278.09 182.104 278.8 181.108 279.8 180.483C280.8 179.858 282.007 179.656 283.156 179.92Z" fill="#1D1D1B"/>
<path d="M287.456 182.368C287.311 181.789 286.624 181.462 285.92 181.633C285.217 181.805 284.755 182.417 284.9 182.996C285.045 183.575 285.732 183.903 286.436 183.731C287.144 183.559 287.601 182.948 287.456 182.368Z" fill="white"/>
<path d="M285.458 180.534C285.383 180.228 285.018 180.051 284.642 180.142C284.266 180.233 284.024 180.56 284.1 180.866C284.175 181.172 284.54 181.349 284.916 181.258C285.292 181.167 285.534 180.845 285.458 180.534Z" fill="white"/>
<path d="M322.16 185.223C323.287 176.429 318.228 168.532 310.855 167.588C303.481 166.643 296.58 173.006 295.453 181.8C295.388 182.315 295.34 182.824 295.313 183.323C294.921 191.489 299.813 198.544 306.763 199.435C313.712 200.325 320.221 194.735 321.907 186.73C322.015 186.237 322.095 185.732 322.16 185.223Z" fill="white" stroke="#1D1D1B" stroke-width="0.69114" stroke-miterlimit="10"/>
<path d="M320.597 190.792C319.796 192.557 318.738 194.22 317.385 195.636C316.037 197.047 314.426 198.244 312.589 199.022C310.763 199.805 308.723 200.17 306.693 199.993C304.668 199.8 302.676 199.081 300.973 197.927C299.271 196.774 297.821 195.239 296.747 193.49C295.683 191.73 294.932 189.788 294.54 187.771C294.157 185.755 294.09 183.692 294.341 181.655C294.625 179.627 295.205 177.642 296.086 175.791C296.979 173.937 298.191 172.256 299.668 170.823C301.15 169.401 302.928 168.274 304.867 167.582C306.805 166.896 308.916 166.697 310.919 167.03C312.928 167.362 314.813 168.231 316.381 169.449C317.96 170.662 319.211 172.234 320.156 173.94C321.107 175.646 321.714 177.524 322.047 179.434C322.385 181.344 322.412 183.302 322.165 185.217C321.928 187.143 321.402 189.032 320.597 190.792ZM321.961 179.45C321.595 177.556 320.881 175.732 319.888 174.101C318.889 172.47 317.552 171.053 315.989 169.997C314.426 168.945 312.616 168.296 310.78 168.135C307.069 167.802 303.487 169.53 301.032 172.18C299.776 173.495 298.787 175.05 298.041 176.703C297.284 178.355 296.795 180.131 296.564 181.939C296.322 183.742 296.349 185.593 296.666 187.379C296.978 189.166 297.536 190.926 298.417 192.514C300.135 195.69 303.17 198.244 306.838 198.871C308.658 199.172 310.565 199 312.348 198.383C314.125 197.761 315.779 196.736 317.165 195.411C318.54 194.08 319.684 192.492 320.521 190.749C321.348 189.005 321.902 187.127 322.165 185.212C322.38 183.297 322.326 181.344 321.961 179.45Z" fill="#1D1D1B"/>
<path d="M317.039 185.738C318.847 190.128 316.75 195.151 312.356 196.956C307.961 198.762 302.934 196.668 301.126 192.278C299.318 187.888 301.415 182.866 305.809 181.059C310.204 179.253 315.231 181.348 317.038 185.738H317.039Z" fill="#E83C55"/>
<path d="M315.452 185.781C313.658 182.272 309.356 180.877 305.844 182.663C302.332 184.455 300.936 188.753 302.724 192.262C304.518 195.77 308.819 197.165 312.332 195.379C315.849 193.587 317.245 189.289 315.452 185.781Z" fill="#CE2041"/>
<path d="M314.12 186.457C312.702 183.683 309.303 182.578 306.521 183.994C303.744 185.41 302.638 188.807 304.056 191.586C305.474 194.359 308.873 195.465 311.655 194.048C314.431 192.632 315.538 189.236 314.12 186.457Z" fill="#1D1D1B"/>
<path d="M315.092 185.163C314.748 184.487 313.803 184.284 312.982 184.702C312.16 185.12 311.773 186.006 312.117 186.682C312.461 187.358 313.406 187.562 314.227 187.143C315.049 186.725 315.436 185.839 315.092 185.163Z" fill="white"/>
<path d="M312.085 183.473C311.902 183.114 311.397 183.007 310.962 183.227C310.527 183.447 310.318 183.919 310.5 184.278C310.683 184.638 311.188 184.745 311.623 184.525C312.058 184.305 312.267 183.833 312.085 183.473Z" fill="white"/>
<path d="M204.672 310.513C209.382 317.702 220.354 314.623 231.707 315.304C243.07 315.986 245.036 320.433 250.122 320.433C255.213 320.433 254.815 312.906 257.173 308.464C259.525 304.016 269.713 304.354 276.764 304.354C283.815 304.354 300.662 306.414 302.622 312.573C304.572 318.733 300.662 323.175 306.924 325.911C313.191 328.653 322.203 323.18 326.123 322.493C330.033 321.812 337.095 324.205 346.106 321.812C349.323 320.959 351.589 319.135 353.168 317.155C356.025 313.593 356.675 309.494 356.675 309.494C356.675 309.494 351.686 317.23 345.714 318.733C341.794 321.812 331.601 317.021 326.907 318.051C322.197 319.071 319.072 320.782 313.975 314.28C308.884 307.788 316.719 302.31 320.253 297.519C366.476 265.012 358.249 227.381 352.771 210.964C347.277 194.536 334.447 161.831 332.326 144.148C330.086 125.391 341.407 110.031 341.407 110.031C341.407 110.031 332.396 113.792 320.259 130.901C328.969 110.278 335.693 96.8383 343.765 90.1856C329.27 97.7128 310.243 128.347 305.152 138.267C304.706 132.645 306.655 122.167 309.185 112.617C311.124 105.294 313.411 98.5175 315.237 94.88C304.588 104.119 298.707 127.913 298.707 127.913L294.798 111.742C294.798 111.742 290.641 133.755 289.465 138.546C287.113 123.835 288.133 103.867 297.929 78.8867C290.485 91.8863 284.299 98.3029 278.821 128.75C277.253 119.162 273.252 116.185 273.252 116.185C273.252 116.185 273.891 132.822 271.539 142.747C268.402 132.827 264.24 122.682 264.24 122.682C264.24 122.682 259.939 124.061 260.331 132.951C256.029 114.473 246.609 103.191 237.99 100.111C248.962 111.399 252.887 130.375 250.24 146.948C247.157 166.262 225.02 191.457 219.194 223.282C216.648 236.244 217.019 249.121 221.927 265.012C227.029 280.072 241.91 292.39 247.393 297.519C250.53 307.106 247.785 311.549 242.7 312.23C237.598 312.911 235.992 310.309 229.37 309.499C222.437 308.652 215.665 309.837 215.665 309.837C215.665 309.837 212.529 309.499 207.83 304.708C203.131 299.917 204.694 292.047 204.694 292.047C204.694 292.047 199.978 303.335 204.672 310.513V310.513Z" stroke="#1D1D1B" stroke-width="2.24325" stroke-miterlimit="10" stroke-linecap="round" stroke-linejoin="round"/>
<path d="M369.365 224.162L375.874 217.66C376.223 217.311 376.771 217.263 377.179 217.536C378.323 218.314 405.255 236.701 409.766 249.872C409.9 250.258 409.788 250.687 409.487 250.961C409.294 251.138 409.047 251.229 408.794 251.229C408.652 251.23 408.511 251.2 408.381 251.143C407.194 250.623 379.263 238.235 369.284 225.52C369.128 225.323 369.05 225.076 369.065 224.826C369.08 224.575 369.187 224.339 369.365 224.162Z" fill="#1D1D1B"/>
<path d="M375.568 233.787C375.568 233.787 379.676 221.126 383.446 219.758C387.211 218.389 392.007 219.758 387.211 224.205C382.415 228.653 381.046 234.812 377.619 235.493C374.198 236.18 375.568 233.787 375.568 233.787Z" fill="#40D2F6" stroke="#1D1D1B" stroke-width="2.24325" stroke-miterlimit="10" stroke-linecap="round" stroke-linejoin="round"/>
<path d="M394.063 228.309C394.063 228.309 395.433 222.494 391.324 222.494C387.216 222.494 378.65 235.493 380.025 238.573C381.389 241.652 394.063 228.309 394.063 228.309Z" fill="#40D2F6" stroke="#1D1D1B" stroke-width="2.24325" stroke-miterlimit="10" stroke-linecap="round" stroke-linejoin="round"/>
<path d="M377.968 211.715C377.968 219.935 371.298 226.598 363.071 226.598C354.844 226.598 348.174 219.935 348.174 211.715C348.174 203.496 354.844 196.833 363.071 196.833C371.298 196.833 377.968 203.496 377.968 211.715Z" fill="#58696B" stroke="#1D1D1B" stroke-width="2.05622" stroke-miterlimit="10" stroke-linecap="round" stroke-linejoin="round"/>
<path d="M368.753 197.889C368.753 197.889 365.826 217.375 351.659 220.144" stroke="#1D1D1B" stroke-width="2.05622" stroke-miterlimit="10" stroke-linecap="round" stroke-linejoin="round"/>
<path d="M373.516 200.969C374.918 206.146 368.055 224.066 354.683 223.862" stroke="#1D1D1B" stroke-width="2.05622" stroke-miterlimit="10" stroke-linecap="round" stroke-linejoin="round"/>
<path d="M300.318 335.896H286.865" stroke="#1D1D1B" stroke-width="3.36487" stroke-miterlimit="10" stroke-linecap="round" stroke-linejoin="round"/>
<path d="M165.039 178.575C165.039 178.575 193.061 183.055 193.061 209.929C193.061 246.948 126.931 252.479 142.623 281.59C158.315 310.701 197.948 323.202 183.379 349.33C168.701 375.651 118.021 340.563 99.3162 363.139C85.8688 379.374 56.6701 346.025 74.0969 351.384C88.6667 355.864 85.0256 373.778 106.555 368.306C114.724 365.103 126.216 366.498 130.137 370.42" stroke="#1D1D1B" stroke-width="2.24325" stroke-miterlimit="10" stroke-linecap="round" stroke-linejoin="round"/>
<path d="M205.016 375.694H124.364C124.364 375.694 133.284 355.167 163.922 355.167C194.56 355.167 205.016 375.694 205.016 375.694Z" fill="#1D1D1B"/>
<path d="M162.427 362.211V177.084H168.404V362.211H162.427Z" fill="#1D1D1B"/>
<path d="M157.214 180.446V168.873H172.16V180.446H157.214Z" fill="#1D1D1B"/>
<path d="M199.5 65.3721L194.382 75.7267L182.943 77.3898L191.224 85.4482L189.27 96.8329L199.5 91.4571L209.736 96.8329L207.781 85.4482L216.057 77.3898L204.618 75.7267L199.5 65.3721Z" fill="#40D2F6" stroke="#1D1D1B" stroke-width="2.24325" stroke-miterlimit="10" stroke-linecap="round" stroke-linejoin="round"/>
<path d="M474.098 217.585L467.256 231.443L451.951 233.664L463.025 244.448L460.409 259.679L474.098 252.49L487.793 259.679L485.177 244.448L496.251 233.664L480.946 231.443L474.098 217.585Z" fill="#40D2F6" stroke="#1D1D1B" stroke-width="2.24325" stroke-miterlimit="10" stroke-linecap="round" stroke-linejoin="round"/>
<path d="M118.633 155.999L111.786 169.852L96.4805 172.078L107.56 182.862L104.944 198.093L118.633 190.899L132.322 198.093L129.707 182.862L140.786 172.078L125.48 169.852L118.633 155.999Z" fill="#53D6A4" stroke="#1D1D1B" stroke-width="2.24325" stroke-miterlimit="10" stroke-linecap="round" stroke-linejoin="round"/>
<path d="M107.645 295.679L102.533 306.034L91.0886 307.697L99.3697 315.76L97.4149 327.14L107.645 321.769L117.881 327.14L115.927 315.76L124.208 307.697L112.763 306.034L107.645 295.679Z" fill="#40D2F6" stroke="#1D1D1B" stroke-width="2.24325" stroke-miterlimit="10" stroke-linecap="round" stroke-linejoin="round"/>
<path d="M389.123 87.4065L384.005 97.7665L372.566 99.4243L380.842 107.488L378.887 118.873L389.123 113.497L399.353 118.873L397.398 107.488L405.68 99.4243L394.241 97.7665L389.123 87.4065Z" fill="#53D6A4" stroke="#1D1D1B" stroke-width="2.24325" stroke-miterlimit="10" stroke-linecap="round" stroke-linejoin="round"/>
<path d="M224.473 327.681H214.387" stroke="#1D1D1B" stroke-width="3.36487" stroke-miterlimit="10" stroke-linecap="round" stroke-linejoin="round"/>
<path d="M378.403 297.262H349.822" stroke="#1D1D1B" stroke-width="3.36487" stroke-miterlimit="10" stroke-linecap="round" stroke-linejoin="round"/>
</svg>
