<svg width="279" height="236" viewBox="0 0 279 236" fill="none" xmlns="http://www.w3.org/2000/svg">
<g opacity="0.2" clip-path="url(#clip0)">
<path fill-rule="evenodd" clip-rule="evenodd" d="M1.22357 199.141C42.8282 178.664 63.6303 154.603 63.6303 126.959C45.8971 124.911 31.2334 117.659 19.6386 105.202C8.04391 92.7447 2.24664 78.3255 2.24664 61.9436C2.24664 44.5379 7.87341 29.8627 19.1271 17.9176C30.3809 5.97246 44.5331 0 61.5842 0C80.6814 0 97.2207 7.76421 111.203 23.2928C125.184 38.8215 132.175 57.6774 132.175 79.8612C132.175 146.412 95.0045 198.458 20.6617 236L1.22357 199.141ZM148.048 199.141C189.994 178.664 210.966 154.603 210.966 126.959C192.892 124.911 178.058 117.659 166.463 105.202C154.869 92.7447 149.071 78.3255 149.071 61.9436C149.071 44.5379 154.783 29.8627 166.208 17.9176C177.632 5.97246 191.869 0 208.92 0C228.018 0 244.472 7.76421 258.283 23.2928C272.094 38.8215 279 57.6774 279 79.8612C279 146.412 242 198.458 167.998 236L148.048 199.141Z" fill="#FFA504"/>
</g>
<defs>
<clipPath id="clip0">
<rect width="279" height="236" fill="white" transform="translate(279 236) rotate(-180)"/>
</clipPath>
</defs>
</svg>
