<svg width="58" height="66" viewBox="0 0 58 66" fill="none" xmlns="http://www.w3.org/2000/svg">
<path d="M36.0091 63.7643C36.0091 63.7643 29.4977 48.4039 22.9377 46.2303C16.3199 44.0318 1.33976 51.9146 1.33976 51.9146C1.33976 51.9146 13.0588 39.5864 13.9283 31.1946C14.8128 22.5682 3.06659 11.1479 3.06659 11.1479C3.06659 11.1479 17.4884 19.175 24.1934 16.4842C31.8687 13.4116 37.7723 1.71455 37.7723 1.71455C37.7723 1.71455 34.7055 15.821 39.5515 22.4379C44.3177 28.939 56.4411 31.8526 56.4411 31.8526C56.4411 31.8526 42.5625 35.0427 38.772 40.8119C34.488 47.3514 36.0091 63.7643 36.0091 63.7643Z" fill="#FFEC00" stroke="#1D1D1B" stroke-width="2.37413" stroke-miterlimit="10" stroke-linecap="round" stroke-linejoin="round"/>
</svg>
