<svg width="580" height="507" viewBox="0 0 580 507" fill="none" xmlns="http://www.w3.org/2000/svg">
<path d="M377.908 471.808C537.349 392.623 588.12 124.093 515.803 37.9537C443.485 -48.1853 296.079 149.386 219.406 139.52C142.734 129.654 54.375 159.73 26.4437 229.598C-23.6672 354.959 218.472 550.994 377.908 471.808Z" fill="#E4EBEF"/>
<path d="M416.622 293.066C416.622 373.457 351.492 438.626 271.15 438.626C190.807 438.626 125.677 373.457 125.677 293.066C125.677 212.675 190.807 147.506 271.15 147.506C351.492 147.506 416.622 212.675 416.622 293.066Z" fill="white"/>
<path d="M440.187 393.842C440.187 416.967 421.452 435.714 398.341 435.714C375.23 435.714 356.495 416.967 356.495 393.842C356.495 370.718 375.23 351.971 398.341 351.971C421.452 351.971 440.187 370.718 440.187 393.842Z" fill="white"/>
<path d="M309.903 97.1388C309.903 97.1388 321.325 45.2512 329.236 37.3413C312.539 41.7369 299.355 63.7257 299.355 63.7257C299.355 63.7257 301.992 42.6182 305.51 37.3413C309.027 32.0644 280.903 65.4829 279.141 76.0366C277.38 86.5904 280.897 49.6522 281.778 47.0138C282.659 44.3753 251.897 84.8279 251.897 130.557C242.231 120.885 247.504 99.7772 247.504 99.7772C247.504 99.7772 240.474 145.507 243.987 172.767C236.957 157.818 236.076 143.744 236.076 143.744C236.076 143.744 235.195 192.112 236.957 217.615C229.046 207.061 229.046 199.146 229.046 199.146C229.046 199.146 214.106 239.599 232.564 253.667C251.022 267.735 310.783 151.654 309.027 129.671C307.271 107.687 309.903 97.1388 309.903 97.1388Z" fill="#F88004" stroke="#1D1E1C" stroke-width="1.79125" stroke-miterlimit="10" stroke-linecap="round" stroke-linejoin="round"/>
<path d="M474.23 139.934C474.23 171.125 448.96 196.411 417.788 196.411C386.615 196.411 361.345 171.125 361.345 139.934C361.345 108.743 386.615 83.4578 417.788 83.4578C448.96 83.4578 474.23 108.743 474.23 139.934Z" fill="white"/>
<path d="M381.71 389.523C381.71 401.42 344.716 411.065 299.081 411.065C253.446 411.065 216.453 401.42 216.453 389.523C216.453 377.625 253.446 367.98 299.081 367.98C344.716 367.98 381.71 377.625 381.71 389.523Z" fill="#1D1C1B"/>
<path d="M266.107 206.89C229.642 207.663 212.183 186.319 198.725 180.403C185.616 174.648 188.892 151.832 192.791 147.887C196.69 143.943 194.343 160.698 198.773 160.666C208.456 160.601 194.987 143.47 201.904 145.942C208.693 148.366 207.758 161.096 210.094 168.065C212.962 176.604 231.194 204.552 268.819 199.506C270.183 203.719 266.805 205.874 266.107 206.89Z" fill="#FFA504" stroke="#1D1E1C" stroke-width="1.79125" stroke-miterlimit="10" stroke-linecap="round" stroke-linejoin="round"/>
<path d="M349.998 190.597C367.844 183.213 383.273 161.198 386.297 148.768C391.409 139.547 407.896 122.271 417.01 134.502C423.379 143.04 406.677 158.672 394.782 168.941C382.886 179.21 352.947 201.661 349.612 199.909C346.277 198.152 341.846 194.482 349.998 190.597Z" fill="#FFA504" stroke="#1D1E1C" stroke-width="1.79125" stroke-miterlimit="10" stroke-linecap="round" stroke-linejoin="round"/>
<path d="M218.703 372.94L227.688 396.82L373.295 394.746L342.41 370.865L218.703 372.94Z" fill="#DC0EE1" stroke="#1D1E1C" stroke-width="1.30066" stroke-miterlimit="10" stroke-linecap="round" stroke-linejoin="round"/>
<path d="M223.429 354.465L222.328 377.437L228.944 394.74C228.944 394.74 233.278 378.345 229.809 365.884C226.86 360.698 223.429 354.465 223.429 354.465Z" fill="white" stroke="#1D1E1C" stroke-width="1.30066" stroke-miterlimit="10" stroke-linecap="round" stroke-linejoin="round"/>
<path d="M229.889 366.018C229.889 366.018 233.67 382.633 227.682 396.82C279.372 396.476 373.294 396.82 373.294 396.82C373.294 396.82 379.282 380.205 373.922 366.018C335.787 367.055 229.889 366.018 229.889 366.018Z" fill="#D321E4" stroke="#1D1E1C" stroke-width="1.30066" stroke-miterlimit="10" stroke-linecap="round" stroke-linejoin="round"/>
<path d="M220.91 350.268L229.889 366.018H374.084L344.617 350.268H220.91Z" fill="#DC0EE1" stroke="#1D1E1C" stroke-width="1.30066" stroke-miterlimit="10" stroke-linecap="round" stroke-linejoin="round"/>
<path d="M218.703 344.76L227.688 368.641L373.295 366.561L342.41 342.681L218.703 344.76Z" fill="#DC0EE1" stroke="#1D1E1C" stroke-width="1.30066" stroke-miterlimit="10" stroke-linecap="round" stroke-linejoin="round"/>
<path d="M223.429 326.286L222.328 349.258L228.944 366.561C228.944 366.561 233.278 350.166 229.809 337.705C226.86 332.514 223.429 326.286 223.429 326.286Z" fill="white" stroke="#1D1E1C" stroke-width="1.30066" stroke-miterlimit="10" stroke-linecap="round" stroke-linejoin="round"/>
<path d="M229.889 337.833C229.889 337.833 233.67 354.449 227.682 368.635C279.372 368.291 373.294 368.635 373.294 368.635C373.294 368.635 379.282 352.02 373.922 337.833C335.787 338.876 229.889 337.833 229.889 337.833Z" fill="#6ADF82" stroke="#1D1E1C" stroke-width="1.30066" stroke-miterlimit="10" stroke-linecap="round" stroke-linejoin="round"/>
<path d="M220.91 322.089L229.889 337.834H374.084L344.617 322.089H220.91Z" fill="#DC0EE1" stroke="#1D1E1C" stroke-width="1.30066" stroke-miterlimit="10" stroke-linecap="round" stroke-linejoin="round"/>
<path d="M220.04 321.739L229.889 337.49L375.501 335.415L343.746 319.665L220.04 321.739Z" fill="#DC0EE1" stroke="#1D1E1C" stroke-width="1.30066" stroke-miterlimit="10" stroke-linecap="round" stroke-linejoin="round"/>
<path d="M224.847 300.455L223.746 323.427L231.152 335.41C231.152 335.41 235.485 319.015 232.016 306.554C229.105 302.792 224.847 300.455 224.847 300.455Z" fill="white" stroke="#1D1E1C" stroke-width="1.30066" stroke-miterlimit="10" stroke-linecap="round" stroke-linejoin="round"/>
<path d="M232.096 306.688C232.096 306.688 235.877 323.304 229.889 337.49C281.579 337.146 375.501 337.49 375.501 337.49C375.501 337.49 381.489 320.875 376.13 306.688C337.995 307.726 232.096 306.688 232.096 306.688Z" fill="#B8A32A" stroke="#1D1E1C" stroke-width="1.30066" stroke-miterlimit="10" stroke-linecap="round" stroke-linejoin="round"/>
<path d="M220.754 297.601L232.097 306.688H376.291L344.456 297.601H220.754Z" fill="#DC0EE1" stroke="#1D1E1C" stroke-width="1.30066" stroke-miterlimit="10" stroke-linecap="round" stroke-linejoin="round"/>
<path d="M219.804 297.08L232.021 305.823L377.628 303.743L343.51 295.006L219.804 297.08Z" fill="#7A03E5" stroke="#1D1E1C" stroke-width="1.30066" stroke-miterlimit="10" stroke-linecap="round" stroke-linejoin="round"/>
<path d="M226.743 270.862L226.351 298.724L233.284 303.743C233.284 303.743 237.618 287.349 234.148 274.887C230.207 272.593 226.743 270.862 226.743 270.862Z" fill="white" stroke="#1D1E1C" stroke-width="1.30066" stroke-miterlimit="10" stroke-linecap="round" stroke-linejoin="round"/>
<path d="M234.223 275.016C234.223 275.016 238.004 291.632 232.016 305.818C283.706 305.474 377.628 305.818 377.628 305.818C377.628 305.818 383.616 289.203 378.257 275.016C340.122 276.053 234.223 275.016 234.223 275.016Z" fill="#7A03E5" stroke="#1D1E1C" stroke-width="1.30066" stroke-miterlimit="10" stroke-linecap="round" stroke-linejoin="round"/>
<path d="M220.518 266.45L234.223 275.016H378.418L344.219 266.45H220.518Z" fill="#7A03E5" stroke="#1D1E1C" stroke-width="1.30066" stroke-miterlimit="10" stroke-linecap="round" stroke-linejoin="round"/>
<path d="M221.227 305.78L233.563 319.23L185.203 411.571L179.945 384.128L221.227 305.78Z" fill="#DC0EE1" stroke="#1D1E1C" stroke-width="1.01259" stroke-miterlimit="10" stroke-linecap="round" stroke-linejoin="round"/>
<path d="M207.914 302.83L222.93 309.547L231.834 319.365C231.834 319.365 219.971 316.839 213.145 310.595C210.782 307.032 207.914 302.83 207.914 302.83Z" fill="white" stroke="#1D1E1C" stroke-width="1.01259" stroke-miterlimit="10" stroke-linecap="round" stroke-linejoin="round"/>
<path d="M213.193 310.692C213.193 310.692 222.569 318.473 233.557 319.23C216.64 352.133 186.523 412.242 186.523 412.242C186.523 412.242 173.989 410.7 166.669 402.693C179.649 378.668 213.193 310.692 213.193 310.692Z" fill="#6ADF82" stroke="#1D1E1C" stroke-width="1.30066" stroke-miterlimit="10" stroke-linecap="round" stroke-linejoin="round"/>
<path d="M206.05 299.864L213.193 310.691L166.621 402.795L166.089 378.882L206.05 299.864Z" fill="#6ADF82" stroke="#1D1E1C" stroke-width="1.30066" stroke-miterlimit="10" stroke-linecap="round" stroke-linejoin="round"/>
<path d="M192.802 314.625L201.636 330.601L132.965 408.996L134.292 381.086L192.802 314.625Z" fill="#DC0EE1" stroke="#1D1E1C" stroke-width="1.01259" stroke-miterlimit="10" stroke-linecap="round" stroke-linejoin="round"/>
<path d="M180.552 308.634L193.57 318.688L199.917 330.321C199.917 330.321 188.983 325.077 183.806 317.409C182.356 313.389 180.552 308.634 180.552 308.634Z" fill="white" stroke="#1D1E1C" stroke-width="1.01259" stroke-miterlimit="10" stroke-linecap="round" stroke-linejoin="round"/>
<path d="M183.844 317.51C183.844 317.51 191.132 327.28 201.636 330.595C177.469 358.608 134.093 409.958 134.093 409.958C134.093 409.958 122.273 405.514 117.031 396.014C135.285 375.712 183.844 317.51 183.844 317.51Z" fill="#B8A32A" stroke="#1D1E1C" stroke-width="1.30066" stroke-miterlimit="10" stroke-linecap="round" stroke-linejoin="round"/>
<path d="M179.44 305.313L183.844 317.511L116.961 396.1L122.058 372.735L179.44 305.313Z" fill="#B8A32A" stroke="#1D1E1C" stroke-width="1.30066" stroke-miterlimit="10" stroke-linecap="round" stroke-linejoin="round"/>
<path d="M198.064 269.239C204.713 270.798 207.602 276.73 213.246 284.635C207.028 288.23 210.846 288.16 210.846 288.16C210.846 288.16 193.151 285.908 190.433 280.567C187.716 275.226 189.252 267.944 198.064 269.239Z" fill="#FFA504" stroke="#1D1E1C" stroke-width="1.79125" stroke-miterlimit="10" stroke-linecap="round" stroke-linejoin="round"/>
<path d="M215.69 287.703C215.69 287.703 218.778 271.695 244.808 262.2C235.12 257.821 230.12 262.308 230.12 262.308C230.12 262.308 210.26 274.318 205.953 281.051C201.125 278.117 196.813 272.082 190.401 273.565C183.989 275.048 184.15 280.895 186.266 285.645C186.84 286.93 200.212 285.941 203.816 290.057C208.107 294.952 215.282 292.744 215.69 287.703Z" fill="#FFA504" stroke="#1D1E1C" stroke-width="1.79125" stroke-miterlimit="10" stroke-linecap="round" stroke-linejoin="round"/>
<path d="M393.776 275.962C393.776 275.962 394.324 261.255 399.361 255.107C403.346 250.25 414.377 252.399 412.868 258.224C411.353 264.049 403.572 275.097 400.946 274.63C398.319 274.157 393.776 275.962 393.776 275.962Z" fill="#FFA504" stroke="#1D1E1C" stroke-width="1.79125" stroke-miterlimit="10" stroke-linecap="round" stroke-linejoin="round"/>
<path d="M363.789 266.967C363.789 266.967 378.466 269.847 384.98 274.377C388.61 276.268 390.399 279.74 392.713 283.818C394.529 287.026 402.52 287.349 403.846 282.179C404.926 277.977 403.642 276.086 406.666 274.033C410.747 271.26 417.449 270.986 418.733 264.898C420.301 257.461 411.622 251.947 405.259 257.063C397.933 262.947 398.744 269.852 398.744 269.852C398.744 269.852 394.588 266.886 388.417 264.221C375.034 258.433 362.231 261.539 362.231 261.539C362.231 261.539 358.273 264.237 363.789 266.967Z" fill="#FFA504" stroke="#1D1E1C" stroke-width="1.79125" stroke-miterlimit="10" stroke-linecap="round" stroke-linejoin="round"/>
<path d="M338.843 130.81C334.966 118.386 320.535 109.799 311.298 111.4C300.568 113.26 288.797 118.386 279.49 125.372C270.183 132.358 253.884 163.412 250.006 189.033C246.129 214.654 232.161 257.348 232.161 257.348L240.694 268.218L366.382 269.771L370.26 249.588L346.206 184.379C346.211 184.379 342.103 141.245 338.843 130.81Z" fill="#FDA917" stroke="#1D1E1C" stroke-width="1.79125" stroke-miterlimit="10" stroke-linecap="round" stroke-linejoin="round"/>
<path d="M232.161 257.348L240.689 268.224L366.377 269.771L370.265 249.588L350.352 195.616L346.211 184.379C346.211 184.379 342.103 141.245 338.843 130.815C334.955 118.391 320.535 109.799 311.298 111.406C300.568 113.27 288.802 118.391 279.49 125.377C270.178 132.363 253.884 163.422 250.001 189.038C249.002 195.642 247.327 203.375 245.404 211.22C239.856 233.827 232.161 257.348 232.161 257.348Z" fill="#FFA504" stroke="#1D1E1C" stroke-width="1.79125" stroke-miterlimit="10" stroke-linecap="round" stroke-linejoin="round"/>
<path d="M235.362 247.648C233.327 253.764 227.913 259.685 220.642 261.142C225.878 260.851 225.878 263.764 225.878 263.764L220.932 270.459L228.499 267.837L230.534 274.533C230.534 274.533 237.693 267.445 251.946 267.735" fill="#FDA917"/>
<path d="M235.362 247.648C233.327 253.764 227.913 259.685 220.642 261.142C225.878 260.851 225.878 263.764 225.878 263.764L220.932 270.459L228.499 267.837L230.534 274.533C230.534 274.533 237.693 267.445 251.946 267.735" stroke="#1D1E1C" stroke-width="1.79125" stroke-miterlimit="10" stroke-linecap="round" stroke-linejoin="round"/>
<path d="M350.288 269.481C368.907 269.772 376.882 273.657 376.882 273.657L371.936 265.215L380.083 265.795L372.516 259.68L379.498 258.514C372.806 257.348 369.487 247.057 369.487 247.057" fill="#FDA917"/>
<path d="M350.288 269.481C368.907 269.772 376.882 273.657 376.882 273.657L371.936 265.215L380.083 265.795L372.516 259.68L379.498 258.514C372.806 257.348 369.487 247.057 369.487 247.057" stroke="#1D1E1C" stroke-width="1.79125" stroke-miterlimit="10" stroke-linecap="round" stroke-linejoin="round"/>
<path d="M304.742 191.29C291.756 192.762 284.41 169.828 280.296 165.126C298.394 175.062 320.257 172.773 329.95 170.478C318.313 175.766 317.727 189.818 304.742 191.29Z" fill="#1D1E1C"/>
<path d="M302.862 164.357C302.862 164.763 302.701 165.153 302.414 165.44C302.127 165.727 301.737 165.889 301.331 165.889C300.925 165.889 300.536 165.727 300.249 165.44C299.962 165.153 299.801 164.763 299.801 164.357C299.801 163.951 299.962 163.561 300.249 163.274C300.536 162.987 300.925 162.826 301.331 162.826C301.737 162.826 302.127 162.987 302.414 163.274C302.701 163.561 302.862 163.951 302.862 164.357Z" fill="#1D1E1C"/>
<path d="M312.384 164.863C312.384 165.269 312.223 165.658 311.936 165.946C311.649 166.233 311.259 166.394 310.853 166.394C310.447 166.394 310.058 166.233 309.771 165.946C309.484 165.658 309.323 165.269 309.323 164.863C309.323 164.457 309.484 164.067 309.771 163.78C310.058 163.493 310.447 163.331 310.853 163.331C311.259 163.331 311.649 163.493 311.936 163.78C312.223 164.067 312.384 164.457 312.384 164.863Z" fill="#1D1E1C"/>
<path d="M305.676 211.548C305.676 211.548 305.096 214.461 302.766 215.234C300.44 216.008 298.695 211.548 298.695 211.548" fill="#FDA917"/>
<path d="M305.676 211.548C305.676 211.548 305.096 214.461 302.766 215.234C300.44 216.008 298.695 211.548 298.695 211.548" stroke="#1D1E1C" stroke-width="1.79125" stroke-miterlimit="10" stroke-linecap="round" stroke-linejoin="round"/>
<path d="M248.455 298.501V284.53H373.369V298.501H248.455Z" fill="#9F51DD" stroke="#1D1E1C" stroke-width="1.30066" stroke-miterlimit="10" stroke-linecap="round" stroke-linejoin="round"/>
<path d="M242.634 361.378V347.406H367.549V361.378H242.634Z" fill="#A0EEB5" stroke="#1D1E1C" stroke-width="1.30066" stroke-miterlimit="10" stroke-linecap="round" stroke-linejoin="round"/>
<path d="M241.472 390.494V376.523H366.387V390.494H241.472Z" fill="#D347E8" stroke="#1D1E1C" stroke-width="1.30066" stroke-miterlimit="10" stroke-linecap="round" stroke-linejoin="round"/>
<path d="M308.495 105.113C300.993 117.559 304.162 146.555 333.817 143.277C363.467 139.999 361.689 110.707 350.674 100.105C339.66 89.5031 319.623 86.6551 308.495 105.113Z" fill="#7A03E5" stroke="#1D1E1C" stroke-width="2.02187" stroke-miterlimit="10" stroke-linecap="round" stroke-linejoin="round"/>
<path d="M314.73 111.992C309.376 121.068 311.787 142.304 333.156 140.031C354.525 137.763 353.112 116.317 345.127 108.51C337.135 100.707 322.668 98.5254 314.73 111.992Z" fill="white" stroke="#1D1E1C" stroke-width="2.02187" stroke-miterlimit="10" stroke-linecap="round" stroke-linejoin="round"/>
<path d="M345.943 73.0547L333.989 90.7876" stroke="#1D1E1C" stroke-width="3.03239" stroke-miterlimit="10" stroke-linecap="round" stroke-linejoin="round"/>
<path d="M356.244 84.4465L343.774 93.6676" stroke="#1D1E1C" stroke-width="3.03239" stroke-miterlimit="10" stroke-linecap="round" stroke-linejoin="round"/>
<path d="M359.492 97.4612L352.704 100.648" stroke="#1D1E1C" stroke-width="3.03239" stroke-miterlimit="10" stroke-linecap="round" stroke-linejoin="round"/>
<path d="M338.043 125.383C338.043 130.013 334.292 133.765 329.665 133.765C325.038 133.765 321.288 130.013 321.288 125.383C321.288 120.753 325.038 117 329.665 117C334.292 117 338.043 120.753 338.043 125.383Z" fill="#1D1E1C"/>
<path d="M336.899 121.154C336.899 121.838 336.628 122.494 336.144 122.978C335.661 123.461 335.005 123.733 334.322 123.733C333.638 123.733 332.982 123.461 332.499 122.978C332.015 122.494 331.744 121.838 331.744 121.154C331.744 120.47 332.015 119.814 332.499 119.33C332.982 118.846 333.638 118.574 334.322 118.574C335.005 118.574 335.661 118.846 336.144 119.33C336.628 119.814 336.899 120.47 336.899 121.154Z" fill="white"/>
<path d="M251.36 114.324C245.453 124.125 247.166 150.752 270.183 146.044C294.516 141.068 293.48 120.09 284.576 110.38C276.44 101.513 260.119 99.7883 251.36 114.324Z" fill="#7A03E5" stroke="#1D1E1C" stroke-width="1.79125" stroke-miterlimit="10" stroke-linecap="round" stroke-linejoin="round"/>
<path d="M283.647 120.439C288.195 130.665 282.589 144.588 264.619 143.309C252.413 142.439 249.309 130.095 254.813 121.53C261.295 111.438 278.088 107.962 283.647 120.439Z" fill="white" stroke="#1D1E1C" stroke-width="1.79125" stroke-miterlimit="10" stroke-linecap="round" stroke-linejoin="round"/>
<path d="M279.663 130.74C279.663 134.842 276.34 138.167 272.241 138.167C268.142 138.167 264.819 134.842 264.819 130.74C264.819 126.639 268.142 123.314 272.241 123.314C276.34 123.314 279.663 126.639 279.663 130.74Z" fill="#1D1E1C"/>
<path d="M256.011 93.1733L262.977 103.507" stroke="#1D1E1C" stroke-width="2.68687" stroke-miterlimit="10" stroke-linecap="round" stroke-linejoin="round"/>
<path d="M250.49 102.066L256.972 107.59" stroke="#1D1E1C" stroke-width="2.68687" stroke-miterlimit="10" stroke-linecap="round" stroke-linejoin="round"/>
<path d="M245.442 112.158L251.21 112.877" stroke="#1D1E1C" stroke-width="2.68687" stroke-miterlimit="10" stroke-linecap="round" stroke-linejoin="round"/>
<path d="M278.829 126.941C278.829 127.546 278.589 128.127 278.161 128.556C277.733 128.984 277.152 129.225 276.547 129.225C275.941 129.225 275.361 128.984 274.933 128.556C274.505 128.127 274.264 127.546 274.264 126.941C274.264 126.335 274.505 125.754 274.933 125.326C275.361 124.898 275.941 124.657 276.547 124.657C277.152 124.657 277.733 124.898 278.161 125.326C278.589 125.754 278.829 126.335 278.829 126.941Z" fill="white"/>
<path d="M225.18 260.459L227.312 262.985L224.014 268.417L229.836 266.478L230.808 272.496L240.695 268.229L366.383 269.777L374.535 271.717C374.535 271.717 371.431 266.091 370.851 264.731C370.271 263.372 376.28 264.538 376.28 264.538C376.28 264.538 371.044 260.658 371.044 259.105C371.044 257.552 373.568 258.718 375.507 258.132C373.182 256.192 368.719 249.207 368.719 249.207L365.808 241.834C365.808 241.834 346.797 258.525 307.62 258.912C272.337 259.261 244.389 248.82 239.003 240.931C237.907 244.446 236.737 247.826 235.464 250.953C232.231 258.89 225.18 260.459 225.18 260.459Z" fill="#EA5F03"/>
<path d="M344.466 177.001C344.466 177.001 339.423 232.898 306.449 238.717C283.561 237.551 254.469 213.096 250.973 191.36C246.317 213.096 237.397 244.537 237.397 244.537C237.397 244.537 267.364 266.273 308.388 261.614C333.408 260.448 354.068 254.822 366.866 244.73C360.271 223.381 345.239 185.535 345.239 185.535L344.466 177.001Z" fill="#F88004"/>
<path d="M365.029 259.293C365.029 259.293 363.091 263.565 360.76 263.952C358.429 264.339 357.076 259.879 357.076 259.879" stroke="#1D1E1C" stroke-width="1.79125" stroke-miterlimit="10" stroke-linecap="round" stroke-linejoin="round"/>
<path d="M340.589 209.028C340.589 209.028 340.589 211.747 338.264 212.521C335.938 213.295 333.414 208.448 333.414 208.448" fill="#FDA917"/>
<path d="M340.589 209.028C340.589 209.028 340.589 211.747 338.264 212.521C335.938 213.295 333.414 208.448 333.414 208.448" stroke="#1D1E1C" stroke-width="1.79125" stroke-miterlimit="10" stroke-linecap="round" stroke-linejoin="round"/>
<path d="M260.382 208.738C260.382 208.738 258.057 212.231 256.113 212.231C254.174 212.231 252.042 208.157 252.042 208.157" stroke="#1D1E1C" stroke-width="1.79125" stroke-miterlimit="10" stroke-linecap="round" stroke-linejoin="round"/>
<path d="M299.468 249.588C299.468 249.588 296.944 255.413 295.005 255.8C293.066 256.187 290.542 249.782 290.542 249.782" stroke="#1D1E1C" stroke-width="1.79125" stroke-miterlimit="10" stroke-linecap="round" stroke-linejoin="round"/>
<path d="M260.189 251.92C260.189 251.92 258.444 255.8 256.505 256.579C254.566 257.353 251.849 253.086 251.849 251.92" stroke="#1D1E1C" stroke-width="1.79125" stroke-miterlimit="10" stroke-linecap="round" stroke-linejoin="round"/>
<path d="M322.163 233.483C322.163 233.483 320.418 237.363 318.479 238.142C316.54 238.921 313.823 234.649 313.823 233.483" stroke="#1D1E1C" stroke-width="1.79125" stroke-miterlimit="10" stroke-linecap="round" stroke-linejoin="round"/>
<path d="M278.91 232.317C278.91 232.317 277.745 234.644 275.419 235.423C273.094 236.203 269.99 231.737 269.99 231.737" stroke="#1D1E1C" stroke-width="1.79125" stroke-miterlimit="10" stroke-linecap="round" stroke-linejoin="round"/>
<path d="M337.098 255.413C337.098 255.413 335.739 259.685 333.414 260.459C331.088 261.233 328.178 254.833 328.178 254.833" stroke="#1D1E1C" stroke-width="1.79125" stroke-miterlimit="10" stroke-linecap="round" stroke-linejoin="round"/>
<path d="M357.463 234.451C357.463 234.451 357.656 238.137 354.939 239.497C352.221 240.856 350.089 235.031 350.089 235.031" stroke="#1D1E1C" stroke-width="1.79125" stroke-miterlimit="10" stroke-linecap="round" stroke-linejoin="round"/>
<path d="M197.447 227.997C197.447 231.777 194.384 234.843 190.605 234.843C186.826 234.843 183.763 231.777 183.763 227.997C183.763 224.216 186.826 221.151 190.605 221.151C194.384 221.151 197.447 224.216 197.447 227.997Z" fill="#FFA504"/>
<path d="M414.05 393.16C414.05 396.941 410.987 400.006 407.208 400.006C403.429 400.006 400.366 396.941 400.366 393.16C400.366 389.38 403.429 386.314 407.208 386.314C410.987 386.314 414.05 389.38 414.05 393.16Z" fill="#FFA504"/>
<path d="M443.582 224.601C443.582 228.649 440.302 231.93 436.257 231.93C432.211 231.93 428.931 228.649 428.931 224.601C428.931 220.553 432.211 217.271 436.257 217.271C440.302 217.271 443.582 220.553 443.582 224.601Z" fill="white"/>
<path d="M267.466 441.582C267.466 445.843 264.013 449.299 259.754 449.299C255.495 449.299 252.042 445.843 252.042 441.582C252.042 437.321 255.495 433.866 259.754 433.866C264.013 433.866 267.466 437.321 267.466 441.582Z" fill="#2ED54B"/>
<path d="M220.572 90.395C220.572 93.8137 217.802 96.5854 214.385 96.5854C210.969 96.5854 208.199 93.8137 208.199 90.395C208.199 86.9763 210.969 84.2046 214.385 84.2046C217.802 84.2046 220.572 86.9763 220.572 90.395Z" fill="#2ED54B"/>
<path d="M419.582 44.9824C419.582 48.4011 416.812 51.1728 413.395 51.1728C409.979 51.1728 407.208 48.4011 407.208 44.9824C407.208 41.5637 409.979 38.792 413.395 38.792C416.812 38.792 419.582 41.5637 419.582 44.9824Z" fill="#2ED54B"/>
<path d="M521.63 245.273C521.63 248.692 518.86 251.463 515.443 251.463C512.026 251.463 509.256 248.692 509.256 245.273C509.256 241.854 512.026 239.083 515.443 239.083C518.86 239.083 521.63 241.854 521.63 245.273Z" fill="#2ED54B"/>
<path d="M117.429 226.057C132.702 203.343 200.89 163.67 209.949 161.939C196.411 141.407 163.104 86.451 144.973 60.8296C112.112 70.0991 70.9804 102.674 52.1304 123.695C73.193 157.06 89.5672 183.31 117.429 226.057Z" fill="#EBFBF0" stroke="#1D1E1C" stroke-width="1.79125" stroke-miterlimit="10" stroke-linecap="round" stroke-linejoin="round"/>
<path d="M195.503 145.56C195.503 145.56 198.51 146.237 198.51 151.675C198.51 157.114 202.876 178.947 199.386 178.947C195.895 178.947 188.328 173.122 189.88 157.597C191.142 144.98 195.503 145.56 195.503 145.56Z" fill="#FFA504" stroke="#1D1E1C" stroke-width="1.79125" stroke-miterlimit="10" stroke-linecap="round" stroke-linejoin="round"/>
<path d="M395.334 182.697L392.783 182.117C392.783 182.117 389.958 191.924 391.661 192.311C393.358 192.698 395.334 182.697 395.334 182.697Z" fill="#1D1D1B"/>
<path d="M421.553 61.9311C418.159 61.1573 414.781 63.2852 414.007 66.6867L412.01 75.4887L424.302 78.283L426.3 69.481C427.073 66.0795 424.947 62.6995 421.553 61.9311Z" fill="#B8A32A" stroke="#1D1E1C" stroke-width="1.30066" stroke-miterlimit="10" stroke-linecap="round" stroke-linejoin="round"/>
<path d="M419.748 127.048C419.039 126.887 419.313 121.723 419.313 121.723C419.313 121.723 425.629 115.248 426.853 109.853C428.077 104.457 428.19 95.0805 428.19 95.0805L426.488 94.6936L428.743 84.7578L432.148 85.5316C432.148 85.5316 430.344 104.006 429.119 109.396C427.573 116.21 422.455 120.347 420.521 122.292C420.011 124.571 420.457 127.209 419.748 127.048Z" fill="#1D1D1B"/>
<path d="M408.922 164.889L412.595 148.709C418.234 123.873 428.319 79.4382 428.319 79.4382L407.891 74.7954C407.891 74.7954 397.805 119.219 392.166 144.067L388.493 160.247C387.881 162.949 389.218 182.907 391.613 186.034L394.54 186.701C398.208 184.906 408.336 167.479 408.922 164.889Z" fill="#7A03E5" stroke="#1D1D1B" stroke-width="1.79125" stroke-miterlimit="10"/>
<path d="M408.922 164.889L412.595 148.709L392.166 144.066L388.493 160.246C387.881 162.949 389.218 182.907 391.613 186.034L394.54 186.701C398.208 184.906 408.336 167.479 408.922 164.889Z" fill="#B8A32A" stroke="#1D1E1C" stroke-width="1.30066" stroke-miterlimit="10" stroke-linecap="round" stroke-linejoin="round"/>
<path d="M408.922 164.889L412.595 148.709C418.234 123.873 428.319 79.4382 428.319 79.4382L407.891 74.7954C407.891 74.7954 397.805 119.219 392.166 144.067L388.493 160.247C387.881 162.949 389.218 182.907 391.613 186.034L394.54 186.701C398.208 184.906 408.336 167.479 408.922 164.889Z" stroke="#1D1D1B" stroke-width="1.00226" stroke-miterlimit="10" stroke-linecap="round" stroke-linejoin="round"/>
<path d="M428.894 84.7995L426.639 94.7353L402.805 89.3181L405.061 79.3823L428.895 84.7995H428.894Z" fill="#B8A32A" stroke="#1D1E1C" stroke-width="1.30066" stroke-miterlimit="10" stroke-linecap="round" stroke-linejoin="round"/>
<path d="M421.553 61.9311C418.159 61.1573 414.781 63.2852 414.007 66.6867L412.01 75.4887L424.302 78.283L426.3 69.481C427.073 66.0795 424.947 62.6995 421.553 61.9311V61.9311Z" stroke="#1D1D1B" stroke-width="1.00226" stroke-miterlimit="10" stroke-linecap="round" stroke-linejoin="round"/>
<path d="M406.537 134.953C406.537 134.953 408.175 139.816 401.881 143.459C395.592 147.097 384.449 154.26 384.099 150.88C383.75 147.5 388.503 139.413 392.859 136.006C397.209 132.599 405.081 132.244 406.537 134.953Z" fill="#FFA504" stroke="#1D1E1C" stroke-width="1.79125" stroke-miterlimit="10" stroke-linecap="round" stroke-linejoin="round"/>
<path d="M425.333 132.621C423.808 132.481 417.422 132.868 415.301 137.909C413.18 142.949 407.944 162.847 412.202 160.752C421.3 155.421 434.017 134.749 425.333 132.621Z" fill="#FFA504" stroke="#1D1E1C" stroke-width="1.79125" stroke-miterlimit="10" stroke-linecap="round" stroke-linejoin="round"/>
<path d="M161.466 115.603C157.18 112.282 152.9 108.956 148.614 105.635C146.509 104.001 144.399 102.368 142.293 100.734C140.489 99.3315 138.722 97.6335 136.601 96.7253C134.705 95.9139 132.305 95.7527 131.123 97.7786C130.93 98.1064 130.881 98.633 131.123 98.9554C136.311 105.812 141.815 112.427 147.648 118.746C149.302 120.541 150.983 122.309 152.685 124.056C153.061 123.405 153.442 122.76 153.818 122.11C149.318 120.923 144.812 119.73 140.312 118.542C138.126 117.962 135.913 117.215 133.663 116.941C131.816 116.715 129.802 117.059 128.577 118.574C127.391 120.047 127.085 122.18 128.47 123.631C129.227 124.426 130.355 123.749 130.457 122.809C130.672 120.788 128.69 119.343 126.827 119.66C126.317 119.746 125.989 120.305 125.973 120.783C125.833 125.13 125.688 129.477 125.549 133.825L125.452 136.753C125.425 137.592 125.447 138.516 125.108 139.306C124.485 140.767 122.552 140.741 121.215 140.805C116.967 141.009 112.708 140.923 108.46 141.031C106.339 141.084 104.212 141.187 102.102 141.396C101.237 141.482 100.345 141.563 99.5291 141.885C98.3369 142.358 97.4401 143.315 97.5421 144.669C97.6388 145.931 98.4013 147.065 99.1317 148.054C100.136 149.403 101.258 150.66 102.359 151.934C102.95 152.616 103.535 153.299 104.105 153.992C104.362 154.304 104.615 154.621 104.862 154.938C104.717 154.75 104.937 155.034 104.942 155.05L105.136 155.308C105.286 155.507 105.431 155.711 105.571 155.916C106.092 156.663 106.575 157.431 106.972 158.253C107.01 158.328 107.23 158.834 107.123 158.576C107.203 158.769 107.279 158.968 107.343 159.167C107.472 159.548 107.569 159.935 107.628 160.333C107.574 159.983 107.633 160.499 107.638 160.591C107.644 160.779 107.633 160.961 107.628 161.15C107.628 161.225 107.569 161.488 107.633 161.155C107.612 161.257 107.595 161.364 107.574 161.467C107.531 161.649 107.472 161.827 107.407 161.999C107.515 161.703 107.332 162.149 107.279 162.24C107.181 162.416 107.071 162.585 106.951 162.745C107.123 162.514 106.94 162.756 106.908 162.788C106.822 162.88 106.742 162.977 106.65 163.063C106.484 163.229 106.307 163.385 106.129 163.53C105.641 163.928 105.716 164.766 106.129 165.174C106.613 165.658 107.289 165.572 107.773 165.174C114.018 160.064 105.544 152.165 102.187 148.172C101.94 147.877 101.693 147.581 101.452 147.275C101.393 147.205 101.339 147.13 101.28 147.06C101.457 147.286 101.269 147.049 101.242 147.012C101.124 146.85 101.001 146.689 100.888 146.528C100.544 146.044 100.238 145.539 99.9802 145.007C100.152 145.362 99.9749 144.986 99.9426 144.889C99.9104 144.782 99.8889 144.669 99.8567 144.567C99.7654 144.293 99.9373 144.868 99.8567 144.524C99.8191 144.368 99.8782 144.115 99.8406 144.481C99.8514 144.395 99.8889 144.319 99.9104 144.239C99.7923 144.733 99.9426 144.287 99.948 144.239C99.9426 144.287 99.7654 144.507 99.8889 144.325C99.9158 144.287 99.9749 144.26 99.9963 144.223C100.088 144.067 99.7601 144.362 99.9319 144.276C99.9964 144.239 100.066 144.196 100.131 144.158C100.184 144.126 100.243 144.104 100.297 144.072C100.507 143.959 100.029 144.164 100.27 144.088C100.415 144.045 100.555 143.992 100.7 143.954C100.834 143.916 100.974 143.89 101.113 143.863L101.387 143.814C101.522 143.793 101.511 143.793 101.366 143.814C101.436 143.804 101.5 143.798 101.57 143.793C103.772 143.562 105.979 143.438 108.192 143.379C112.445 143.266 116.698 143.358 120.946 143.159C122.922 143.067 125.226 142.976 126.585 141.31C127.912 139.687 127.756 137.409 127.82 135.437C127.981 130.558 128.137 125.678 128.298 120.799C128.014 121.175 127.729 121.546 127.444 121.922C127.949 121.836 128.164 122.46 128.126 122.825C128.787 122.551 129.453 122.277 130.113 122.003C129.727 121.6 129.813 121.052 130.049 120.557C130.371 119.886 130.924 119.493 131.633 119.321C132.664 119.069 133.76 119.278 134.769 119.52C135.989 119.805 137.192 120.149 138.4 120.471C143.33 121.777 148.265 123.078 153.195 124.383C154.323 124.679 155.139 123.271 154.328 122.438C148.421 116.387 142.809 110.052 137.519 103.453C136.026 101.594 134.565 99.7131 133.126 97.8108V98.9876C133.411 98.4986 133.781 98.4395 134.356 98.504C135.027 98.5792 135.688 98.864 136.273 99.1865C137.127 99.654 137.868 100.277 138.636 100.868L141.585 103.158C145.446 106.151 149.307 109.149 153.168 112.148C155.381 113.862 157.594 115.581 159.806 117.296C160.3 117.682 160.966 117.779 161.45 117.296C161.863 116.844 161.965 115.99 161.466 115.603Z" fill="#1D1E1C"/>
</svg>
